<svg width="240" height="284" viewBox="0 0 240 284" fill="none" xmlns="http://www.w3.org/2000/svg">
<g filter="url(#filter0_d)">
<path d="M190.775 116.126C190.665 115.492 190.554 114.858 190.444 114.197C193.173 110.009 195.075 105.186 195.682 99.8681C197.749 81.461 184.545 64.8726 166.187 62.8059C165.553 62.7233 164.919 62.7784 164.313 62.7784C164.147 62.613 163.982 62.4202 163.817 62.2273C164.258 45.0326 151.66 30.0148 134.295 28.086C126.825 27.2593 119.74 29.0504 113.731 32.5775C108.577 23.8148 99.618 17.422 88.7575 16.2095C74.534 14.6113 61.4682 22.2993 55.3488 34.3962C51.9032 32.6602 48.1269 31.3651 44.0748 30.9242C25.7442 28.8851 9.20527 42.1393 7.16547 60.5464C6.88982 62.9437 6.91739 65.2859 7.13791 67.6006C-8.13302 69.1988 -20.7577 81.2406 -22.5494 97.1677C-23.5693 106.316 -20.8129 115.024 -15.5204 121.72C-22.1635 127.093 -26.7669 134.946 -27.7868 144.095C-29.5785 160.022 -19.9032 174.571 -5.37654 179.531C-6.09322 181.736 -6.64452 184.023 -6.8926 186.42C-8.95997 204.827 4.2436 221.416 22.5742 223.482C26.6538 223.951 30.5956 223.537 34.3444 222.6C37.6522 235.772 48.7057 246.16 62.9292 247.786C73.7897 249.026 83.9336 244.783 90.88 237.37C95.9519 242.165 102.485 245.499 109.955 246.326C127.293 248.282 142.895 236.461 146.258 219.597C146.478 219.459 146.671 219.294 146.864 219.156C147.471 219.294 148.049 219.459 148.683 219.542C167.014 221.608 183.553 208.354 185.593 189.947C186.199 184.629 185.372 179.531 183.663 174.847C183.911 174.241 184.159 173.634 184.408 173.028C194.717 168.289 202.435 158.561 203.786 146.409C205.164 134.257 199.789 123.042 190.775 116.126Z" fill="#4AB0E1"/>
</g>
<defs>
<filter id="filter0_d" x="-44" y="0" width="284" height="284" filterUnits="userSpaceOnUse" color-interpolation-filters="sRGB">
<feFlood flood-opacity="0" result="BackgroundImageFix"/>
<feColorMatrix in="SourceAlpha" type="matrix" values="0 0 0 0 0 0 0 0 0 0 0 0 0 0 0 0 0 0 127 0"/>
<feOffset dx="10" dy="10"/>
<feGaussianBlur stdDeviation="13"/>
<feColorMatrix type="matrix" values="0 0 0 0 0 0 0 0 0 0 0 0 0 0 0 0 0 0 0.16 0"/>
<feBlend mode="normal" in2="BackgroundImageFix" result="effect1_dropShadow"/>
<feBlend mode="normal" in="SourceGraphic" in2="effect1_dropShadow" result="shape"/>
</filter>
</defs>
</svg>
