<svg width="375" height="550" viewBox="0 0 375 550" fill="none" xmlns="http://www.w3.org/2000/svg">
<g filter="url(#filter0_d)">
<path d="M246.981 413.496C204.579 419.931 173.605 454.973 170.696 496.032C169.915 507.05 180.356 514.637 191.277 512.98L329.692 491.975C340.613 490.318 348.333 479.975 344.318 469.684C329.359 431.337 289.383 407.062 246.981 413.496Z" fill="#F26624"/>
</g>
<path d="M242.605 452.836V453.76H247.323C247.085 456.742 245.405 459.15 242.031 460.76L242.647 461.698C246.819 459.654 248.485 456.462 248.485 452.836H242.605ZM251.019 451.478V464.036H252.167V451.478H251.019ZM256.436 457.064H260.86V456.14H256.436V453.55H261.14V452.612H255.288V461.012H256.268C258.634 461.012 260.258 460.928 262.19 460.592L262.078 459.668C260.23 459.976 258.662 460.074 256.436 460.074V457.064ZM266.474 456.518H264.402V451.478H263.254V464.022H264.402V457.484H266.474V456.518Z" fill="#222222"/>
<rect x="305" y="421" width="32" height="32" rx="12" fill="#FFD262"/>
<path d="M314.846 435.523L319.914 440.692L327.153 433.308" stroke="#222222" stroke-width="2" stroke-linecap="round"/>
<g filter="url(#filter1_d)">
<path d="M190.775 336.126C190.665 335.492 190.554 334.858 190.444 334.197C193.173 330.009 195.075 325.186 195.682 319.868C197.749 301.461 184.545 284.873 166.187 282.806C165.553 282.723 164.919 282.778 164.313 282.778C164.147 282.613 163.982 282.42 163.817 282.227C164.258 265.033 151.66 250.015 134.295 248.086C126.825 247.259 119.74 249.05 113.731 252.578C108.577 243.815 99.618 237.422 88.7575 236.21C74.534 234.611 61.4682 242.299 55.3488 254.396C51.9032 252.66 48.1269 251.365 44.0748 250.924C25.7442 248.885 9.20527 262.139 7.16547 280.546C6.88982 282.944 6.91739 285.286 7.13791 287.601C-8.13302 289.199 -20.7577 301.241 -22.5494 317.168C-23.5693 326.316 -20.8129 335.024 -15.5204 341.72C-22.1635 347.093 -26.7669 354.946 -27.7868 364.095C-29.5785 380.022 -19.9032 394.571 -5.37654 399.531C-6.09322 401.736 -6.64452 404.023 -6.8926 406.42C-8.95997 424.827 4.2436 441.416 22.5742 443.482C26.6538 443.951 30.5956 443.537 34.3444 442.6C37.6522 455.772 48.7057 466.16 62.9292 467.786C73.7897 469.026 83.9336 464.783 90.88 457.37C95.9519 462.165 102.485 465.499 109.955 466.326C127.293 468.282 142.895 456.461 146.258 439.597C146.478 439.459 146.671 439.294 146.864 439.156C147.471 439.294 148.049 439.459 148.683 439.542C167.014 441.608 183.553 428.354 185.593 409.947C186.199 404.629 185.372 399.531 183.663 394.847C183.911 394.241 184.159 393.634 184.408 393.028C194.717 388.289 202.435 378.561 203.786 366.409C205.164 354.257 199.789 343.042 190.775 336.126Z" fill="#4AB0E1"/>
</g>
<path d="M82.2751 356.404V354.024H86.0131V352.876H78.7191V351.224H85.6211V350.09H78.7191V348.564H85.9011V347.388H77.2491V354.024H80.8191V356.404H75.8351V357.594H87.2871V356.404H82.2751ZM91.612 355.48H90.17V359.05H99.004V357.888H91.612V355.48ZM95.154 353.562V352.358H98.976V351.252H91.57V350.076H98.724V346.786H90.128V347.892H97.296V349.04H90.156V352.358H93.712V353.562H88.686V354.724H100.166V353.562H95.154Z" fill="#222222"/>
<rect x="152" y="256" width="32" height="32" rx="12" fill="#FFD262"/>
<path d="M161.846 270.523L166.914 275.692L174.153 268.308" stroke="#222222" stroke-width="2" stroke-linecap="round"/>
<g filter="url(#filter2_d)">
<circle cx="68" cy="160" r="55" fill="#9A6EC6"/>
<path d="M61.073 159.56H57.517V157.684H61.073V159.56ZM62.193 154.996H61.073V156.802H57.517V154.996H56.383V160.484H62.193V154.996ZM58.791 164.614H65.609V161.562H57.629V162.472H64.475V163.76H57.671V166.896H66.071V165.986H58.791V164.614ZM65.609 157.18V154.492H64.461V160.974H65.609V158.132H67.471V157.18H65.609ZM73.042 161.59H75.772V164.572H73.042V161.59ZM72.846 156.564H75.968V160.666H72.846V156.564ZM76.92 164.572V161.59H79.048V160.666H77.116V156.564H79.062V155.64H69.752V156.564H71.698V160.666H69.78V161.59H71.894V164.572H68.73V165.51H80.126V164.572H76.92Z" fill="#222222"/>
</g>
<rect x="91" y="105" width="32" height="32" rx="12" fill="#FFD262"/>
<path d="M100.846 119.523L105.914 124.692L113.153 117.308" stroke="#222222" stroke-width="2" stroke-linecap="round"/>
<path d="M149 69H294V231H149V69Z" fill="#C4C4C4" fill-opacity="0.01"/>
<g filter="url(#filter3_d)">
<path d="M149.263 89.6411C149.263 74.2451 165.929 64.6225 179.263 72.3205L284.263 132.942C297.596 140.64 297.596 159.885 284.263 167.583L179.263 228.205C165.93 235.903 149.263 226.281 149.263 210.885L149.263 89.6411Z" fill="#8EDABC"/>
</g>
<path d="M188.444 154.502H195.892V151.338H187.268V152.248H194.744V153.634H187.31V156.882H196.2V155.972H188.444V154.502ZM195.57 149.154C195.85 147.74 195.85 146.662 195.85 145.808V145.01H187.38V145.934H194.716C194.716 146.76 194.702 147.768 194.422 149.154H185.924V150.078H197.32V149.154H195.57ZM210.045 150.904C208.393 150.204 207.525 148.622 207.525 147.096V145.5H206.363V147.096C206.363 148.328 205.747 149.84 204.487 150.708C203.213 149.812 202.569 148.258 202.569 147.096V145.5H201.435V147.096C201.435 148.482 200.525 150.176 198.915 150.904L199.531 151.786C200.721 151.212 201.561 150.148 201.995 148.958C202.387 150.176 203.213 151.338 204.473 151.926C205.733 151.352 206.545 150.232 206.951 149.028C207.371 150.218 208.211 151.24 209.415 151.786L210.045 150.904ZM198.803 154.418V155.37H210.185V154.418H198.803ZM212.423 145.836V146.76H217.141C216.903 149.742 215.223 152.15 211.849 153.76L212.465 154.698C216.637 152.654 218.303 149.462 218.303 145.836H212.423ZM220.837 144.478V157.036H221.985V144.478H220.837Z" fill="#222222"/>
<rect x="224" y="89" width="32" height="32" rx="12" fill="#FFD262"/>
<path d="M233.846 103.523L238.914 108.692L246.153 101.308" stroke="#222222" stroke-width="2" stroke-linecap="round"/>
<g filter="url(#filter4_d)">
<rect x="204" y="253" width="170" height="170" rx="20" transform="rotate(-30 204 253)" fill="#FAB8A5"/>
</g>
<path d="M293.147 280.606H296.269V284.722H293.147V280.606ZM295.289 288.53V285.646H299.335V284.722H297.417V280.606H299.363V279.682H290.053V280.606H291.999V284.722H290.081V285.646H294.127V288.53H289.045V289.468H300.427V288.53H295.289ZM312.004 285.254H304.542V283.266H311.598V282.356H304.542V280.494H311.878V279.57H303.38V286.178H312.004V285.254ZM301.91 288.474V289.412H313.306V288.474H301.91ZM317.323 288.796H324.701V286.094H316.161V286.948H323.567V287.984H316.203V290.896H325.079V290.028H317.323V288.796ZM318.905 279.696H322.027V282.09H318.905V279.696ZM321.047 284.176V282.972H325.023V282.09H323.175V279.696H325.065V278.814H315.853V279.696H317.757V282.09H315.895V282.972H319.899V284.176H314.789V285.1H326.143V284.176H321.047ZM329.557 284.12H334.191V279.64H328.367V280.578H333.029V283.196H328.409V288.012H329.445C331.601 288.012 333.505 287.928 335.773 287.55L335.661 286.612C333.463 286.962 331.615 287.06 329.557 287.06V284.12ZM336.837 278.464V291.05H337.985V278.464H336.837ZM342.772 282.594C342.772 281.152 344.242 280.214 346.244 280.214C348.246 280.214 349.702 281.152 349.702 282.594C349.702 284.036 348.246 284.974 346.244 284.974C344.242 284.974 342.772 284.036 342.772 282.594ZM346.818 288.474V285.856C349.156 285.688 350.794 284.442 350.794 282.594C350.794 280.592 348.89 279.304 346.244 279.304C343.584 279.304 341.666 280.592 341.666 282.594C341.666 284.442 343.318 285.688 345.656 285.856V288.474H340.546V289.426H351.956V288.474H346.818Z" fill="#222222"/>
<rect x="329" y="161" width="32" height="32" rx="12" fill="#FFD262"/>
<path d="M338.846 175.523L343.914 180.692L351.153 173.308" stroke="#222222" stroke-width="2" stroke-linecap="round"/>
<defs>
<filter id="filter0_d" x="154.654" y="396.465" width="226.741" height="152.742" filterUnits="userSpaceOnUse" color-interpolation-filters="sRGB">
<feFlood flood-opacity="0" result="BackgroundImageFix"/>
<feColorMatrix in="SourceAlpha" type="matrix" values="0 0 0 0 0 0 0 0 0 0 0 0 0 0 0 0 0 0 127 0"/>
<feOffset dx="10" dy="10"/>
<feGaussianBlur stdDeviation="13"/>
<feColorMatrix type="matrix" values="0 0 0 0 0 0 0 0 0 0 0 0 0 0 0 0 0 0 0.16 0"/>
<feBlend mode="normal" in2="BackgroundImageFix" result="effect1_dropShadow"/>
<feBlend mode="normal" in="SourceGraphic" in2="effect1_dropShadow" result="shape"/>
</filter>
<filter id="filter1_d" x="-44" y="220" width="284" height="284" filterUnits="userSpaceOnUse" color-interpolation-filters="sRGB">
<feFlood flood-opacity="0" result="BackgroundImageFix"/>
<feColorMatrix in="SourceAlpha" type="matrix" values="0 0 0 0 0 0 0 0 0 0 0 0 0 0 0 0 0 0 127 0"/>
<feOffset dx="10" dy="10"/>
<feGaussianBlur stdDeviation="13"/>
<feColorMatrix type="matrix" values="0 0 0 0 0 0 0 0 0 0 0 0 0 0 0 0 0 0 0.16 0"/>
<feBlend mode="normal" in2="BackgroundImageFix" result="effect1_dropShadow"/>
<feBlend mode="normal" in="SourceGraphic" in2="effect1_dropShadow" result="shape"/>
</filter>
<filter id="filter2_d" x="-3" y="89" width="162" height="162" filterUnits="userSpaceOnUse" color-interpolation-filters="sRGB">
<feFlood flood-opacity="0" result="BackgroundImageFix"/>
<feColorMatrix in="SourceAlpha" type="matrix" values="0 0 0 0 0 0 0 0 0 0 0 0 0 0 0 0 0 0 127 0"/>
<feOffset dx="10" dy="10"/>
<feGaussianBlur stdDeviation="13"/>
<feColorMatrix type="matrix" values="0 0 0 0 0 0 0 0 0 0 0 0 0 0 0 0 0 0 0.16 0"/>
<feBlend mode="normal" in2="BackgroundImageFix" result="effect1_dropShadow"/>
<feBlend mode="normal" in="SourceGraphic" in2="effect1_dropShadow" result="shape"/>
</filter>
<filter id="filter3_d" x="73.416" y="15.9947" width="264.193" height="258.225" filterUnits="userSpaceOnUse" color-interpolation-filters="sRGB">
<feFlood flood-opacity="0" result="BackgroundImageFix"/>
<feColorMatrix in="SourceAlpha" type="matrix" values="0 0 0 0 0 0 0 0 0 0 0 0 0 0 0 0 0 0 127 0"/>
<feOffset dx="10" dy="10"/>
<feGaussianBlur stdDeviation="13"/>
<feColorMatrix type="matrix" values="0 0 0 0 0 0 0 0 0 0 0 0 0 0 0 0 0 0 0.16 0"/>
<feBlend mode="normal" in2="BackgroundImageFix" result="effect1_dropShadow"/>
<feBlend mode="normal" in="SourceGraphic" in2="effect1_dropShadow" result="shape"/>
</filter>
<filter id="filter4_d" x="195.316" y="159.317" width="269.59" height="269.59" filterUnits="userSpaceOnUse" color-interpolation-filters="sRGB">
<feFlood flood-opacity="0" result="BackgroundImageFix"/>
<feColorMatrix in="SourceAlpha" type="matrix" values="0 0 0 0 0 0 0 0 0 0 0 0 0 0 0 0 0 0 127 0"/>
<feOffset dx="10" dy="10"/>
<feGaussianBlur stdDeviation="13"/>
<feColorMatrix type="matrix" values="0 0 0 0 0 0 0 0 0 0 0 0 0 0 0 0 0 0 0.16 0"/>
<feBlend mode="normal" in2="BackgroundImageFix" result="effect1_dropShadow"/>
<feBlend mode="normal" in="SourceGraphic" in2="effect1_dropShadow" result="shape"/>
</filter>
</defs>
</svg>
