<svg width="225" height="227" viewBox="0 0 225 227" fill="none" xmlns="http://www.w3.org/2000/svg">
<path d="M54.8592 184C52.944 184 51.5674 183.452 50.7295 182.355C49.8916 181.229 49.4727 179.57 49.4727 177.377C49.4727 175.154 50.4153 168.887 52.3006 158.575L49.9215 153.818C53.3031 151.655 56.3854 150.574 59.1685 150.574C61.0239 150.574 62.1311 151.463 62.4902 153.241C65.5725 151.492 68.595 150.618 71.5576 150.618C73.5028 150.618 75.2085 151.063 76.6748 151.952C78.4105 152.989 79.2784 154.781 79.2784 157.33C79.2784 161.538 76.9292 164.59 72.2309 166.487C77.019 167.316 79.413 169.969 79.413 174.443C79.413 177.347 78.201 179.659 75.7771 181.377C73.3531 183.096 70.6299 183.956 67.6075 183.956C64.6149 183.956 62.2059 183.333 60.3805 182.089C58.6149 183.363 56.7745 184 54.8592 184ZM69.0439 173.465C69.0439 172.073 68.6249 171.05 67.787 170.398C66.979 169.746 65.8867 169.42 64.5102 169.42C63.1336 169.42 61.5924 169.702 59.8867 170.265C59.4079 172.784 59.1685 174.932 59.1685 176.71C60.6348 177.392 62.161 177.733 63.7471 177.733C65.3331 177.733 66.605 177.362 67.5626 176.621C68.5501 175.88 69.0439 174.828 69.0439 173.465ZM66.1261 156.485C64.9591 156.485 63.7022 156.708 62.3555 157.152C62.176 158.308 61.6224 161.271 60.6947 166.042C63.1785 165.864 65.2882 165.272 67.0239 164.264C68.7596 163.227 69.6274 161.745 69.6274 159.819C69.6274 157.597 68.4603 156.485 66.1261 156.485Z" fill="#222222"/>
<path d="M104.902 159.552C106.578 159.552 108.014 160.219 109.211 161.553C110.438 162.886 111.052 164.827 111.052 167.376C111.052 169.895 110.603 172.236 109.705 174.399C108.807 176.532 107.625 178.281 106.159 179.644C104.693 181.007 103.032 182.074 101.176 182.844C99.321 183.585 97.4208 183.956 95.4756 183.956C91.5554 183.956 88.4581 182.889 86.1838 180.755C83.9094 178.622 82.7723 175.792 82.7723 172.265C82.7723 167.494 84.3134 163.627 87.3957 160.664C90.508 157.671 94.4581 156.174 99.2462 156.174C100.324 156.174 101.401 156.293 102.478 156.53C102.807 157.508 102.987 158.619 103.017 159.864C103.645 159.656 104.274 159.552 104.902 159.552ZM99.3809 165.731C99.3809 164.901 99.5754 163.968 99.9644 162.931C100.383 161.894 101.042 161.064 101.939 160.441C97.9893 161.271 95.2661 162.857 93.7699 165.198C92.4831 167.213 91.8397 169.287 91.8397 171.421C91.8397 173.554 92.2736 175.273 93.1414 176.577C94.0392 177.851 95.1764 178.488 96.5529 178.488C99.6053 178.488 101.76 176.518 103.017 172.576C100.593 171.095 99.3809 168.813 99.3809 165.731Z" fill="#222222"/>
<path d="M136.99 159.552C138.666 159.552 140.102 160.219 141.299 161.553C142.526 162.886 143.14 164.827 143.14 167.376C143.14 169.895 142.691 172.236 141.793 174.399C140.895 176.532 139.713 178.281 138.247 179.644C136.781 181.007 135.12 182.074 133.264 182.844C131.409 183.585 129.509 183.956 127.564 183.956C123.643 183.956 120.546 182.889 118.272 180.755C115.997 178.622 114.86 175.792 114.86 172.265C114.86 167.494 116.401 163.627 119.484 160.664C122.596 157.671 126.546 156.174 131.334 156.174C132.411 156.174 133.489 156.293 134.566 156.53C134.895 157.508 135.075 158.619 135.105 159.864C135.733 159.656 136.362 159.552 136.99 159.552ZM131.469 165.731C131.469 164.901 131.663 163.968 132.052 162.931C132.471 161.894 133.13 161.064 134.027 160.441C130.077 161.271 127.354 162.857 125.858 165.198C124.571 167.213 123.928 169.287 123.928 171.421C123.928 173.554 124.362 175.273 125.229 176.577C126.127 177.851 127.264 178.488 128.641 178.488C131.693 178.488 133.848 176.518 135.105 172.576C132.681 171.095 131.469 168.813 131.469 165.731Z" fill="#222222"/>
<path d="M151.392 155.196L148.878 151.64C152.619 149.477 155.567 148.396 157.721 148.396C158.948 148.396 159.816 148.647 160.325 149.151C160.834 149.625 161.088 150.44 161.088 151.596C161.088 152.722 160.893 154.307 160.504 156.352C160.145 158.397 159.652 160.812 159.023 163.597C158.425 166.383 157.991 168.62 157.721 170.309L160.549 167.82C160.819 167.583 161.253 167.213 161.851 166.709C162.48 166.176 162.913 165.79 163.153 165.553C163.422 165.316 163.781 164.99 164.23 164.575C164.679 164.131 165.008 163.76 165.218 163.464C165.427 163.168 165.667 162.827 165.936 162.442C166.355 161.79 166.564 161.064 166.564 160.264C166.564 159.434 166.445 158.708 166.205 158.086C168.33 156.811 170.335 156.174 172.22 156.174C173.477 156.174 174.48 156.574 175.228 157.374C175.976 158.145 176.35 159.271 176.35 160.753C176.35 162.234 175.662 163.731 174.285 165.242C172.938 166.724 171.263 168.028 169.258 169.154C170.185 172.206 171.382 175.006 172.849 177.555C174.315 180.103 175.542 181.629 176.53 182.133C175.332 183.348 173.477 183.956 170.963 183.956C169.108 183.956 167.537 183.333 166.25 182.089C164.993 180.844 163.871 178.799 162.884 175.955L161.761 172.799L157.138 175.066C157.108 175.392 157.093 175.88 157.093 176.532C157.093 178.992 157.557 180.74 158.484 181.777C156.39 183.23 154.489 183.956 152.784 183.956C151.078 183.956 149.821 183.407 149.013 182.311C148.235 181.185 147.846 179.644 147.846 177.688C147.846 175.732 148.4 171.732 149.507 165.687C150.614 159.641 151.243 156.145 151.392 155.196Z" fill="#222222"/>
<path d="M76.4005 157.439C76.4223 156.785 75.9736 154.477 74.0488 153.576" stroke="white" stroke-width="1.45248" stroke-linecap="round" stroke-linejoin="round"/>
<path d="M107.832 165.145C107.854 164.492 107.417 162.96 105.492 162.06" stroke="white" stroke-width="1.45248" stroke-linecap="round" stroke-linejoin="round"/>
<path d="M140.174 165.225C140.196 164.572 139.759 163.04 137.834 162.14" stroke="white" stroke-width="1.45248" stroke-linecap="round" stroke-linejoin="round"/>
<path d="M173.234 162.07C173.569 160.481 173.234 158.312 170.589 158.962" stroke="white" stroke-width="1.45248" stroke-linecap="round" stroke-linejoin="round"/>
<path d="M13 126.803C13 124.728 13.4489 122.624 14.3466 120.491C15.2444 118.327 16.5162 116.327 18.1621 114.49C19.808 112.653 21.9477 111.156 24.5811 110.001C27.2445 108.815 29.9827 108.223 32.7957 108.223C35.6386 108.223 37.8531 108.741 39.4391 109.778C41.0551 110.815 41.8631 112.253 41.8631 114.09C41.8631 115.927 41.2496 117.364 40.0226 118.402C38.8256 119.409 37.4491 119.913 35.8929 119.913C34.3368 119.913 32.9303 119.587 31.6735 118.935C30.4465 118.253 29.459 117.29 28.7108 116.046C27.0949 116.816 25.7033 118.327 24.5362 120.58C23.3692 122.832 22.7856 125.099 22.7856 127.38C22.7856 129.633 23.1597 131.425 23.9078 132.759C24.6559 134.063 25.7183 134.715 27.0949 134.715C28.4714 134.715 29.6834 134.018 30.7308 132.626C31.8081 131.233 32.3468 129.559 32.3468 127.603C35.3692 127.603 37.5239 127.84 38.8107 128.314C40.1274 128.788 40.7857 129.81 40.7857 131.381C40.7857 133.841 39.4391 136.152 36.7458 138.315C34.0525 140.478 30.6709 141.56 26.6011 141.56C22.5312 141.56 19.2394 140.315 16.7257 137.826C14.2419 135.337 13 131.662 13 126.803Z" fill="#222222"/>
<path d="M44.7636 136.048C44.7636 134.863 45.0628 132.566 45.6614 129.158C46.2898 125.751 46.9332 122.639 47.5915 119.824L45.2574 116.268C48.998 114.608 51.6165 113.779 53.1128 113.779C54.639 113.779 55.4021 114.727 55.4021 116.624C55.4021 117.661 54.9083 119.824 53.9208 123.113L54.3696 123.336C56.5243 116.964 59.2026 113.779 62.4046 113.779C63.871 113.779 64.9932 114.223 65.7712 115.112C66.5493 116.001 66.9383 116.994 66.9383 118.09C66.9383 119.72 66.3248 121.113 65.0979 122.269C63.871 123.424 62.0305 124.002 59.5767 124.002C55.8659 124.002 54.0105 127.781 54.0105 135.337C54.0105 137.174 54.3248 138.523 54.9532 139.382C53.0978 140.834 51.3921 141.56 49.8359 141.56C46.4544 141.56 44.7636 139.723 44.7636 136.048Z" fill="#222222"/>
<path d="M83.8622 134.981L83.4133 134.759C82.6053 136.893 81.4382 138.567 79.912 139.782C78.4157 140.967 76.7399 141.56 74.8846 141.56C72.3409 141.56 70.306 140.612 68.7798 138.715C67.2536 136.819 66.4905 134.285 66.4905 131.114C66.4905 126.195 68.1513 122.076 71.4731 118.757C74.8247 115.438 78.9843 113.779 83.952 113.779C85.2388 113.779 86.4208 113.897 87.4981 114.134C87.6777 114.964 87.7824 115.69 87.8123 116.312C89.3086 115.364 90.8498 114.89 92.4358 114.89C94.6204 114.89 95.7126 116.061 95.7126 118.402C95.7126 119.231 95.2338 121.735 94.2762 125.914C93.3485 130.092 92.8847 133.189 92.8847 135.204C92.8847 137.219 93.3485 138.612 94.2762 139.382C92.6004 140.834 90.8498 141.56 89.0243 141.56C87.2288 141.56 85.9121 141.027 85.0742 139.96C84.2662 138.893 83.8622 137.234 83.8622 134.981ZM74.9294 128.936C74.9294 130.388 75.2287 131.514 75.8272 132.314C76.4556 133.085 77.3384 133.47 78.4756 133.47C79.6128 133.47 80.735 133.055 81.8422 132.226C82.9495 131.396 83.8772 130.255 84.6253 128.803C84.8946 125.81 85.4781 122.269 86.3759 118.179C83.3534 118.179 80.6901 119.261 78.3858 121.424C76.0816 123.587 74.9294 126.091 74.9294 128.936Z" fill="#222222"/>
<path d="M99.7673 129.87C99.7673 125.128 101.413 121.261 104.705 118.268C107.997 115.275 112.141 113.779 117.139 113.779C119.713 113.779 121.748 114.268 123.244 115.246C124.74 116.194 125.488 117.394 125.488 118.846C125.488 120.298 124.979 121.409 123.962 122.18C122.974 122.95 121.882 123.336 120.685 123.336C119.518 123.336 118.441 123.024 117.453 122.402C116.496 121.78 115.747 120.876 115.209 119.691C113.324 120.461 111.827 121.824 110.72 123.78C109.643 125.736 109.104 127.692 109.104 129.647C109.104 131.603 109.493 133.189 110.271 134.404C111.049 135.619 112.067 136.226 113.324 136.226C114.58 136.226 115.598 135.811 116.376 134.981C117.184 134.152 117.588 132.922 117.588 131.292C121.957 131.292 124.142 132.314 124.142 134.359C124.142 136.108 123.034 137.752 120.82 139.293C118.605 140.804 115.688 141.56 112.067 141.56C108.446 141.56 105.483 140.493 103.179 138.36C100.904 136.196 99.7673 133.366 99.7673 129.87Z" fill="#222222"/>
<path d="M132.836 112.801L130.322 109.245C134.063 107.082 137.011 106 139.165 106C140.392 106 141.26 106.252 141.769 106.756C142.278 107.23 142.532 108.045 142.532 109.2C142.532 110.326 142.337 111.912 141.948 113.957C141.589 116.001 141.096 118.416 140.467 121.202C139.869 123.987 139.435 126.225 139.165 127.914L141.993 125.425C142.263 125.188 142.697 124.817 143.295 124.313C143.924 123.78 144.357 123.395 144.597 123.158C144.866 122.921 145.225 122.595 145.674 122.18C146.123 121.735 146.452 121.365 146.662 121.069C146.871 120.772 147.111 120.431 147.38 120.046C147.799 119.394 148.008 118.668 148.008 117.868C148.008 117.038 147.889 116.312 147.649 115.69C149.774 114.416 151.779 113.779 153.664 113.779C154.921 113.779 155.924 114.179 156.672 114.979C157.42 115.749 157.794 116.875 157.794 118.357C157.794 119.839 157.106 121.335 155.729 122.847C154.382 124.328 152.707 125.632 150.702 126.758C151.629 129.81 152.826 132.611 154.293 135.159C155.759 137.708 156.986 139.234 157.974 139.738C156.777 140.953 154.921 141.56 152.407 141.56C150.552 141.56 148.981 140.938 147.694 139.693C146.437 138.449 145.315 136.404 144.328 133.559L143.205 130.403L138.582 132.67C138.552 132.996 138.537 133.485 138.537 134.137C138.537 136.596 139.001 138.345 139.928 139.382C137.834 140.834 135.933 141.56 134.228 141.56C132.522 141.56 131.265 141.012 130.457 139.915C129.679 138.789 129.29 137.248 129.29 135.293C129.29 133.337 129.844 129.336 130.951 123.291C132.058 117.246 132.687 113.749 132.836 112.801Z" fill="#222222"/>
<path d="M173.713 141.56C169.613 141.56 166.441 140.508 164.196 138.404C161.982 136.3 160.875 133.455 160.875 129.87C160.875 125.099 162.521 121.232 165.812 118.268C169.134 115.275 173.294 113.779 178.291 113.779C181.074 113.779 183.184 114.401 184.621 115.646C186.057 116.861 186.775 118.476 186.775 120.491C186.775 123.247 185.414 125.543 182.69 127.38C179.997 129.188 175.822 130.107 170.167 130.136C170.256 132.033 170.69 133.529 171.468 134.626C172.246 135.693 173.219 136.226 174.386 136.226C175.553 136.226 176.556 135.841 177.394 135.07C178.261 134.3 178.695 133.04 178.695 131.292C183.064 131.292 185.249 132.314 185.249 134.359C185.249 136.108 184.172 137.752 182.017 139.293C179.862 140.804 177.094 141.56 173.713 141.56ZM177.528 118.979C176.002 118.979 174.596 119.735 173.309 121.246C172.052 122.758 171.139 124.536 170.571 126.58C173.563 126.343 175.808 125.677 177.304 124.58C178.83 123.454 179.593 122.269 179.593 121.024C179.593 120.431 179.399 119.942 179.01 119.557C178.65 119.172 178.157 118.979 177.528 118.979Z" fill="#222222"/>
<path d="M190.825 136.048C190.825 134.863 191.125 132.566 191.723 129.158C192.351 125.751 192.995 122.639 193.653 119.824L191.319 116.268C195.06 114.608 197.678 113.779 199.174 113.779C200.701 113.779 201.464 114.727 201.464 116.624C201.464 117.661 200.97 119.824 199.982 123.113L200.431 123.336C202.586 116.964 205.264 113.779 208.466 113.779C209.933 113.779 211.055 114.223 211.833 115.112C212.611 116.001 213 116.994 213 118.09C213 119.72 212.387 121.113 211.16 122.269C209.933 123.424 208.092 124.002 205.638 124.002C201.928 124.002 200.072 127.781 200.072 135.337C200.072 137.174 200.386 138.523 201.015 139.382C199.16 140.834 197.454 141.56 195.898 141.56C192.516 141.56 190.825 139.723 190.825 136.048Z" fill="#222222"/>
<path d="M38.8984 115.225C38.8075 114.297 39.0874 111.726 35.8535 111.205" stroke="white" stroke-width="1.45248" stroke-linecap="round" stroke-linejoin="round"/>
<path d="M64.4021 119.353C64.7524 118.24 63.9511 116.268 62.0625 116.268" stroke="white" stroke-width="1.45248" stroke-linecap="round" stroke-linejoin="round"/>
<path d="M210.106 119.457C210.106 118.104 210.502 116.349 208.162 116.349" stroke="white" stroke-width="1.45248" stroke-linecap="round" stroke-linejoin="round"/>
<path d="M122.713 120.091C123.14 119.033 122.451 117.179 120.576 116.812" stroke="white" stroke-width="1.45248" stroke-linecap="round" stroke-linejoin="round"/>
<path d="M183.859 119.689C183.881 119.035 183.444 117.504 181.52 116.604" stroke="white" stroke-width="1.45248" stroke-linecap="round" stroke-linejoin="round"/>
<path d="M93.0647 120.62C93.6524 118.822 93.4921 116.494 90.7765 117.307" stroke="white" stroke-width="1.45248" stroke-linecap="round" stroke-linejoin="round"/>
<path d="M154.939 119.605C155.274 118.016 154.939 115.848 152.294 116.497" stroke="white" stroke-width="1.45248" stroke-linecap="round" stroke-linejoin="round"/>
<path d="M2.798 211.806H0.422V222.516H1.574C3.23 222.516 5.138 222.426 7.298 222.03L7.1 220.032C5.516 220.32 4.094 220.428 2.798 220.464V211.806ZM11.708 209.952V216.342H10.214V210.258H8V225.756H10.214V218.268H11.708V226.53H13.976V209.952H11.708ZM30.1026 209.97H27.7086V218.268H30.1026V209.97ZM18.8706 214.236C18.8706 213.066 19.7886 212.364 21.0126 212.364C22.2366 212.364 23.1186 213.066 23.1186 214.236C23.1186 215.424 22.2366 216.108 21.0126 216.108C19.7886 216.108 18.8706 215.424 18.8706 214.236ZM25.4226 214.236C25.4226 212.04 23.5326 210.456 21.0126 210.456C18.4746 210.456 16.5666 212.04 16.5666 214.236C16.5666 216.45 18.4746 218.034 21.0126 218.034C23.5326 218.034 25.4226 216.45 25.4226 214.236ZM21.4266 224.514V223.47H30.1026V218.952H19.0506V220.77H27.7446V221.778H19.0686V226.35H30.5166V224.514H21.4266ZM40.3792 211.95C42.7912 211.95 43.9252 212.292 43.9252 213.03C43.9252 213.804 42.7912 214.128 40.3792 214.128C37.9852 214.128 36.8512 213.804 36.8512 213.03C36.8512 212.292 37.9852 211.95 40.3792 211.95ZM40.3792 215.856C44.1772 215.856 46.3912 214.866 46.3912 213.03C46.3912 211.212 44.1772 210.204 40.3792 210.204C36.5992 210.204 34.3852 211.212 34.3852 213.03C34.3852 214.866 36.5992 215.856 40.3792 215.856ZM36.9772 223.704H46.0492V219.438H34.6012V221.184H43.7092V222.066H34.6192V226.422H46.4812V224.64H36.9772V223.704ZM32.8912 216.648V218.502H47.8672V216.648H32.8912ZM59.7199 220.824H56.3899V217.152H59.7199V220.824ZM59.7199 215.298H56.3899V211.284H54.0319V222.714H62.0779V211.284H59.7199V215.298ZM68.9179 216.144H66.5059V209.988H64.1299V226.548H66.5059V218.124H68.9179V216.144ZM85.0625 217.674H82.9565C83.4425 215.28 83.4425 213.498 83.4425 212.13V210.96H77.8085V212.85H81.1025C81.0845 214.11 81.0125 215.658 80.5805 217.674H76.0985C76.7105 215.172 76.7105 213.354 76.7105 212.022V210.96H71.2745V212.85H74.3885C74.3705 214.074 74.2625 215.604 73.7045 217.674H70.0865V219.6H76.3145V226.512H78.6905V219.6H85.0625V217.674ZM100.001 214.452H90.8751V210.564H88.4991V216.342H100.001V214.452ZM90.7311 221.256H88.3371V226.188H100.091V224.298H90.7311V221.256ZM86.6451 218.034V219.942H101.657V218.034H86.6451ZM110.936 215.388C110.936 213.696 112.502 212.706 114.77 212.706C117.056 212.706 118.622 213.696 118.622 215.388C118.622 217.08 117.056 218.07 114.77 218.07C112.502 218.07 110.936 217.08 110.936 215.388ZM115.958 222.696V219.888C118.892 219.546 120.962 217.854 120.962 215.388C120.962 212.616 118.316 210.816 114.77 210.816C111.242 210.816 108.596 212.616 108.596 215.388C108.596 217.854 110.666 219.528 113.582 219.888V222.696H107.282V224.622H122.294V222.696H115.958ZM137.124 213.3H128.07V210.132H125.694V215.172H137.124V213.3ZM127.944 223.524H137.088V219.132H125.532V220.914H134.694V221.85H125.55V226.35H137.556V224.568H127.944V223.524ZM123.84 216.234V218.106H138.852V216.234H123.84ZM145.727 211.068C143.135 211.068 141.173 212.778 141.173 215.154C141.173 217.548 143.135 219.24 145.727 219.24C148.319 219.24 150.299 217.548 150.299 215.154C150.299 212.778 148.319 211.068 145.727 211.068ZM145.727 213.102C147.005 213.102 147.977 213.858 147.977 215.154C147.977 216.45 147.005 217.206 145.727 217.206C144.449 217.206 143.477 216.45 143.477 215.154C143.477 213.858 144.449 213.102 145.727 213.102ZM151.847 209.952V226.584H154.223V209.952H151.847ZM140.777 223.218C143.639 223.218 147.527 223.182 151.091 222.462L150.947 220.752C147.455 221.274 143.387 221.292 140.471 221.292L140.777 223.218ZM171.764 214.938H165.302V213.642H171.764V214.938ZM174.122 210.402H171.764V211.86H165.302V210.402H162.944V216.792H174.122V210.402ZM176.03 219.744V217.854H161.036V219.744H167.318V221.148H162.692V223.02H171.836V226.566H174.212V221.148H169.694V219.744H176.03ZM192.084 217.764C188.34 217.134 186.288 214.56 186.288 212.13V210.942H183.75V212.13C183.75 214.506 181.68 217.134 177.954 217.764L178.962 219.762C181.842 219.204 183.948 217.584 185.01 215.478C186.072 217.584 188.196 219.186 191.076 219.762L192.084 217.764ZM177.594 222.606V224.532H192.606V222.606H177.594ZM197.267 217.818H202.019V215.964H197.267V213.264H202.577V211.356H194.909V222.822H196.259C199.049 222.822 201.173 222.768 203.567 222.39L203.351 220.482C201.317 220.806 199.499 220.896 197.267 220.914V217.818ZM205.691 209.952V215.802H202.847V217.71H205.691V226.584H208.067V209.952H205.691ZM214.078 213.372H219.712V211.446H211.702V222.642H213.16C216.688 222.642 218.794 222.57 221.044 222.138L220.828 220.176C218.83 220.554 216.976 220.644 214.078 220.662V213.372ZM222.07 209.97V226.602H224.446V209.97H222.07Z" fill="#222222"/>
<path d="M81.7324 10.8215C81.7324 5.9495 85.6819 2 90.5539 2H92.2699V64.5147L81.7324 68.9652V10.8215Z" fill="white"/>
<path d="M81.0835 74.8297C81.0835 72.3138 82.0829 69.901 83.8619 68.122C85.6409 66.343 88.0537 65.3436 90.5696 65.3436H144.398V2.00098H90.4861C87.9677 2.00834 85.5549 3.01395 83.7767 4.79736C81.9985 6.58077 81 8.99647 81 11.5149L81.0835 74.8297Z" fill="#FFD262" stroke="#222222" stroke-width="2.75671" stroke-linecap="round" stroke-linejoin="round"/>
<path d="M81.084 74.8281V77.9994H138.084" stroke="#222222" stroke-width="2.75671" stroke-linecap="round" stroke-linejoin="round"/>
<line x1="83.1108" y1="71.5826" x2="132.697" y2="71.5826" stroke="#222222" stroke-width="2.75671" stroke-linecap="round" stroke-linejoin="round"/>
<ellipse cx="108.522" cy="26.5906" rx="8.86799" ry="11.824" fill="white"/>
<ellipse cx="112.466" cy="24.1273" rx="4.92666" ry="6.40466" fill="#222222"/>
<ellipse cx="129.216" cy="26.5906" rx="8.86799" ry="11.824" fill="white"/>
<ellipse cx="133.157" cy="24.1273" rx="4.92666" ry="6.40466" fill="#222222"/>
</svg>
