<svg width="32" height="32" viewBox="0 0 32 32" fill="none" xmlns="http://www.w3.org/2000/svg">
<path d="M17.5 6.69385H17.5C18.4283 6.69385 19.3185 7.10357 19.9749 7.83288C20.6313 8.56218 21 9.55134 21 10.5827V16.805C21 17.8364 20.6313 18.8255 19.9749 19.5548C19.3185 20.2841 18.4283 20.6938 17.5 20.6938H17.5C17.0404 20.6938 16.5852 20.5933 16.1606 20.3978C15.736 20.2024 15.3501 19.9159 15.0251 19.5548C14.7001 19.1937 14.4423 18.765 14.2664 18.2932C14.0905 17.8214 14 17.3157 14 16.805V10.5827C14 9.55133 14.3687 8.56218 15.0251 7.83287C15.6815 7.10357 16.5717 6.69385 17.5 6.69385Z" fill="#FFD262"/>
<path d="M16 3H16C17.3261 3 18.5979 3.52678 19.5355 4.46447C20.4732 5.40215 21 6.67392 21 8V16C21 17.3261 20.4732 18.5979 19.5355 19.5355C18.5979 20.4732 17.3261 21 16 21H16C15.3434 21 14.6932 20.8707 14.0866 20.6194C13.4799 20.3681 12.9288 19.9998 12.4645 19.5355C12.0002 19.0712 11.6319 18.5201 11.3806 17.9134C11.1293 17.3068 11 16.6566 11 16V7.99999C11 6.67391 11.5268 5.40214 12.4645 4.46446C13.4021 3.52678 14.6739 3 16 3V3Z" stroke="#222222" stroke-linecap="round" stroke-linejoin="round"/>
<path d="M16 25V29" stroke="#222222" stroke-linecap="round" stroke-linejoin="round"/>
<path d="M24.9448 17C24.6986 19.2002 23.6502 21.2324 22 22.7082C20.3498 24.1841 18.2136 25 15.9998 25C13.7859 25 11.6497 24.1841 9.99946 22.7082C8.34927 21.2324 7.30087 19.2001 7.05469 17" stroke="#222222" stroke-linecap="round" stroke-linejoin="round"/>
</svg>
