<svg width="20" height="14" viewBox="0 0 20 14" fill="none" xmlns="http://www.w3.org/2000/svg">
<path d="M8.41602 3.52017C8.41602 2.95123 8.64835 2.4056 9.06191 2.0033C9.47547 1.60101 10.0364 1.375 10.6212 1.375H15.0317C15.1779 1.375 15.3181 1.4315 15.4215 1.53208C15.5249 1.63265 15.583 1.76906 15.583 1.91129V6.22017M10.6823 11.0282H10.6212C10.0364 11.0282 9.47547 11.2543 9.06191 11.6566C8.64835 12.0588 8.41602 12.6045 8.41602 13.1734" stroke="#222222" stroke-linecap="round" stroke-linejoin="round"/>
<path d="M1.25 10.492C1.25 10.6342 1.30808 10.7706 1.41147 10.8712C1.51486 10.9717 1.65509 11.0282 1.8013 11.0282H6.21174C6.7966 11.0282 7.35751 11.2543 7.77107 11.6566C8.18462 12.0589 8.41696 12.6045 8.41696 13.1734V3.52017C8.41696 2.95123 8.18462 2.4056 7.77107 2.0033C7.35751 1.60101 6.7966 1.375 6.21174 1.375H1.8013C1.65509 1.375 1.51486 1.4315 1.41147 1.53208C1.30808 1.63265 1.25 1.76906 1.25 1.91129V10.492Z" stroke="#222222" stroke-linecap="round" stroke-linejoin="round"/>
<path d="M15.9736 13.1037C15.7404 13.2992 15.3823 13.2992 15.1514 13.1014L15.1184 13.0741C13.5094 11.726 12.4611 10.8462 12.5011 9.74818C12.52 9.2685 12.7862 8.80474 13.2173 8.53421C14.0253 8.02043 15.0219 8.26141 15.5637 8.84339C16.1008 8.25686 17.0973 8.01816 17.9101 8.53194C18.3412 8.80247 18.6074 9.26623 18.6263 9.74591C18.671 10.8462 17.618 11.726 16.0113 13.0786C16.0019 13.0786 15.9736 13.1037 15.9736 13.1037Z" stroke="#222222" stroke-miterlimit="10" stroke-linecap="round" stroke-linejoin="round"/>
</svg>
