<svg width="32" height="32" viewBox="0 0 32 32" fill="none" xmlns="http://www.w3.org/2000/svg">
<path d="M9.12469 18C9.01028 18 8.89933 18.0392 8.81035 18.1112L4.81434 21.3417C4.48738 21.606 4 21.3733 4 20.9528V6C4 5.73478 4.10536 5.48043 4.29289 5.29289C4.48043 5.10536 4.73478 5 5 5H21C21.2652 5 21.5196 5.10536 21.7071 5.29289C21.8946 5.48043 22 5.73478 22 6V17C22 17.2652 21.8946 17.5196 21.7071 17.7071C21.5196 17.8946 21.2652 18 21 18H9.12469Z" fill="#FFD262" stroke="#222222" stroke-linecap="round" stroke-linejoin="round"/>
<path d="M10 18V23C10 23.2652 10.1054 23.5196 10.2929 23.7071C10.4804 23.8946 10.7348 24 11 24H22.8753C22.9897 24 23.1007 24.0392 23.1897 24.1112L27.1857 27.3417C27.5126 27.606 28 27.3733 28 26.9528V12C28 11.7348 27.8946 11.4804 27.7071 11.2929C27.5196 11.1054 27.2652 11 27 11H22" stroke="#222222" stroke-linecap="round" stroke-linejoin="round"/>
<path d="M8.16602 9.01123H17.835" stroke="#222222" stroke-linecap="round" stroke-linejoin="round"/>
<path d="M8.16602 11.4917H17.835" stroke="#222222" stroke-linecap="round" stroke-linejoin="round"/>
<path d="M8.16602 13.9722H14.5363" stroke="#222222" stroke-linecap="round" stroke-linejoin="round"/>
</svg>
