<svg width="32" height="32" viewBox="0 0 32 32" fill="none" xmlns="http://www.w3.org/2000/svg">
<path d="M18 27.6133C22.9706 27.6133 27 23.5838 27 18.6133C27 13.6427 22.9706 9.61328 18 9.61328C13.0294 9.61328 9 13.6427 9 18.6133C9 23.5838 13.0294 27.6133 18 27.6133Z" fill="#FFD262"/>
<path d="M16 27.6133C22.6274 27.6133 28 22.2407 28 15.6133C28 8.98586 22.6274 3.61328 16 3.61328C9.37258 3.61328 4 8.98586 4 15.6133C4 22.2407 9.37258 27.6133 16 27.6133Z" stroke="#222222" stroke-linecap="round" stroke-linejoin="round"/>
<path d="M16 17C16.5523 17 17 16.5523 17 16C17 15.4477 16.5523 15 16 15C15.4477 15 15 15.4477 15 16C15 16.5523 15.4477 17 16 17Z" fill="#222222"/>
<path d="M10 17C10.5523 17 11 16.5523 11 16C11 15.4477 10.5523 15 10 15C9.44772 15 9 15.4477 9 16C9 16.5523 9.44772 17 10 17Z" fill="#222222"/>
<path d="M22 17C22.5523 17 23 16.5523 23 16C23 15.4477 22.5523 15 22 15C21.4477 15 21 15.4477 21 16C21 16.5523 21.4477 17 22 17Z" fill="#222222"/>
</svg>
