<svg width="32" height="32" viewBox="0 0 32 32" fill="none" xmlns="http://www.w3.org/2000/svg">
<g filter="url(#filter0_d)">
<circle cx="14" cy="15" r="14" fill="white"/>
</g>
<path d="M14.3295 10.2136C13.9159 10.6159 13.6836 11.1615 13.6836 11.7304V21.3837C13.6836 20.8148 13.9159 20.2691 14.3295 19.8668C14.743 19.4645 15.0397 19.0815 15.6245 19.0815C17.233 18.9971 20.3223 19.0815 20.4838 19.0815V14.2734V9.96451C20.4838 9.82228 20.4257 9.68587 20.3223 9.5853C20.2189 9.48472 20.0787 9.42822 19.9325 9.42822L15.8888 9.58528C15.304 9.58528 14.743 9.81129 14.3295 10.2136Z" fill="#FFD262"/>
<path d="M6.51758 18.7024C6.51758 18.8446 6.57566 18.981 6.67905 19.0816C6.78244 19.1822 6.92267 19.2387 7.06888 19.2387H11.4793C12.0642 19.2387 12.6251 19.4647 13.0386 19.867C13.4522 20.2693 13.6845 20.8149 13.6845 21.3839V11.7306C13.6845 11.1617 13.4522 10.6161 13.0386 10.2138C12.6251 9.81146 12.0642 9.58545 11.4793 9.58545H7.06888C6.92267 9.58545 6.78244 9.64195 6.67905 9.74253C6.57566 9.8431 6.51758 9.97951 6.51758 10.1217V18.7024Z" fill="#FFD262"/>
<path d="M21.2412 21.3141C21.008 21.5096 20.6499 21.5096 20.419 21.3118L20.386 21.2845C18.777 19.9364 17.7286 19.0567 17.7687 17.9586C17.7875 17.479 18.0537 17.0152 18.4849 16.7447C19.2929 16.2309 20.2894 16.4719 20.8313 17.0538C21.3684 16.4673 22.3649 16.2286 23.1777 16.7424C23.6088 17.0129 23.875 17.4767 23.8939 17.9564C23.9386 19.0567 22.8856 19.9364 21.2789 21.2891C21.2695 21.2891 21.2412 21.3141 21.2412 21.3141Z" fill="#FFD262"/>
<path d="M9.20921 18.8839V9.58545H6.51758V18.8839H9.20921Z" fill="white"/>
<path d="M13.416 11.5202C13.416 10.9512 13.6484 10.4056 14.0619 10.0033C14.4755 9.60101 15.0364 9.375 15.6212 9.375H20.0317C20.1779 9.375 20.3181 9.4315 20.4215 9.53208C20.5249 9.63265 20.583 9.76906 20.583 9.91129V14.2202M15.6823 19.0282H15.6212C15.0364 19.0282 14.4755 19.2543 14.0619 19.6566C13.6484 20.0588 13.416 20.6045 13.416 21.1734" stroke="#222222" stroke-linecap="round" stroke-linejoin="round"/>
<path d="M6.25 18.492C6.25 18.6342 6.30808 18.7706 6.41147 18.8712C6.51486 18.9717 6.65509 19.0282 6.8013 19.0282H11.2117C11.7966 19.0282 12.3575 19.2543 12.7711 19.6566C13.1846 20.0588 13.417 20.6045 13.417 21.1734V11.5202C13.417 10.9512 13.1846 10.4056 12.7711 10.0033C12.3575 9.60101 11.7966 9.375 11.2117 9.375H6.8013C6.65509 9.375 6.51486 9.4315 6.41147 9.53208C6.30808 9.63265 6.25 9.76906 6.25 9.91129V18.492Z" stroke="#222222" stroke-linecap="round" stroke-linejoin="round"/>
<path d="M20.9736 21.1037C20.7404 21.2992 20.3823 21.2992 20.1514 21.1014L20.1184 21.0741C18.5094 19.726 17.4611 18.8462 17.5011 17.7482C17.52 17.2685 17.7862 16.8047 18.2173 16.5342C19.0253 16.0204 20.0219 16.2614 20.5637 16.8434C21.1008 16.2569 22.0973 16.0182 22.9101 16.5319C23.3412 16.8025 23.6074 17.2662 23.6263 17.7459C23.671 18.8462 22.618 19.726 21.0113 21.0786C21.0019 21.0786 20.9736 21.1037 20.9736 21.1037Z" stroke="#222222" stroke-miterlimit="10" stroke-linecap="round" stroke-linejoin="round"/>
<defs>
<filter id="filter0_d" x="0" y="0" width="32" height="32" filterUnits="userSpaceOnUse" color-interpolation-filters="sRGB">
<feFlood flood-opacity="0" result="BackgroundImageFix"/>
<feColorMatrix in="SourceAlpha" type="matrix" values="0 0 0 0 0 0 0 0 0 0 0 0 0 0 0 0 0 0 127 0"/>
<feOffset dx="2" dy="1"/>
<feGaussianBlur stdDeviation="1"/>
<feColorMatrix type="matrix" values="0 0 0 0 0 0 0 0 0 0 0 0 0 0 0 0 0 0 0.3 0"/>
<feBlend mode="normal" in2="BackgroundImageFix" result="effect1_dropShadow"/>
<feBlend mode="normal" in="SourceGraphic" in2="effect1_dropShadow" result="shape"/>
</filter>
</defs>
</svg>
