<svg width="95" height="99" viewBox="0 0 95 99" fill="none" xmlns="http://www.w3.org/2000/svg">
<path fill-rule="evenodd" clip-rule="evenodd" d="M67 48.9998C67 48.5715 67.0179 48.1475 67.0531 47.7283C65.2018 48.5458 63.1539 48.9998 61 48.9998C52.7157 48.9998 46 42.2841 46 33.9998C46 32.1313 46.3416 30.3426 46.9659 28.6928C40.1362 27.2898 35 21.2446 35 13.9998C35 13.2873 35.0497 12.5864 35.1458 11.9004C35.0367 11.8548 34.9302 11.7974 34.828 11.7278C31.552 9.48792 27.1562 9.17868 23.4916 11.2932C19.8313 13.4077 17.9008 17.3735 18.2016 21.3267C18.2852 22.3965 17.3994 23.2866 16.3255 23.203C12.3726 22.9022 8.40718 24.8286 6.29285 28.4935C4.17852 32.1584 4.48773 36.5546 6.72742 39.8309C7.33748 40.721 7.01156 41.9328 6.04214 42.3967C2.46951 44.11 0 47.7624 0 51.9956C0 56.2288 2.46951 59.8812 6.0505 61.6029C7.01991 62.0709 7.34166 63.2786 6.73578 64.1687C4.49609 67.445 4.18688 71.8412 6.30121 75.5061C8.41554 79.1668 12.381 81.0974 16.3338 80.7965C17.4035 80.713 18.2936 81.5989 18.21 82.6729C17.9091 86.6261 19.8354 90.5919 23.5 92.7064C27.1646 94.8209 31.5604 94.5117 34.8363 92.2718C35.7263 91.6617 36.9381 91.9876 37.4019 92.9571C39.1151 96.5301 42.7672 98.9998 47 98.9998C51.2328 98.9998 54.8849 96.5301 56.6064 92.9488C57.0744 91.9792 58.282 91.6575 59.172 92.2634C62.448 94.5033 66.8438 94.8125 70.5084 92.698C74.1687 90.5835 76.0992 86.6177 75.7984 82.6645C75.7148 81.5947 76.6006 80.7046 77.6745 80.7882C81.6274 81.0891 85.5928 79.1626 87.7071 75.4977C89.8215 71.8328 89.5123 67.4366 87.2726 64.1604C87.0602 63.8506 86.9613 63.5018 86.9634 63.1591C85.4099 63.7037 83.7395 63.9998 82 63.9998C73.7157 63.9998 67 57.2841 67 48.9998Z" fill="#FFC700"/>
<ellipse cx="29.8157" cy="38.0504" rx="2.96417" ry="2.96443" fill="#DE9E53"/>
<ellipse cx="29.8157" cy="65.9498" rx="2.96417" ry="2.96443" fill="#DE9E53"/>
<ellipse cx="71.9998" cy="30" rx="1.99982" ry="2" fill="#FFC700"/>
<ellipse cx="54.4999" cy="29.5" rx="1.49987" ry="1.5" fill="#FFC700"/>
<ellipse cx="62.4999" cy="1.5" rx="1.49987" ry="1.5" fill="#FFC700"/>
<ellipse cx="74.9999" cy="48" rx="0.999912" ry="1" fill="#FFC700"/>
<ellipse cx="84.4999" cy="53.5" rx="1.49987" ry="1.5" fill="#FFC700"/>
<ellipse cx="47" cy="12.0004" rx="4" ry="4.00035" fill="#FFC700"/>
<ellipse cx="91.9997" cy="46" rx="2.99974" ry="3" fill="#FFC700"/>
<ellipse cx="64.1829" cy="65.9498" rx="2.96417" ry="2.96443" fill="#DE9E53"/>
<ellipse cx="46.9993" cy="52.0001" rx="2.96416" ry="2.96443" fill="#DE9E53"/>
</svg>
