<svg width="32" height="32" viewBox="0 0 32 32" fill="none" xmlns="http://www.w3.org/2000/svg">
<path d="M17 14.6628H20.0124L29.0495 5.62567L27.5 4.11328L17 14.6628Z" fill="#FFD262"/>
<path d="M8.77273 28.6133H18.2083C18.3098 28.6133 18.4103 28.5945 18.504 28.5579C18.5978 28.5214 18.683 28.4678 18.7547 28.4003L24.7737 22.7354C24.8454 22.6679 24.9023 22.5877 24.9412 22.4994C24.98 22.4112 25 22.3166 25 22.2211V17.3406V16.6133H8.77273C8.56779 16.6133 8.37124 16.6899 8.22633 16.8263C8.08141 16.9627 8 17.1477 8 17.3406V28.6133H8.77273Z" fill="#FFD262"/>
<path d="M7.52246 12.9521H16.0448" stroke="#222222" stroke-linecap="round" stroke-linejoin="round"/>
<path d="M7.52246 16.9521H21.0448" stroke="#222222" stroke-linecap="round" stroke-linejoin="round"/>
<path d="M7.52246 20.9521H14.2836" stroke="#222222" stroke-linecap="round" stroke-linejoin="round"/>
<path d="M21.5 7.021H4.28809C4.02287 7.021 3.76852 7.12635 3.58098 7.31389C3.39344 7.50143 3.28809 7.75578 3.28809 8.021V28.021C3.28809 28.2862 3.39344 28.5406 3.58098 28.7281C3.76852 28.9156 4.02287 29.021 4.28809 29.021H17.8739C18.0052 29.021 18.1352 28.9951 18.2566 28.9449C18.3779 28.8946 18.4881 28.821 18.581 28.7281L24.9952 22.3139C25.0881 22.221 25.1617 22.1108 25.212 21.9895C25.2622 21.8681 25.2881 21.7381 25.2881 21.6068V9.44924" stroke="#222222" stroke-linecap="round" stroke-linejoin="round"/>
<path d="M25.1976 22.02H18.2881V28.93" stroke="#222222" stroke-linecap="round" stroke-linejoin="round"/>
<path d="M19.6745 15.0286H16.6621V12.0162L25.6993 2.979L28.7117 5.99139L19.6745 15.0286Z" stroke="#222222" stroke-linecap="round" stroke-linejoin="round"/>
<path d="M23.4404 5.23828L26.4528 8.25067" stroke="#222222" stroke-linecap="round" stroke-linejoin="round"/>
</svg>
