<svg width="31" height="30" viewBox="0 0 31 30" fill="none" xmlns="http://www.w3.org/2000/svg">
<path d="M30.75 14.9987C30.75 16.3497 29.9619 17.5153 28.8217 18.0622C28.5123 18.2102 28.4082 18.597 28.6029 18.881C29.3177 19.9266 29.4164 21.3297 28.7416 22.4993C28.0669 23.669 26.8013 24.2838 25.5397 24.1878C25.197 24.1611 24.9143 24.4452 24.941 24.7866C25.037 26.0483 24.4209 27.314 23.2527 27.9888C22.0831 28.6636 20.6802 28.565 19.6347 27.8501C19.3506 27.6567 18.9652 27.7594 18.8159 28.0688C18.2664 29.2118 17.1009 30 15.75 30C14.3991 30 13.2336 29.2118 12.6868 28.0715C12.5388 27.7621 12.152 27.658 11.868 27.8528C10.8225 28.5676 9.41954 28.6663 8.25 27.9915C7.08046 27.3166 6.46568 26.0509 6.5617 24.7893C6.58837 24.4465 6.30432 24.1638 5.96293 24.1905C4.70137 24.2865 3.43581 23.6703 2.76102 22.502C2.08624 21.3324 2.18492 19.9293 2.89972 18.8837C3.09308 18.5996 2.9904 18.2142 2.68101 18.0648C1.53814 17.5153 0.75 16.3497 0.75 14.9987C0.75 13.6476 1.53814 12.482 2.67834 11.9352C2.98773 11.7871 3.09175 11.4004 2.89705 11.1163C2.18225 10.0707 2.08357 8.66764 2.75836 7.498C3.43314 6.32835 4.6987 5.71352 5.96026 5.80955C6.30299 5.83622 6.5857 5.55215 6.55903 5.21072C6.46302 3.94905 7.07912 2.68338 8.24733 2.00854C9.41687 1.33369 10.8198 1.43238 11.8653 2.14724C12.1494 2.34063 12.5348 2.23793 12.6841 1.92852C13.2322 0.786879 14.3978 0 15.7473 0C17.0969 0 18.2638 0.788212 18.8105 1.92852C18.9586 2.23793 19.3453 2.34196 19.6294 2.14724C20.6749 1.43238 22.0778 1.33369 23.2473 2.00854C24.4169 2.68338 25.0316 3.94905 24.9356 5.21072C24.909 5.55348 25.193 5.83622 25.5344 5.80955C26.796 5.71352 28.0615 6.32969 28.7363 7.498C29.4111 8.66764 29.3124 10.0707 28.5976 11.1163C28.4042 11.4004 28.5069 11.7858 28.8163 11.9352C29.9619 12.482 30.75 13.6476 30.75 14.9987Z" fill="#F26624"/>
<path d="M11.4648 10.7139L20.0363 19.2853M20.0363 10.7139L11.4648 19.2853" stroke="white" stroke-width="2" stroke-linecap="round" stroke-linejoin="round"/>
</svg>
