<svg width="32" height="26" viewBox="0 0 32 26" fill="none" xmlns="http://www.w3.org/2000/svg">
    <path d="M27.6838 13.0001L30.9996 9.4001H22.5996C23.3996 10.0001 24.5196 12.2801 22.5996 16.6001H30.9996L27.6838 13.0001Z" fill="#FFD262"/>
    <path d="M4.31618 12.9999L1.00039 16.5999H9.40039C8.60039 15.9999 7.48039 13.7199 9.40039 9.3999H1.00039L4.31618 12.9999Z" fill="#FFD262"/>
    <path d="M4.59961 17C6.25441 21.6608 10.7195 25 15.968 25C21.2166 25 25.6816 21.6608 27.3365 17M4.59961 9.4L4.76963 8.55022C6.54522 4.12589 10.8899 1 15.968 1C21.1073 1 25.4954 4.20165 27.2295 8.71066L27.3365 9.4" stroke="#222222" stroke-linecap="round" stroke-linejoin="round"/>
    <path d="M15.9998 20.1998C19.9763 20.1998 23.1998 16.9763 23.1998 12.9998C23.1998 9.02335 19.9763 5.7998 15.9998 5.7998C12.0234 5.7998 8.7998 9.02335 8.7998 12.9998C8.7998 16.9763 12.0234 20.1998 15.9998 20.1998Z" stroke="#222222" stroke-linecap="round" stroke-linejoin="round"/>
    <path d="M18.2248 16.5999L17.8004 13.9959L19.6004 12.1519L17.1126 11.7699L16.0004 9.3999L14.8882 11.7699L12.4004 12.1519L14.2004 13.9959L13.776 16.5999L16.0004 15.3699L17.0595 15.9539L18.2248 16.5999Z" fill="#FFD262"/>
    <path d="M18.2248 16.5999L17.8004 13.9959L19.6004 12.1519L17.1126 11.7699L16.0004 9.3999L14.8882 11.7699L12.4004 12.1519L14.2004 13.9959L13.776 16.5999L16.0004 15.3699L17.0595 15.9539L18.2248 16.5999Z" stroke="#222222" stroke-miterlimit="10" stroke-linecap="round" stroke-linejoin="round"/>
    <path d="M22.5996 16.6001H30.9996L27.6838 13.0001L30.9996 9.4001H22.5996" stroke="#222222" stroke-miterlimit="10" stroke-linecap="round" stroke-linejoin="round"/>
    <path d="M9.40039 9.3999L1.00039 9.3999L4.31618 12.9999L1.00039 16.5999L9.40039 16.5999" stroke="#222222" stroke-miterlimit="10" stroke-linecap="round" stroke-linejoin="round"/>
</svg>
