<svg width="30" height="30" viewBox="0 0 30 30" fill="none" xmlns="http://www.w3.org/2000/svg">
<path d="M30 14.9987C30 16.3497 29.2119 17.5153 28.0717 18.0622C27.7623 18.2102 27.6582 18.597 27.8529 18.881C28.5677 19.9266 28.6664 21.3297 27.9916 22.4993C27.3169 23.669 26.0513 24.2838 24.7897 24.1878C24.447 24.1611 24.1643 24.4452 24.191 24.7866C24.287 26.0483 23.6709 27.314 22.5027 27.9888C21.3331 28.6636 19.9302 28.565 18.8847 27.8501C18.6006 27.6567 18.2152 27.7594 18.0659 28.0688C17.5164 29.2118 16.3509 30 15 30C13.6491 30 12.4836 29.2118 11.9368 28.0715C11.7888 27.7621 11.402 27.658 11.118 27.8528C10.0725 28.5676 8.66954 28.6663 7.5 27.9915C6.33046 27.3166 5.71568 26.0509 5.8117 24.7893C5.83837 24.4465 5.55432 24.1638 5.21293 24.1905C3.95137 24.2865 2.68581 23.6703 2.01102 22.502C1.33624 21.3324 1.43492 19.9293 2.14972 18.8837C2.34308 18.5996 2.2404 18.2142 1.93101 18.0648C0.78814 17.5153 0 16.3497 0 14.9987C0 13.6476 0.78814 12.482 1.92834 11.9352C2.23773 11.7871 2.34175 11.4004 2.14705 11.1163C1.43225 10.0707 1.33357 8.66765 2.00836 7.498C2.68314 6.32836 3.9487 5.71352 5.21026 5.80955C5.55299 5.83622 5.8357 5.55215 5.80903 5.21073C5.71302 3.94906 6.32912 2.68338 7.49733 2.00854C8.66687 1.33369 10.0698 1.43238 11.1153 2.14724C11.3994 2.34063 11.7848 2.23793 11.9341 1.92852C12.4822 0.786879 13.6478 1.90735e-06 14.9973 1.90735e-06C16.3469 1.90735e-06 17.5138 0.788214 18.0605 1.92852C18.2086 2.23793 18.5953 2.34196 18.8794 2.14724C19.9249 1.43238 21.3278 1.33369 22.4973 2.00854C23.6669 2.68338 24.2816 3.94906 24.1856 5.21073C24.159 5.55348 24.443 5.83622 24.7844 5.80955C26.046 5.71352 27.3115 6.32969 27.9863 7.498C28.6611 8.66765 28.5624 10.0707 27.8476 11.1163C27.6542 11.4004 27.7569 11.7858 28.0663 11.9352C29.2119 12.482 30 13.6476 30 14.9987Z" fill="#FFD262"/>
<path d="M9.64258 13.7147L13.6132 18.2147L19.2854 11.7861" stroke="white" stroke-width="2" stroke-linecap="round"/>
</svg>
