<svg width="18" height="18" viewBox="0 0 18 18" fill="none" xmlns="http://www.w3.org/2000/svg">
<path d="M9 9.84375C9.46599 9.84375 9.84375 9.46599 9.84375 9C9.84375 8.53401 9.46599 8.15625 9 8.15625C8.53401 8.15625 8.15625 8.53401 8.15625 9C8.15625 9.46599 8.53401 9.84375 9 9.84375Z" fill="#222222"/>
<path d="M13.5 9.84375C13.966 9.84375 14.3438 9.46599 14.3438 9C14.3438 8.53401 13.966 8.15625 13.5 8.15625C13.034 8.15625 12.6562 8.53401 12.6562 9C12.6562 9.46599 13.034 9.84375 13.5 9.84375Z" fill="#222222"/>
<path d="M4.5 9.84375C4.96599 9.84375 5.34375 9.46599 5.34375 9C5.34375 8.53401 4.96599 8.15625 4.5 8.15625C4.03401 8.15625 3.65625 8.53401 3.65625 9C3.65625 9.46599 4.03401 9.84375 4.5 9.84375Z" fill="#222222"/>
</svg>
