<svg width="32" height="32" viewBox="0 0 32 32" fill="none" xmlns="http://www.w3.org/2000/svg">
    <path d="M14.928 8.34203C14.2663 8.9857 13.8945 9.85871 13.8945 10.769V26.2142C13.8945 25.3039 14.2663 24.4309 14.928 23.7872C15.5897 23.1435 16.0642 22.5306 17 22.5306C19.5735 22.3957 24.5165 22.5306 24.7749 22.5306V14.8377V7.94352C24.7749 7.71594 24.6819 7.49769 24.5165 7.33677C24.3511 7.17585 24.1267 7.08545 23.8928 7.08545L17.4229 7.33674C16.4871 7.33674 15.5897 7.69835 14.928 8.34203Z" fill="#FFD262"/>
    <path d="M2.42773 21.9236C2.42773 22.1511 2.52067 22.3694 2.68609 22.5303C2.85152 22.6912 3.07588 22.7816 3.30982 22.7816H10.3665C11.3023 22.7816 12.1997 23.1432 12.8614 23.7869C13.5231 24.4306 13.8949 25.3036 13.8949 26.2139V10.7687C13.8949 9.8584 13.5231 8.98539 12.8614 8.34171C12.1997 7.69804 11.3023 7.33643 10.3665 7.33643H3.30982C3.07588 7.33643 2.85152 7.42683 2.68609 7.58775C2.52067 7.74867 2.42773 7.96692 2.42773 8.19449V21.9236Z" fill="#FFD262"/>
    <path d="M25.9855 26.1023C25.6123 26.4151 25.0394 26.4151 24.67 26.0986L24.6172 26.055C22.0428 23.898 20.3654 22.4904 20.4295 20.7335C20.4597 19.966 20.8856 19.224 21.5754 18.7912C22.8683 17.9691 24.4627 18.3547 25.3296 19.2858C26.1891 18.3474 27.7835 17.9655 29.0839 18.7875C29.7737 19.2204 30.1996 19.9624 30.2298 20.7299C30.3014 22.4904 28.6165 23.898 26.0458 26.0623C26.0307 26.0623 25.9855 26.1023 25.9855 26.1023Z" fill="#FFD262"/>
    <path d="M6.73435 22.214V7.33643H2.42773V22.214H6.73435Z" fill="white"/>
    <path d="M13.4668 10.4323C13.4668 9.52197 13.8385 8.64896 14.5002 8.00529C15.1619 7.36161 16.0594 7 16.9951 7H24.0518C24.2858 7 24.5102 7.0904 24.6756 7.25132C24.841 7.41224 24.9339 7.63049 24.9339 7.85807V14.7523M17.0929 22.4452H16.9951C16.0594 22.4452 15.1619 22.8068 14.5002 23.4505C13.8385 24.0942 13.4668 24.9672 13.4668 25.8775" stroke="#222222" stroke-linecap="round" stroke-linejoin="round"/>
    <path d="M2 21.5871C2 21.8147 2.09293 22.033 2.25836 22.1939C2.42378 22.3548 2.64814 22.4452 2.88209 22.4452H9.93879C10.8746 22.4452 11.772 22.8068 12.4337 23.4505C13.0954 24.0942 13.4671 24.9672 13.4671 25.8775V10.4323C13.4671 9.52197 13.0954 8.64896 12.4337 8.00529C11.772 7.36161 10.8746 7 9.93879 7H2.88209C2.64814 7 2.42378 7.0904 2.25836 7.25132C2.09293 7.41224 2 7.63049 2 7.85807V21.5871Z" stroke="#222222" stroke-linecap="round" stroke-linejoin="round"/>
    <path d="M25.5578 25.7658C25.1846 26.0787 24.6117 26.0787 24.2423 25.7622L24.1895 25.7186C21.615 23.5616 19.9377 22.1539 20.0018 20.3971C20.0319 19.6296 20.4579 18.8876 21.1477 18.4547C22.4405 17.6327 24.035 18.0183 24.9019 18.9494C25.7613 18.011 27.3557 17.6291 28.6562 18.4511C29.346 18.8839 29.7719 19.626 29.802 20.3935C29.8737 22.1539 28.1888 23.5616 25.6181 25.7258C25.603 25.7258 25.5578 25.7658 25.5578 25.7658Z" stroke="#222222" stroke-miterlimit="10" stroke-linecap="round" stroke-linejoin="round"/>
</svg>
