<svg width="46" height="46" viewBox="0 0 46 46" fill="none" xmlns="http://www.w3.org/2000/svg">
<circle cx="23" cy="23" r="23" fill="#FEE500"/>
<g clip-path="url(#clip0)">
<path d="M19.7246 22.2703H21.1278L20.4233 20.3477L19.7246 22.2703Z" fill="black"/>
<path d="M23.0007 12.1768C16.2784 12.1768 10.8242 16.3162 10.8242 21.4226C10.8242 24.725 13.1022 27.6204 16.5308 29.2603C16.343 29.8823 15.3332 33.247 15.2921 33.5128C15.2921 33.5128 15.2686 33.7107 15.4036 33.7899C15.5386 33.8634 15.6972 33.8069 15.6972 33.8069C16.0788 33.756 20.1415 31.0077 20.8402 30.5326C21.5447 30.6288 22.2668 30.6797 23.0007 30.6797C29.7289 30.6797 35.1772 26.5403 35.1772 21.4339C35.1772 16.3162 29.7289 12.1768 23.0007 12.1768ZM16.9712 24.0069C16.9712 24.3631 16.6541 24.6515 16.2666 24.6515C15.8792 24.6515 15.5621 24.3631 15.5621 24.0069V19.9862H14.4701C14.0885 19.9862 13.7832 19.6865 13.7832 19.3246C13.7832 18.957 14.0944 18.663 14.4701 18.663H18.069C18.4507 18.663 18.756 18.9627 18.756 19.3246C18.756 19.6922 18.4448 19.9862 18.069 19.9862H16.9712V24.0069ZM22.8774 24.5497C22.7424 24.6119 22.5838 24.6402 22.4312 24.6402C22.1377 24.6402 21.9146 24.5271 21.8441 24.3405L21.4977 23.464H19.3548L19.0084 24.3405C18.9438 24.5271 18.7149 24.6402 18.4213 24.6402C18.2687 24.6402 18.1101 24.6063 17.9751 24.5441C17.7814 24.4593 17.5935 24.2218 17.8107 23.5827L19.4898 19.3246C19.6072 19.0023 19.9654 18.6686 20.4233 18.6573C20.8813 18.6686 21.2394 19.0023 21.3627 19.3246L23.0418 23.5827C23.259 24.2274 23.0711 24.4649 22.8774 24.5497ZM26.4294 24.5554H24.1749C23.805 24.5554 23.4997 24.2783 23.4997 23.9334V19.3359C23.4997 18.9627 23.8226 18.6573 24.216 18.6573C24.6093 18.6573 24.9323 18.9627 24.9323 19.3359V23.3113H26.4235C26.7934 23.3113 27.0987 23.5884 27.0987 23.9334C27.0987 24.2783 26.7992 24.5554 26.4294 24.5554ZM31.9246 24.0464C31.9011 24.2274 31.8013 24.3857 31.6546 24.4932C31.5313 24.5837 31.3845 24.6289 31.2318 24.6289C31.0087 24.6289 30.8033 24.5328 30.6682 24.3575L29.0243 22.2538L28.7778 22.4913V23.9673C28.7778 24.3405 28.4607 24.6459 28.0732 24.6459C27.6858 24.6459 27.3687 24.3405 27.3687 23.9673V19.3359C27.3687 18.9627 27.6858 18.6573 28.0732 18.6573C28.4607 18.6573 28.7778 18.9627 28.7778 19.3359V20.7892L30.7387 18.9005C30.8385 18.8043 30.9794 18.7478 31.1262 18.7478C31.3023 18.7478 31.4784 18.8213 31.6076 18.9457C31.7309 19.0645 31.8013 19.2171 31.8131 19.3755C31.8248 19.5338 31.7661 19.6808 31.6604 19.7883L30.0576 21.3321L31.7896 23.5375C31.907 23.6902 31.954 23.8655 31.9246 24.0464Z" fill="black"/>
</g>
<defs>
<clipPath id="clip0">
<rect width="24.3529" height="21.6471" fill="white" transform="translate(10.8242 12.1768)"/>
</clipPath>
</defs>
</svg>
