<svg width="18" height="18" viewBox="0 0 18 18" fill="none" xmlns="http://www.w3.org/2000/svg">
<path d="M3.67687 6.43829C3.80523 6.17208 3.95342 5.91589 4.12017 5.67188L4.08945 3.84713C4.08806 3.76337 4.10533 3.68034 4.14001 3.60408C4.1747 3.52781 4.22593 3.46023 4.28998 3.40623C4.94861 2.85058 5.70036 2.41585 6.51047 2.12215C6.58907 2.09384 6.67298 2.08339 6.75611 2.09156C6.83924 2.09973 6.91951 2.12631 6.99109 2.16937L8.55855 3.10987L8.55693 3.1089C8.85166 3.08696 9.14762 3.08719 9.44231 3.1096L11.0072 2.17063C11.0791 2.12754 11.1596 2.10098 11.243 2.09289C11.3264 2.0848 11.4105 2.09537 11.4893 2.12385C12.2999 2.41641 13.0522 2.85008 13.7116 3.4048C13.7754 3.45871 13.8264 3.52615 13.8609 3.60223C13.8954 3.67831 13.9125 3.76112 13.911 3.84464L13.8803 5.67234L13.8803 5.67046C14.0467 5.91473 14.1944 6.17115 14.3224 6.43757L15.918 7.32334C15.9913 7.36401 16.0545 7.42049 16.1032 7.48866C16.1519 7.55683 16.1848 7.63498 16.1996 7.71746C16.3513 8.56485 16.3521 9.4324 16.2018 10.2801C16.1872 10.3627 16.1543 10.4411 16.1055 10.5094C16.0568 10.5778 15.9934 10.6344 15.9201 10.6752L14.322 11.5623L14.3236 11.5614C14.1952 11.8276 14.0471 12.0838 13.8803 12.3278L13.911 14.1526C13.9124 14.2363 13.8952 14.3194 13.8605 14.3956C13.8258 14.4719 13.7746 14.5395 13.7105 14.5935C13.0519 15.1491 12.3001 15.5839 11.49 15.8776C11.4114 15.9059 11.3275 15.9163 11.2444 15.9081C11.1612 15.9 11.081 15.8734 11.0094 15.8303L9.44193 14.8898L9.44355 14.8908C9.14882 14.9127 8.85286 14.9125 8.55817 14.8901L6.99325 15.8291C6.9214 15.8722 6.84086 15.8987 6.75748 15.9068C6.67409 15.9149 6.58994 15.9043 6.51115 15.8759C5.70063 15.5833 4.94827 15.1496 4.28886 14.5949C4.22505 14.541 4.17405 14.4736 4.13956 14.3975C4.10506 14.3214 4.08795 14.2386 4.08945 14.1551L4.12021 12.3274L4.12018 12.3292C3.95382 12.085 3.80604 11.8286 3.6781 11.5621L2.08247 10.6764C2.00922 10.6357 1.94596 10.5792 1.89725 10.511C1.84855 10.4429 1.81564 10.3647 1.8009 10.2822C1.64916 9.43485 1.6484 8.5673 1.79866 7.71964C1.81331 7.63698 1.84621 7.55863 1.89495 7.49029C1.94369 7.42194 2.00705 7.36531 2.08042 7.32452L3.67852 6.43738L3.67687 6.43829Z" fill="#999999"/>
<path d="M9 12.375C10.864 12.375 12.375 10.864 12.375 9C12.375 7.13604 10.864 5.625 9 5.625C7.13604 5.625 5.625 7.13604 5.625 9C5.625 10.864 7.13604 12.375 9 12.375Z" fill="white"/>
</svg>
