<svg width="25" height="25" viewBox="0 0 25 25" fill="none" xmlns="http://www.w3.org/2000/svg">
<path d="M2.00008 23.9999H8.00008L23.293 8.70703C23.4805 8.5195 23.5859 8.26514 23.5859 7.99993C23.5859 7.73471 23.4805 7.48035 23.293 7.29282L20.5 4.5L1.29297 23.707C1.48051 23.8946 1.73486 23.9999 2.00008 23.9999Z" fill="#FFD262"/>
<path d="M8 23.9998H2C1.73478 23.9998 1.48043 23.8945 1.29289 23.707C1.10536 23.5194 1 23.2651 1 22.9998V17.4141C1 17.2827 1.02587 17.1527 1.07612 17.0314C1.12638 16.9101 1.20004 16.7998 1.29289 16.707L16.2929 1.70695C16.4804 1.51942 16.7348 1.41406 17 1.41406C17.2652 1.41406 17.5196 1.51942 17.7071 1.70695L23.2929 7.29274C23.4804 7.48028 23.5858 7.73463 23.5858 7.99985C23.5858 8.26507 23.4804 8.51942 23.2929 8.70696L8 23.9998Z" stroke="#222222" stroke-linecap="round" stroke-linejoin="round"/>
<path d="M13 5L20 12" stroke="#222222" stroke-linecap="round" stroke-linejoin="round"/>
<path d="M22.9999 23.9999H7.99985L1.06348 17.0635" stroke="#222222" stroke-linecap="round" stroke-linejoin="round"/>
</svg>
