<svg width="71" height="71" viewBox="0 0 71 71" fill="none" xmlns="http://www.w3.org/2000/svg">
<path d="M19.2715 3.89071C19.2715 3.89071 21.7261 3.31257 22.1825 1C22.1825 1 23.0345 3.90086 25.3572 3.89071C25.3572 3.89071 22.3549 4.21529 22.1825 7.08571C22.1825 7.08571 22.3346 4.21529 19.2715 3.89071Z" fill="#FFD262" stroke="#222222" stroke-miterlimit="10" stroke-linecap="round" stroke-linejoin="round"/>
<path d="M51.5764 12.1857V55.9014H16.3299C12.4351 55.9014 9.28064 59.0559 9.28064 62.9507V19.235C9.28064 15.3402 12.4351 12.1857 16.3299 12.1857H51.5764Z" fill="#FFF2D7" stroke="#222222" stroke-miterlimit="10" stroke-linecap="round" stroke-linejoin="round"/>
<path d="M48.0568 62.9507C48.0568 66.8456 49.6391 70 51.5866 70H16.543C13.0133 70 9.84869 67.4947 9.35169 63.9954C8.72284 59.634 12.0903 55.9014 16.33 55.9014H51.5866C49.629 55.9014 48.0568 59.0559 48.0568 62.9507Z" fill="white" stroke="#222222" stroke-miterlimit="10" stroke-linecap="round" stroke-linejoin="round"/>
<path d="M30.4286 20.2189C26.0063 20.2189 21.9086 22.9067 20.4785 27.0957C17.9428 34.5304 23.4301 41.4377 30.5301 41.3769C36.0883 41.3262 40.7743 36.7923 40.9975 31.234C41.2308 25.1889 36.4129 20.229 30.4286 20.2189Z" fill="#FFD262" stroke="#222222" stroke-miterlimit="10" stroke-linecap="round" stroke-linejoin="round"/>
<path d="M16.2894 62.9507H48.0569" stroke="#222222" stroke-miterlimit="10" stroke-linecap="round" stroke-linejoin="round"/>
<path d="M29.455 32.0759C30.5922 32.0759 31.514 30.6908 31.514 28.9823C31.514 27.2738 30.5922 25.8887 29.455 25.8887C28.3178 25.8887 27.396 27.2738 27.396 28.9823C27.396 30.6908 28.3178 32.0759 29.455 32.0759Z" fill="white"/>
<path d="M30.3476 29.8343C30.9189 29.8343 31.3821 29.144 31.3821 28.2926C31.3821 27.4411 30.9189 26.7509 30.3476 26.7509C29.7762 26.7509 29.313 27.4411 29.313 28.2926C29.313 29.144 29.7762 29.8343 30.3476 29.8343Z" fill="#222222"/>
<path d="M34.9422 32.0759C36.0793 32.0759 37.0012 30.6908 37.0012 28.9823C37.0012 27.2738 36.0793 25.8887 34.9422 25.8887C33.805 25.8887 32.8832 27.2738 32.8832 28.9823C32.8832 30.6908 33.805 32.0759 34.9422 32.0759Z" fill="white"/>
<path d="M35.8346 29.8343C36.406 29.8343 36.8692 29.144 36.8692 28.2926C36.8692 27.4411 36.406 26.7509 35.8346 26.7509C35.2632 26.7509 34.8 27.4411 34.8 28.2926C34.8 29.144 35.2632 29.8343 35.8346 29.8343Z" fill="#222222"/>
<path d="M27.5278 33.7089L32.863 35.707L36.8694 33.79" stroke="#222222" stroke-miterlimit="10" stroke-linecap="round" stroke-linejoin="round"/>
<path d="M27.9437 33.0293L26.8381 34.1247" stroke="#222222" stroke-miterlimit="10" stroke-linecap="round" stroke-linejoin="round"/>
<path d="M36.4536 33.0293L37.5592 34.1247" stroke="#222222" stroke-miterlimit="10" stroke-linecap="round" stroke-linejoin="round"/>
<path d="M6.07148 31.95H4.55005" stroke="#222222" stroke-miterlimit="10" stroke-linecap="round" stroke-linejoin="round"/>
<path d="M2.52143 31.95H1" stroke="#222222" stroke-miterlimit="10" stroke-linecap="round" stroke-linejoin="round"/>
<path d="M3.53577 29.4143V30.9357" stroke="#222222" stroke-miterlimit="10" stroke-linecap="round" stroke-linejoin="round"/>
<path d="M3.53577 32.9643V34.4857" stroke="#222222" stroke-miterlimit="10" stroke-linecap="round" stroke-linejoin="round"/>
<path d="M61.8715 11.1571H60.0458" stroke="#222222" stroke-miterlimit="10" stroke-linecap="round" stroke-linejoin="round"/>
<path d="M57.6116 11.1571H55.7859" stroke="#222222" stroke-miterlimit="10" stroke-linecap="round" stroke-linejoin="round"/>
<path d="M58.8287 8.11426V9.93997" stroke="#222222" stroke-miterlimit="10" stroke-linecap="round" stroke-linejoin="round"/>
<path d="M58.8287 12.3743V14.2" stroke="#222222" stroke-miterlimit="10" stroke-linecap="round" stroke-linejoin="round"/>
<path d="M45.6064 38.4456L63.681 20.371C65.1314 18.9206 67.4744 18.9206 68.9147 20.371C70.355 21.8215 70.355 24.1645 68.9147 25.6047L50.8401 43.6793L41.6 47.6857L45.6064 38.4456Z" fill="#8CA2EA" stroke="#222222" stroke-miterlimit="10" stroke-linecap="round" stroke-linejoin="round"/>
<path d="M41.5999 47.6858L50.84 43.6793L45.6063 38.4456L41.5999 47.6858Z" fill="white" stroke="#222222" stroke-miterlimit="10" stroke-linecap="round" stroke-linejoin="round"/>
<path d="M67.1193 27.4L68.9146 25.6047C70.3651 24.1543 70.3651 21.8113 68.9146 20.371C67.4642 18.9206 65.1212 18.9206 63.6809 20.371L61.8856 22.1663L67.1193 27.4Z" fill="#FFD262" stroke="#222222" stroke-miterlimit="10" stroke-linecap="round" stroke-linejoin="round"/>
</svg>
