<svg width="71" height="71" viewBox="0 0 71 71" fill="none" xmlns="http://www.w3.org/2000/svg">
<g clip-path="url(#clip0)">
<path d="M34.9785 2.53571H33.457" stroke="#222222" stroke-miterlimit="10" stroke-linecap="round" stroke-linejoin="round"/>
<path d="M31.4284 2.53571H29.907" stroke="#222222" stroke-miterlimit="10" stroke-linecap="round" stroke-linejoin="round"/>
<path d="M32.4427 0V1.52143" stroke="#222222" stroke-miterlimit="10" stroke-linecap="round" stroke-linejoin="round"/>
<path d="M32.4427 3.54999V5.07142" stroke="#222222" stroke-miterlimit="10" stroke-linecap="round" stroke-linejoin="round"/>
<path d="M71.9999 28.4H70.1742" stroke="#222222" stroke-miterlimit="10" stroke-linecap="round" stroke-linejoin="round"/>
<path d="M67.74 28.4H65.9143" stroke="#222222" stroke-miterlimit="10" stroke-linecap="round" stroke-linejoin="round"/>
<path d="M68.9572 25.3571V27.1828" stroke="#222222" stroke-miterlimit="10" stroke-linecap="round" stroke-linejoin="round"/>
<path d="M68.9572 29.6171V31.4428" stroke="#222222" stroke-miterlimit="10" stroke-linecap="round" stroke-linejoin="round"/>
<path d="M1 33.3193C1 33.3193 3.45457 32.7412 3.911 30.4286C3.911 30.4286 4.763 33.3294 7.08571 33.3193C7.08571 33.3193 4.08343 33.6439 3.911 36.5143C3.911 36.5143 4.06314 33.6439 1 33.3193Z" fill="#FFD262" stroke="#222222" stroke-miterlimit="10" stroke-linecap="round" stroke-linejoin="round"/>
<path d="M58.6214 22.5172H23.0403C20.8798 22.5172 19.1353 20.661 19.1353 18.3586C19.1353 16.0562 20.8798 14.2 23.0403 14.2H58.6214C59.8182 14.2 60.792 15.2346 60.792 16.5126V24.8297C60.792 23.5416 59.8182 22.5172 58.6214 22.5172Z" fill="white" stroke="#222222" stroke-miterlimit="10" stroke-linecap="round" stroke-linejoin="round"/>
<path d="M19.1353 18.3586V66.8414C19.1353 69.1337 20.8798 71 23.0403 71H58.6214C59.8182 71 60.792 69.9654 60.792 68.6874V24.8196C60.792 23.5416 59.8182 22.507 58.6214 22.507H23.0403C20.89 22.5172 19.1353 20.6509 19.1353 18.3586Z" fill="#FFF2D7" stroke="#222222" stroke-miterlimit="10" stroke-linecap="round" stroke-linejoin="round"/>
<path d="M52.6574 34.8712L49.1886 31.2197L45.7197 34.8712V18.3586H52.6574V34.8712Z" fill="#FFD262" stroke="#222222" stroke-miterlimit="10"/>
<path d="M60.7921 18.3586H25.7891" stroke="#222222" stroke-miterlimit="10" stroke-linecap="round" stroke-linejoin="round"/>
<path d="M19.1759 40.5714L17.7052 42.5898L19.1759 44.0707C22.4115 44.0707 25.3326 45.3791 27.4525 47.499L29.6028 47.7018L29.9375 45.0241C27.1786 42.2754 23.3751 40.5714 19.1759 40.5714Z" fill="#FFD262" stroke="#222222" stroke-miterlimit="10"/>
<path d="M32.2905 54.3759L30.8807 55.7857C30.8807 59.0213 29.5722 61.9424 27.4524 64.0623V66.0503L29.9272 66.5371C32.676 63.7884 34.38 59.9849 34.38 55.7756L32.2905 54.3759Z" fill="#FFD262" stroke="#222222" stroke-miterlimit="10"/>
<path d="M19.1758 67.4905C15.9402 67.4905 13.019 66.1821 10.8992 64.0623H8.90104L8.41418 66.5371C11.1629 69.2858 14.9665 70.9898 19.1758 70.9898L20.3016 68.9207L19.1758 67.4905Z" fill="#FFD262" stroke="#222222" stroke-miterlimit="10"/>
<path d="M8.41438 45.0241C5.66567 47.783 3.96167 51.5865 3.96167 55.7857L6.04096 57.013L7.4711 55.7857C7.4711 52.5501 8.77953 49.629 10.8994 47.5091L11.0718 45.3791L8.41438 45.0241Z" fill="#FFD262" stroke="#222222" stroke-miterlimit="10"/>
<path d="M29.9273 66.5473C27.1786 69.296 23.3751 71 19.1658 71V67.4905C22.4013 67.4905 25.3225 66.1821 27.4423 64.0623L29.9273 66.5473Z" fill="#FFF2D7" stroke="#222222" stroke-miterlimit="10"/>
<path d="M10.8892 64.0623L8.41438 66.5371C5.66567 63.7884 3.96167 59.9848 3.96167 55.7857H7.4711C7.46096 59.0213 8.76938 61.9424 10.8892 64.0623Z" fill="#FFF2D7" stroke="#222222" stroke-miterlimit="10"/>
<path d="M19.1759 40.5714V44.0808C15.9403 44.0808 13.0192 45.3893 10.8993 47.5091L8.42444 45.0343C11.163 42.2754 14.9666 40.5714 19.1759 40.5714Z" fill="#FFF2D7" stroke="#222222" stroke-miterlimit="10"/>
<path d="M34.3901 55.7857H30.8807C30.8807 52.5501 29.5722 49.629 27.4524 47.5091L29.9273 45.0342C32.6861 47.783 34.3901 51.5865 34.3901 55.7857Z" fill="#FFF2D7" stroke="#222222" stroke-miterlimit="10"/>
<path d="M31.0228 55.7857C31.0228 59.0618 29.6941 62.0236 27.554 64.1637C25.4138 66.3038 22.4521 67.6326 19.176 67.6326C15.8998 67.6326 12.9381 66.3038 10.798 64.1637C8.65782 62.0236 7.3291 59.0618 7.3291 55.7857C7.3291 52.5096 8.65782 49.5478 10.798 47.4077C12.9381 45.2676 15.8998 43.9388 19.176 43.9388C22.4521 43.9388 25.4138 45.2676 27.554 47.4077C29.6941 49.5478 31.0228 52.5096 31.0228 55.7857Z" fill="#8CA2EA" stroke="#222222" stroke-miterlimit="10"/>
<path d="M27.6047 54.1121C28.2944 53.4427 27.909 52.2762 26.9657 52.1342L22.9085 51.546C22.5333 51.4952 22.2087 51.2518 22.0363 50.907L20.2207 47.2251C19.7947 46.363 18.5674 46.363 18.1414 47.2251L16.3157 50.9171C16.1433 51.262 15.8187 51.4952 15.4434 51.5561L11.3863 52.1444C10.4328 52.2864 10.0575 53.4528 10.7473 54.1222L13.6887 56.9825C13.9625 57.2462 14.0843 57.6317 14.0234 58.007L13.3337 62.054C13.1714 62.9972 14.1654 63.7275 15.0174 63.2711L18.6283 61.3642C18.963 61.1918 19.3687 61.1918 19.7034 61.3642L23.3345 63.2711C24.1865 63.7174 25.1805 62.9972 25.0183 62.054L24.3285 58.007C24.2677 57.6317 24.3894 57.2462 24.6633 56.9825L27.6047 54.1121Z" fill="#FFD262" stroke="#222222" stroke-miterlimit="10"/>
</g>
<defs>
<clipPath id="clip0">
<rect width="71" height="71" fill="white"/>
</clipPath>
</defs>
</svg>
