<svg width="73" height="73" viewBox="0 0 73 73" fill="none" xmlns="http://www.w3.org/2000/svg">
<path d="M63.8147 64.3827C65.1028 62.1513 65.8432 59.5547 65.8432 56.7857C65.8432 48.3874 59.0272 41.5714 50.629 41.5714C42.2307 41.5714 35.4147 48.3874 35.4147 56.7857C35.4147 65.184 42.2307 72 50.629 72C53.5907 72 56.3597 71.1581 58.6925 69.6874C58.7838 69.6266 58.8852 69.5657 58.9765 69.5048L65.0825 71.2393L63.8147 64.3827Z" stroke="#222222" stroke-miterlimit="10" stroke-linecap="round" stroke-linejoin="round"/>
<path fill-rule="evenodd" clip-rule="evenodd" d="M46.5459 39.777C46.5659 39.8968 46.5859 40.0115 46.6058 40.1262C48.2376 41.3784 49.2107 43.4087 48.9612 45.6086C48.7167 47.8085 47.3194 49.5695 45.4531 50.4275L45.3184 50.7567C45.6277 51.6048 45.7774 52.5277 45.6677 53.4904C45.2984 56.8228 42.3043 59.2222 38.9858 58.8481C38.9012 58.8371 38.822 58.8179 38.7423 58.7986C38.7138 58.7917 38.6853 58.7848 38.6564 58.7782C38.6438 58.7873 38.6312 58.7969 38.6183 58.8068C38.5956 58.8242 38.5721 58.8421 38.5467 58.8581C37.9379 61.911 35.1134 64.0511 31.9746 63.6969C30.6222 63.5473 29.4396 62.9436 28.5214 62.0756C27.2638 63.4176 25.4275 64.1858 23.4613 63.9613C20.9671 63.6762 19.0113 61.9026 18.3469 59.6244L8.5 61.5L10.8751 51.5246C8.36858 50.558 6.72339 47.9915 7.0386 45.1896C7.22324 43.5334 8.0566 42.1117 9.25924 41.1389C8.30112 39.9267 7.8021 38.3503 7.98674 36.6941C8.3111 33.8108 10.5966 31.6308 13.3612 31.3415C13.3213 30.9225 13.3163 30.4984 13.3662 30.0644C13.7354 26.7321 16.7296 24.3326 20.048 24.7018C20.7816 24.7816 21.4652 25.0161 22.089 25.3303C23.1968 23.1404 25.5622 21.7486 28.1371 22.0379C30.1033 22.2574 31.7251 23.4148 32.6582 25.0011C33.7461 24.3626 35.0286 24.0383 36.3809 24.188C39.5247 24.5372 41.8053 27.2559 41.7254 30.3687C41.7554 30.4036 41.7853 30.4386 41.8152 30.4685C41.8463 30.4685 41.8778 30.4677 41.9096 30.4669C41.99 30.4648 42.0723 30.4628 42.1546 30.4735C45.478 30.8476 47.8683 33.8507 47.4941 37.183C47.3843 38.1458 47.04 39.0188 46.5459 39.777Z" fill="#FFD262"/>
<path d="M46.6058 40.1262L46.1132 40.2119L46.1467 40.4041L46.3014 40.5229L46.6058 40.1262ZM46.5459 39.777L46.127 39.5041L46.0207 39.6672L46.0527 39.8593L46.5459 39.777ZM48.9612 45.6086L48.4644 45.5523L48.4642 45.5534L48.9612 45.6086ZM45.4531 50.4275L45.2442 49.9732L45.065 50.0556L44.9903 50.2381L45.4531 50.4275ZM45.3184 50.7567L44.8556 50.5674L44.7823 50.7464L44.8486 50.9281L45.3184 50.7567ZM45.6677 53.4904L45.1709 53.4338L45.1707 53.4354L45.6677 53.4904ZM38.9858 58.8481L38.9211 59.344L38.9298 59.3449L38.9858 58.8481ZM38.7423 58.7986L38.8599 58.3126L38.8599 58.3126L38.7423 58.7986ZM38.6564 58.7782L38.7672 58.2907L38.5485 58.241L38.3659 58.3713L38.6564 58.7782ZM38.6183 58.8068L38.3144 58.4098L38.3143 58.4098L38.6183 58.8068ZM38.5467 58.8581L38.2817 58.434L38.0986 58.5485L38.0563 58.7603L38.5467 58.8581ZM31.9746 63.6969L32.0306 63.2001L32.0296 63.1999L31.9746 63.6969ZM28.5214 62.0756L28.8649 61.7123L28.4999 61.3673L28.1565 61.7338L28.5214 62.0756ZM23.4613 63.9613L23.4045 64.4581L23.4046 64.4581L23.4613 63.9613ZM18.3469 59.6244L18.8269 59.4844L18.6997 59.0482L18.2533 59.1332L18.3469 59.6244ZM8.5 61.5L8.0136 61.3842L7.83466 62.1357L8.59356 61.9912L8.5 61.5ZM10.8751 51.5246L11.3615 51.6404L11.4627 51.2154L11.055 51.0581L10.8751 51.5246ZM7.0386 45.1896L7.53547 45.2455L7.53552 45.245L7.0386 45.1896ZM9.25924 41.1389L9.57368 41.5277L9.95807 41.2167L9.6515 40.8289L9.25924 41.1389ZM7.98674 36.6941L7.48987 36.6383L7.48982 36.6388L7.98674 36.6941ZM13.3612 31.3415L13.4132 31.8388L13.9059 31.7872L13.8589 31.2941L13.3612 31.3415ZM13.3662 30.0644L13.8629 30.1215L13.8631 30.1195L13.3662 30.0644ZM20.048 24.7018L19.9927 25.1987L19.9939 25.1989L20.048 24.7018ZM22.089 25.3303L21.864 25.7769L22.3098 26.0015L22.5352 25.556L22.089 25.3303ZM28.1371 22.0379L28.0813 22.5348L28.0817 22.5348L28.1371 22.0379ZM32.6582 25.0011L32.2273 25.2546L32.4805 25.6852L32.9113 25.4323L32.6582 25.0011ZM36.3809 24.188L36.4361 23.691L36.4359 23.691L36.3809 24.188ZM41.7254 30.3687L41.2256 30.3559L41.2206 30.5482L41.3458 30.6942L41.7254 30.3687ZM41.8152 30.4685L41.4617 30.8221L41.6082 30.9685H41.8152V30.4685ZM41.9096 30.4669L41.8969 29.9671H41.8969L41.9096 30.4669ZM42.1546 30.4735L42.0899 30.9694L42.0986 30.9703L42.1546 30.4735ZM47.4941 37.183L47.9909 37.2397L47.991 37.2388L47.4941 37.183ZM47.0984 40.0406C47.0784 39.9256 47.0588 39.8125 47.0391 39.6948L46.0527 39.8593C46.073 39.981 46.0933 40.0974 46.1132 40.2119L47.0984 40.0406ZM49.458 45.6649C49.7286 43.2792 48.6717 41.0812 46.9102 39.7296L46.3014 40.5229C47.8035 41.6755 48.6928 43.5382 48.4644 45.5523L49.458 45.6649ZM45.6619 50.8818C47.6768 49.9555 49.193 48.0496 49.4581 45.6638L48.4642 45.5534C48.2404 47.5674 46.962 49.1835 45.2442 49.9732L45.6619 50.8818ZM45.7811 50.9461L45.9158 50.6169L44.9903 50.2381L44.8556 50.5674L45.7811 50.9461ZM46.1644 53.5471C46.2843 52.4958 46.1198 51.4946 45.7881 50.5854L44.8486 50.9281C45.1357 51.7149 45.2706 52.5595 45.1709 53.4338L46.1644 53.5471ZM38.9298 59.3449C42.5246 59.7502 45.7651 57.1511 46.1646 53.5455L45.1707 53.4354C44.8317 56.4944 42.0839 58.6942 39.0418 58.3512L38.9298 59.3449ZM38.6247 59.2846C38.7009 59.303 38.8056 59.3288 38.9211 59.3439L39.0505 58.3523C38.9968 58.3453 38.9432 58.3328 38.8599 58.3126L38.6247 59.2846ZM38.5457 59.2658C38.5706 59.2715 38.5957 59.2775 38.6247 59.2846L38.8599 58.3126C38.832 58.3059 38.8001 58.2981 38.7672 58.2907L38.5457 59.2658ZM38.9222 59.2038C38.9364 59.193 38.9423 59.1885 38.947 59.1852L38.3659 58.3713C38.3453 58.386 38.326 58.4009 38.3144 58.4098L38.9222 59.2038ZM38.8116 59.2821C38.8605 59.2516 38.9023 59.2191 38.9223 59.2038L38.3143 58.4098C38.3022 58.4191 38.2955 58.4242 38.2893 58.4287C38.2836 58.4328 38.2815 58.4341 38.2817 58.434L38.8116 59.2821ZM31.9185 64.1938C35.3227 64.5779 38.3788 62.2564 39.037 58.9558L38.0563 58.7603C37.4969 61.5656 34.9041 63.5243 32.0306 63.2001L31.9185 64.1938ZM28.1779 62.439C29.168 63.375 30.4497 64.0312 31.9196 64.1939L32.0296 63.1999C30.7948 63.0633 29.7111 62.5123 28.8649 61.7123L28.1779 62.439ZM23.4046 64.4581C25.539 64.7018 27.5285 63.8664 28.8862 62.4175L28.1565 61.7338C26.9992 62.9687 25.3159 63.6698 23.518 63.4645L23.4046 64.4581ZM17.8669 59.7644C18.5848 62.2263 20.7005 64.149 23.4045 64.4581L23.5181 63.4645C21.2336 63.2034 19.4377 61.5788 18.8269 59.4844L17.8669 59.7644ZM18.2533 59.1332L8.40644 61.0088L8.59356 61.9912L18.4404 60.1156L18.2533 59.1332ZM8.9864 61.6158L11.3615 51.6404L10.3887 51.4088L8.0136 61.3842L8.9864 61.6158ZM6.54174 45.1337C6.20049 48.1671 7.98175 50.9447 10.6952 51.9911L11.055 51.0581C8.75541 50.1713 7.2463 47.816 7.53547 45.2455L6.54174 45.1337ZM8.94479 40.7502C7.64445 41.8019 6.74155 43.3414 6.54168 45.1342L7.53552 45.245C7.70493 43.7254 8.46875 42.4214 9.57368 41.5277L8.94479 40.7502ZM7.48982 36.6388C7.29002 38.4309 7.83048 40.1376 8.86697 41.4489L9.6515 40.8289C8.77176 39.7158 8.31418 38.2698 8.48366 36.7495L7.48982 36.6388ZM13.3091 30.8442C10.3149 31.1576 7.84091 33.5178 7.48987 36.6383L8.4836 36.75C8.78129 34.1038 10.8783 32.1041 13.4132 31.8388L13.3091 30.8442ZM12.8694 30.0073C12.8148 30.4822 12.8208 30.9419 12.8634 31.3889L13.8589 31.2941C13.8217 30.903 13.8177 30.5146 13.8629 30.1215L12.8694 30.0073ZM20.1033 24.2049C16.5091 23.805 13.2688 26.4037 12.8692 30.0094L13.8631 30.1195C14.2021 27.0605 16.95 24.8602 19.9927 25.1987L20.1033 24.2049ZM22.314 24.8838C21.649 24.5488 20.9074 24.2923 20.1021 24.2047L19.9939 25.1989C20.6557 25.2709 21.2815 25.4834 21.864 25.7769L22.314 24.8838ZM28.193 21.5411C25.4003 21.2273 22.8402 22.7376 21.6429 25.1046L22.5352 25.556C23.5534 23.5431 25.7241 22.2699 28.0813 22.5348L28.193 21.5411ZM33.0892 24.7476C32.0822 23.0358 30.3267 21.7793 28.1926 21.541L28.0817 22.5348C29.8798 22.7356 31.3679 23.7938 32.2273 25.2546L33.0892 24.7476ZM36.4359 23.691C34.9675 23.5285 33.5778 23.8816 32.4051 24.5699L32.9113 25.4323C33.9144 24.8436 35.0897 24.5481 36.3259 24.6849L36.4359 23.691ZM42.2253 30.3815C42.3115 27.0172 39.846 24.0698 36.4361 23.691L36.3257 24.6849C39.2035 25.0046 41.299 27.4946 41.2256 30.3559L42.2253 30.3815ZM42.1687 30.1149C42.1549 30.1011 42.1378 30.0815 42.105 30.0433L41.3458 30.6942C41.3729 30.7258 41.4157 30.7761 41.4617 30.8221L42.1687 30.1149ZM41.8969 29.9671C41.864 29.9679 41.8389 29.9685 41.8152 29.9685V30.9685C41.8538 30.9685 41.8916 30.9675 41.9223 30.9667L41.8969 29.9671ZM42.2192 29.9777C42.0921 29.9611 41.9712 29.9652 41.8969 29.9671L41.9223 30.9667C42.0088 30.9645 42.0524 30.9644 42.0899 30.9693L42.2192 29.9777ZM47.991 37.2388C48.3959 33.6333 45.8095 30.3818 42.2105 29.9766L42.0986 30.9703C45.1466 31.3135 47.3408 34.0681 46.9972 37.1272L47.991 37.2388ZM46.9649 40.05C47.497 39.2333 47.8714 38.2871 47.9909 37.2397L46.9973 37.1264C46.8972 38.0045 46.583 38.8043 46.127 39.5041L46.9649 40.05Z" fill="black"/>
<path d="M26.463 44.9543C28.5805 44.9543 30.297 42.5021 30.297 39.4771C30.297 36.4522 28.5805 34 26.463 34C24.3456 34 22.629 36.4522 22.629 39.4771C22.629 42.5021 24.3456 44.9543 26.463 44.9543Z" fill="white"/>
<path d="M28.0046 40.9986C29.181 40.9986 30.1346 39.7725 30.1346 38.2601C30.1346 36.7476 29.181 35.5215 28.0046 35.5215C26.8283 35.5215 25.8746 36.7476 25.8746 38.2601C25.8746 39.7725 26.8283 40.9986 28.0046 40.9986Z" fill="#222222"/>
<path d="M36.2 44.9543C38.3174 44.9543 40.034 42.5021 40.034 39.4771C40.034 36.4522 38.3174 34 36.2 34C34.0825 34 32.366 36.4522 32.366 39.4771C32.366 42.5021 34.0825 44.9543 36.2 44.9543Z" fill="white"/>
<path d="M37.7417 40.9986C38.9181 40.9986 39.8717 39.7725 39.8717 38.2601C39.8717 36.7476 38.9181 35.5215 37.7417 35.5215C36.5653 35.5215 35.6117 36.7476 35.6117 38.2601C35.6117 39.7725 36.5653 40.9986 37.7417 40.9986Z" fill="#222222"/>
<path d="M23.2172 47.8652L32.6805 51.4051L39.7805 48.0072" stroke="#222222" stroke-miterlimit="10" stroke-linecap="round" stroke-linejoin="round"/>
<path d="M23.9474 46.6582L22 48.6056" stroke="#222222" stroke-miterlimit="10" stroke-linecap="round" stroke-linejoin="round"/>
<path d="M39.0502 46.6582L40.9976 48.6056" stroke="#222222" stroke-miterlimit="10" stroke-linecap="round" stroke-linejoin="round"/>
<path d="M72 25.7485H69.4541" stroke="#222222" stroke-miterlimit="10" stroke-linecap="round" stroke-linejoin="round"/>
<path d="M66.0664 25.7485H63.5205" stroke="#222222" stroke-miterlimit="10" stroke-linecap="round" stroke-linejoin="round"/>
<path d="M67.7601 21.5088V24.0546" stroke="#222222" stroke-miterlimit="10" stroke-linecap="round" stroke-linejoin="round"/>
<path d="M67.7601 27.4424V29.9882" stroke="#222222" stroke-miterlimit="10" stroke-linecap="round" stroke-linejoin="round"/>
<path d="M7.35949 16.468H5.45264" stroke="#222222" stroke-miterlimit="10" stroke-linecap="round" stroke-linejoin="round"/>
<path d="M2.90686 16.468H1" stroke="#222222" stroke-miterlimit="10" stroke-linecap="round" stroke-linejoin="round"/>
<path d="M4.17456 13.2932V15.2001" stroke="#222222" stroke-miterlimit="10" stroke-linecap="round" stroke-linejoin="round"/>
<path d="M4.17456 17.7459V19.6528" stroke="#222222" stroke-miterlimit="10" stroke-linecap="round" stroke-linejoin="round"/>
<path d="M41.48 6.538C41.48 6.538 46.1863 5.42229 47.0586 1C47.0586 1 48.6814 6.56843 53.1544 6.538C53.1544 6.538 47.3933 7.14657 47.0586 12.6643C47.0586 12.6744 47.3527 7.16686 41.48 6.538Z" fill="#FFD262" stroke="#222222" stroke-miterlimit="10" stroke-linecap="round" stroke-linejoin="round"/>
</svg>
