<svg width="71" height="71" viewBox="0 0 71 71" fill="none" xmlns="http://www.w3.org/2000/svg">
<g clip-path="url(#clip0)">
<path d="M22.0303 44.5537L12.922 61.1498H20.803L24.7485 70.9999L31.2501 49.8896L22.0303 44.5537Z" fill="#677AC7" stroke="#222222" stroke-miterlimit="10" stroke-linecap="round" stroke-linejoin="round"/>
<path d="M51.0997 44.5537L41.89 49.8896L48.3916 70.9999L52.3371 61.1498H60.2181L51.0997 44.5537Z" fill="#677AC7" stroke="#222222" stroke-miterlimit="10" stroke-linecap="round" stroke-linejoin="round"/>
<path d="M56.4348 26.7302C58.8082 28.2722 60.2079 30.088 60.2079 32.056C60.2079 34.024 58.8082 35.8398 56.4348 37.3817C57.7229 39.8975 58.017 42.18 57.0433 43.8842C56.0595 45.5885 53.9295 46.4508 51.0996 46.5928C50.9576 49.423 50.0853 51.5533 48.3915 52.5373C46.6875 53.5213 44.4155 53.2271 41.8899 51.9287C40.3482 54.3024 38.5326 55.7024 36.5649 55.7024C34.5972 55.7024 32.7817 54.3024 31.24 51.9287C28.7245 53.217 26.4424 53.5112 24.7384 52.5373C23.0344 51.5533 22.1723 49.423 22.0303 46.5928C19.2004 46.4508 17.0704 45.5783 16.0866 43.8842C15.1027 42.18 15.3968 39.9077 16.6951 37.3817C14.3217 35.8398 12.922 34.024 12.922 32.056C12.922 30.088 14.3217 28.2722 16.6951 26.7302C15.407 24.2144 15.1128 21.932 16.0866 20.2277C17.0704 18.5235 19.2004 17.6612 22.0303 17.5192C22.1723 14.6889 23.0445 12.5586 24.7384 11.5746C26.4424 10.5906 28.7144 10.8848 31.24 12.1833C32.7817 9.80952 34.5972 8.40961 36.5649 8.40961C38.5326 8.40961 40.3482 9.80952 41.8899 12.1833C44.4053 10.895 46.6875 10.6008 48.3915 11.5746C50.0955 12.5586 50.9576 14.6889 51.0996 17.5192C53.9295 17.6612 56.0595 18.5336 57.0433 20.2277C58.0272 21.932 57.733 24.2144 56.4348 26.7302Z" fill="white" stroke="#222222" stroke-miterlimit="10" stroke-linecap="round" stroke-linejoin="round"/>
<path d="M6.80683 22.5001H4.76782" stroke="#222222" stroke-miterlimit="10" stroke-linecap="round" stroke-linejoin="round"/>
<path d="M2.03901 22.5001H0" stroke="#222222" stroke-miterlimit="10" stroke-linecap="round" stroke-linejoin="round"/>
<path d="M3.40857 19.1017V21.1407" stroke="#222222" stroke-miterlimit="10" stroke-linecap="round" stroke-linejoin="round"/>
<path d="M3.40857 23.8594V25.9086" stroke="#222222" stroke-miterlimit="10" stroke-linecap="round" stroke-linejoin="round"/>
<path d="M71.0007 47.1304H69.5399" stroke="#222222" stroke-miterlimit="10" stroke-linecap="round" stroke-linejoin="round"/>
<path d="M67.5921 47.1304H66.1415" stroke="#222222" stroke-miterlimit="10" stroke-linecap="round" stroke-linejoin="round"/>
<path d="M68.5659 44.6958V46.1566" stroke="#222222" stroke-miterlimit="10" stroke-linecap="round" stroke-linejoin="round"/>
<path d="M68.5659 48.1042V49.565" stroke="#222222" stroke-miterlimit="10" stroke-linecap="round" stroke-linejoin="round"/>
<path d="M52.2661 3.93599C52.2661 3.93599 55.4307 3.14474 56.0088 0C56.0088 0 57.1042 3.95628 60.1065 3.93599C60.1065 3.93599 56.232 4.3722 56.0088 8.2879C56.019 8.2879 56.2117 4.38234 52.2661 3.93599Z" fill="#FFD262" stroke="#222222" stroke-miterlimit="10" stroke-linecap="round" stroke-linejoin="round"/>
<path d="M34.8212 41.4699L34.9531 41.5815C35.8558 42.3931 37.2555 42.3931 38.1684 41.5917C38.1684 41.5917 38.2799 41.4801 38.3104 41.5004C44.5989 36.0123 48.7068 32.4516 48.5343 27.9881C48.4633 26.0404 47.4186 24.1637 45.7349 23.0682C42.5602 20.9784 38.5234 22.5102 36.4238 24.884C35.5008 25.8071 27.2141 34.095 27.2141 34.095L34.8212 41.4699Z" fill="#FFD262"/>
<path d="M42.5287 26.0709C43.6344 26.7911 44.2532 28.0186 44.3039 29.2967" stroke="#222222" stroke-miterlimit="10" stroke-linecap="round" stroke-linejoin="round"/>
<path d="M38.1678 41.6018C37.2549 42.3931 35.8552 42.3931 34.9525 41.5917L34.8207 41.4801C28.5321 36.0225 24.4344 32.4517 24.5967 27.9983C24.6677 26.0506 25.7124 24.1739 27.3961 23.0783C30.5505 21.0089 34.4555 21.9827 36.5652 24.3362C38.6648 21.9624 42.5698 20.9886 45.7344 23.0783C47.4181 24.1739 48.4628 26.0506 48.5338 27.9983C48.7062 32.4517 44.5882 36.0225 38.3098 41.5105C38.2794 41.4902 38.1678 41.6018 38.1678 41.6018Z" stroke="#222222" stroke-miterlimit="10" stroke-linecap="round" stroke-linejoin="round"/>
</g>
<defs>
<clipPath id="clip0">
<rect width="71" height="71" fill="white"/>
</clipPath>
</defs>
</svg>
