<svg width="71" height="71" viewBox="0 0 71 71" fill="none" xmlns="http://www.w3.org/2000/svg">
<g clip-path="url(#clip0)">
<path d="M71 60.3501H68.87" stroke="#222222" stroke-miterlimit="10" stroke-linecap="round" stroke-linejoin="round"/>
<path d="M66.0301 60.3501H63.9001" stroke="#222222" stroke-miterlimit="10" stroke-linecap="round" stroke-linejoin="round"/>
<path d="M67.4501 56.8V58.9301" stroke="#222222" stroke-miterlimit="10" stroke-linecap="round" stroke-linejoin="round"/>
<path d="M67.4501 61.77V63.9" stroke="#222222" stroke-miterlimit="10" stroke-linecap="round" stroke-linejoin="round"/>
<path d="M31.9499 2.53571H30.4285" stroke="#222222" stroke-miterlimit="10" stroke-linecap="round" stroke-linejoin="round"/>
<path d="M28.3998 2.53571H26.8784" stroke="#222222" stroke-miterlimit="10" stroke-linecap="round" stroke-linejoin="round"/>
<path d="M29.4142 0V1.52143" stroke="#222222" stroke-miterlimit="10" stroke-linecap="round" stroke-linejoin="round"/>
<path d="M29.4142 3.54999V5.07142" stroke="#222222" stroke-miterlimit="10" stroke-linecap="round" stroke-linejoin="round"/>
<path d="M0 49.4971C0 49.4971 3.27614 48.7263 3.87457 45.6428C3.87457 45.6428 5.00043 49.5174 8.11429 49.4971C8.11429 49.4971 4.10786 49.9231 3.87457 53.7571C3.87457 53.7571 4.08757 49.9332 0 49.4971Z" fill="#FFD262" stroke="#222222" stroke-miterlimit="10" stroke-linecap="round" stroke-linejoin="round"/>
<path d="M35.5 16.9589L15.3258 19.3019V23.998L35.5 26.341L55.6741 23.998V19.3019L35.5 16.9589Z" fill="white" stroke="#222222" stroke-miterlimit="10" stroke-linecap="round" stroke-linejoin="round"/>
<path d="M55.6842 14.6158H15.3258V19.312H55.6842V14.6158Z" fill="#8CA2EA" stroke="#222222" stroke-miterlimit="10" stroke-linecap="round" stroke-linejoin="round"/>
<path d="M55.6842 23.998H15.3258V28.6941H55.6842V23.998Z" fill="#677AC7" stroke="#222222" stroke-miterlimit="10" stroke-linecap="round" stroke-linejoin="round"/>
<path d="M20.6916 28.3594L11.3601 17.5269L7.39429 20.4379L13.5611 37.4271L23.6939 48.2597L26.8584 44.0809L20.6916 28.3594Z" fill="white" stroke="#222222" stroke-miterlimit="10" stroke-linecap="round" stroke-linejoin="round"/>
<path d="M50.3087 28.3594L59.6401 17.5269L63.606 20.4379L57.4391 37.4271L47.3064 48.2597L44.1418 44.0809L50.3087 28.3594Z" fill="white" stroke="#222222" stroke-miterlimit="10" stroke-linecap="round" stroke-linejoin="round"/>
<path d="M30.023 39.902L26.8584 44.0809L11.3601 17.5167L15.326 14.6057L30.023 39.902Z" fill="#8CA2EA" stroke="#222222" stroke-miterlimit="10" stroke-linecap="round" stroke-linejoin="round"/>
<path d="M7.39427 20.4277L4.80784 22.3244C4.03698 22.8924 3.83413 23.9574 4.34127 24.7689L20.5293 52.4183L23.6938 48.2395L7.39427 20.4277Z" fill="#677AC7" stroke="#222222" stroke-miterlimit="10" stroke-linecap="round" stroke-linejoin="round"/>
<path d="M40.9772 39.902L44.1417 44.0809L59.64 17.5167L55.6742 14.6057L40.9772 39.902Z" fill="#8CA2EA" stroke="#222222" stroke-miterlimit="10" stroke-linecap="round" stroke-linejoin="round"/>
<path d="M63.6058 20.4277L66.1923 22.3244C66.9631 22.8924 67.166 23.9574 66.6588 24.7689L50.4708 52.4284L47.3063 48.2496L63.6058 20.4277Z" fill="#677AC7" stroke="#222222" stroke-miterlimit="10" stroke-linecap="round" stroke-linejoin="round"/>
<path d="M53.5442 52.9559C53.5442 62.9263 45.4604 71 35.5001 71C25.5398 71 17.4559 62.9162 17.4559 52.9559C17.4559 42.9855 25.5398 34.9117 35.5001 34.9117C45.4604 34.9117 53.5442 42.9855 53.5442 52.9559Z" fill="#FFF2D7" stroke="#222222" stroke-miterlimit="10" stroke-linecap="round" stroke-linejoin="round"/>
<path d="M48.5032 52.9559C48.5032 60.137 42.6812 65.959 35.5001 65.959C28.3189 65.959 22.4969 60.137 22.4969 52.9559C22.4969 45.7748 28.3189 39.9528 35.5001 39.9528C42.6812 39.9528 48.5032 45.7748 48.5032 52.9559Z" fill="#FFD262" stroke="#222222" stroke-miterlimit="10" stroke-linecap="round" stroke-linejoin="round"/>
<path d="M33.5829 55.167C35.1177 55.167 36.362 53.3869 36.362 51.191C36.362 48.9951 35.1177 47.215 33.5829 47.215C32.048 47.215 30.8037 48.9951 30.8037 51.191C30.8037 53.3869 32.048 55.167 33.5829 55.167Z" fill="white"/>
<path d="M34.7088 52.2966C35.5603 52.2966 36.2505 51.4065 36.2505 50.3086C36.2505 49.2106 35.5603 48.3206 34.7088 48.3206C33.8574 48.3206 33.1671 49.2106 33.1671 50.3086C33.1671 51.4065 33.8574 52.2966 34.7088 52.2966Z" fill="#222222"/>
<path d="M40.6524 55.167C42.1873 55.167 43.4316 53.3869 43.4316 51.191C43.4316 48.9951 42.1873 47.215 40.6524 47.215C39.1176 47.215 37.8733 48.9951 37.8733 51.191C37.8733 53.3869 39.1176 55.167 40.6524 55.167Z" fill="white"/>
<path d="M41.7682 52.2966C42.6196 52.2966 43.3099 51.4065 43.3099 50.3086C43.3099 49.2106 42.6196 48.3206 41.7682 48.3206C40.9167 48.3206 40.2264 49.2106 40.2264 50.3086C40.2264 51.4065 40.9167 52.2966 41.7682 52.2966Z" fill="#222222"/>
<path d="M31.2396 57.2767L38.1063 59.8429L43.2488 57.3782" stroke="#222222" stroke-miterlimit="10" stroke-linecap="round" stroke-linejoin="round"/>
<path d="M31.7673 56.4044L30.3473 57.8143" stroke="#222222" stroke-miterlimit="10" stroke-linecap="round" stroke-linejoin="round"/>
<path d="M42.7214 56.4044L44.1313 57.8143" stroke="#222222" stroke-miterlimit="10" stroke-linecap="round" stroke-linejoin="round"/>
</g>
<defs>
<clipPath id="clip0">
<rect width="71" height="71" fill="white"/>
</clipPath>
</defs>
</svg>
