<svg width="71" height="71" viewBox="0 0 71 71" fill="none" xmlns="http://www.w3.org/2000/svg">
<g clip-path="url(#clip0)">
<path d="M71.0002 31.128H69.4788" stroke="#222222" stroke-miterlimit="10" stroke-linecap="round" stroke-linejoin="round"/>
<path d="M67.4501 31.128H65.9287" stroke="#222222" stroke-miterlimit="10" stroke-linecap="round" stroke-linejoin="round"/>
<path d="M68.4645 28.5923V30.1137" stroke="#222222" stroke-miterlimit="10" stroke-linecap="round" stroke-linejoin="round"/>
<path d="M68.4645 32.1423V33.6637" stroke="#222222" stroke-miterlimit="10" stroke-linecap="round" stroke-linejoin="round"/>
<path d="M6.08572 48.876H4.26001" stroke="#222222" stroke-miterlimit="10" stroke-linecap="round" stroke-linejoin="round"/>
<path d="M1.82571 48.876H0" stroke="#222222" stroke-miterlimit="10" stroke-linecap="round" stroke-linejoin="round"/>
<path d="M3.04285 45.8332V47.6589" stroke="#222222" stroke-miterlimit="10" stroke-linecap="round" stroke-linejoin="round"/>
<path d="M3.04285 50.0932V51.9189" stroke="#222222" stroke-miterlimit="10" stroke-linecap="round" stroke-linejoin="round"/>
<path d="M54.4977 39.6873C55.0252 38.8861 55.2179 37.8618 54.9136 36.8781C54.376 35.083 52.4286 34.1094 50.6434 34.6672L42.945 37.1113C41.2309 37.659 39.4153 36.6042 39.04 34.8396C38.8777 34.0992 38.7357 33.2676 38.6242 32.3244C38.1982 28.9574 36.1087 27.3246 34.1613 26.5234C32.6297 25.8946 31.0272 27.2637 31.4024 28.8763C31.8183 30.7221 32.153 33.0546 32.0516 34.9511C31.7371 40.5392 24.5763 43.4803 24.5763 43.4803L30.8344 67.5567L56.6074 59.3825C58.3622 58.8247 59.3359 56.9485 58.778 55.194C58.5244 54.3928 57.9666 53.8248 57.4594 53.4597C57.0943 53.1961 57.1044 52.6585 57.4594 52.3847C58.5549 51.5531 59.0722 50.0927 58.636 48.7033C58.3216 47.6891 57.5609 46.9386 56.648 46.5938C56.2727 46.4518 56.1206 45.9853 56.3539 45.6506C56.9016 44.8393 57.0943 43.7846 56.7697 42.7704C56.4553 41.7562 55.6946 41.0057 54.7817 40.6508C54.3963 40.5088 54.2746 40.0321 54.4977 39.6873Z" fill="#FFF2D7" stroke="#222222" stroke-miterlimit="10" stroke-linecap="round" stroke-linejoin="round"/>
<path d="M28.6739 70.8021L32.7412 69.5141C35.2972 68.7027 36.7172 65.9746 35.9058 63.4088L28.7347 40.6711L20.0423 43.4296C17.9326 44.099 16.756 46.3606 17.4255 48.4802L23.643 68.1855C24.3023 70.3051 26.5642 71.4714 28.6739 70.8021Z" fill="#8CA2EA" stroke="#222222" stroke-miterlimit="10"/>
<path d="M23.6431 68.1855C24.3125 70.3051 26.5642 71.4815 28.6739 70.8122L32.7412 69.5242C35.2972 68.7128 36.7172 65.9847 35.9058 63.4189L34.2018 58.0235C27.0713 59.0275 22.4462 57.4251 19.7178 55.772L23.6431 68.1855Z" fill="#677AC7" stroke="#222222" stroke-miterlimit="10"/>
<path d="M31.6762 63.2974C32.1022 64.6566 31.3516 66.107 30.0026 66.533C28.6536 66.959 27.2032 66.2084 26.7772 64.8493C26.3512 63.4901 27.1018 62.0397 28.4508 61.6137C29.8099 61.1877 31.2502 61.9484 31.6762 63.2974Z" fill="#FFD262" stroke="#222222" stroke-miterlimit="10"/>
<path d="M32.4571 14.3128C31.7876 14.8909 30.7733 14.8909 30.1242 14.3026L30.0329 14.2215C25.4585 10.2561 22.4765 7.65983 22.5982 4.41449C22.6489 2.99465 23.4096 1.63566 24.6369 0.834466C26.9292 -0.666505 29.7692 0.0332719 31.3109 1.74722C32.8425 0.0231302 35.6723 -0.686789 37.9849 0.834466C39.2122 1.63566 39.9729 2.99465 40.0236 4.41449C40.1453 7.65983 37.1532 10.246 32.5889 14.2418C32.5382 14.2316 32.4571 14.3128 32.4571 14.3128Z" fill="#FFD262" stroke="#222222" stroke-miterlimit="10" stroke-linecap="round" stroke-linejoin="round"/>
<path d="M35.6318 3.01526C36.4433 3.54269 36.8895 4.43526 36.92 5.35826" stroke="#222222" stroke-miterlimit="10" stroke-linecap="round" stroke-linejoin="round"/>
<path d="M53.3919 21.0478C53.0268 21.3724 52.4588 21.3724 52.0936 21.0377L52.0429 20.9971C49.5072 18.7961 47.8438 17.3457 47.9148 15.5504C47.9452 14.7592 48.3611 14.0087 49.0508 13.5624C50.3288 12.7307 51.9009 13.1161 52.7529 14.0695C53.6049 13.1059 55.1771 12.7205 56.4551 13.5624C57.1346 14.0087 57.5606 14.7694 57.5911 15.5504C57.6621 17.3558 55.9986 18.7961 53.4629 21.0072C53.4325 21.0072 53.3919 21.0478 53.3919 21.0478Z" fill="#FFD262" stroke="#222222" stroke-miterlimit="10" stroke-linecap="round" stroke-linejoin="round"/>
<path d="M55.1567 14.7795C55.603 15.0737 55.8566 15.5707 55.8769 16.0778" stroke="#222222" stroke-miterlimit="10" stroke-linecap="round" stroke-linejoin="round"/>
<path d="M11.7656 31.5942C11.2483 32.0405 10.4571 32.0405 9.95001 31.5841L9.87901 31.5233C6.31886 28.4402 4.00629 26.422 4.09758 23.8967C4.13815 22.7913 4.72644 21.7365 5.67986 21.1077C7.46501 19.9414 9.67615 20.4891 10.8629 21.8176C12.0496 20.4789 14.2607 19.9212 16.0459 21.1077C16.9993 21.7264 17.5876 22.7913 17.6281 23.8967C17.7296 26.422 15.3967 28.43 11.8467 31.5334C11.8264 31.5334 11.7656 31.5942 11.7656 31.5942Z" fill="#FFD262" stroke="#222222" stroke-miterlimit="10" stroke-linecap="round" stroke-linejoin="round"/>
<path d="M14.2305 22.822C14.8593 23.2277 15.2042 23.9275 15.2346 24.6477" stroke="#222222" stroke-miterlimit="10" stroke-linecap="round" stroke-linejoin="round"/>
</g>
<defs>
<clipPath id="clip0">
<rect width="71" height="71" fill="white"/>
</clipPath>
</defs>
</svg>
