<svg width="71" height="71" viewBox="0 0 71 71" fill="none" xmlns="http://www.w3.org/2000/svg">
<g clip-path="url(#clip0)">
<path d="M58.3381 22.4867H56.0052" stroke="#222222" stroke-miterlimit="10" stroke-linecap="round" stroke-linejoin="round"/>
<path d="M52.8912 22.4867H50.5583" stroke="#222222" stroke-miterlimit="10" stroke-linecap="round" stroke-linejoin="round"/>
<path d="M54.4534 18.5919V20.9247" stroke="#222222" stroke-miterlimit="10" stroke-linecap="round" stroke-linejoin="round"/>
<path d="M54.4534 24.0386V26.3714" stroke="#222222" stroke-miterlimit="10" stroke-linecap="round" stroke-linejoin="round"/>
<path d="M5.83222 60.4109H4.08765" stroke="#222222" stroke-miterlimit="10" stroke-linecap="round" stroke-linejoin="round"/>
<path d="M1.75471 60.4109H0" stroke="#222222" stroke-miterlimit="10" stroke-linecap="round" stroke-linejoin="round"/>
<path d="M2.92102 57.4999V59.2444" stroke="#222222" stroke-miterlimit="10" stroke-linecap="round" stroke-linejoin="round"/>
<path d="M2.92102 61.5773V63.332" stroke="#222222" stroke-miterlimit="10" stroke-linecap="round" stroke-linejoin="round"/>
<path d="M51.9987 63.829C51.9987 63.829 59.9907 62.1047 63.4695 56.0799C66.9381 50.055 73.1755 33.5627 70.2343 31.8891C67.3032 30.2156 56.8467 43.0666 52.8405 50.0144C48.8344 56.9623 51.9987 63.829 51.9987 63.829Z" fill="#677AC7" stroke="#222222" stroke-miterlimit="10" stroke-linecap="round" stroke-linejoin="round"/>
<path d="M69.7575 32.1326L47.8505 71H0" stroke="#222222" stroke-miterlimit="10" stroke-linecap="round" stroke-linejoin="round"/>
<path d="M57.4347 43.2491L58.9561 50.8157" stroke="#222222" stroke-miterlimit="10" stroke-linecap="round" stroke-linejoin="round"/>
<path d="M63.2664 43.807L69.4941 41.2104" stroke="#222222" stroke-miterlimit="10" stroke-linecap="round" stroke-linejoin="round"/>
<path d="M56.593 55.4713L64.758 52.8748" stroke="#222222" stroke-miterlimit="10" stroke-linecap="round" stroke-linejoin="round"/>
<path d="M39.6862 44.5271C41.4509 41.4741 42.455 37.9241 42.455 34.1408C42.455 22.649 33.1445 13.3378 21.6535 13.3378C10.1625 13.3378 0.862183 22.6591 0.862183 34.1408C0.862183 45.6225 10.1726 54.9438 21.6637 54.9438C25.7104 54.9438 29.4934 53.7875 32.6881 51.7894C32.82 51.7083 32.9518 51.6271 33.0735 51.5358L41.4205 53.9093L39.6862 44.5271Z" fill="#FFF2D7" stroke="#222222" stroke-miterlimit="10" stroke-linecap="round" stroke-linejoin="round"/>
<path d="M32.475 4.15857C32.475 4.15857 35.812 3.32686 36.4307 0C36.4307 0 37.587 4.17886 40.7515 4.15857C40.7515 4.15857 36.664 4.615 36.4307 8.75329C36.4307 8.75329 36.6437 4.62514 32.475 4.15857Z" fill="#FFD262" stroke="#222222" stroke-miterlimit="10" stroke-linecap="round" stroke-linejoin="round"/>
<path d="M13.8855 36.1694C15.0059 36.1694 15.9141 35.2612 15.9141 34.1409C15.9141 33.0205 15.0059 32.1123 13.8855 32.1123C12.7652 32.1123 11.8569 33.0205 11.8569 34.1409C11.8569 35.2612 12.7652 36.1694 13.8855 36.1694Z" fill="#FFD262" stroke="#222222" stroke-miterlimit="10"/>
<path d="M21.6533 36.1694C22.7737 36.1694 23.6819 35.2612 23.6819 34.1409C23.6819 33.0205 22.7737 32.1123 21.6533 32.1123C20.533 32.1123 19.6248 33.0205 19.6248 34.1409C19.6248 35.2612 20.533 36.1694 21.6533 36.1694Z" fill="#FFD262" stroke="#222222" stroke-miterlimit="10"/>
<path d="M29.4326 36.1694C30.553 36.1694 31.4612 35.2612 31.4612 34.1409C31.4612 33.0205 30.553 32.1123 29.4326 32.1123C28.3123 32.1123 27.4041 33.0205 27.4041 34.1409C27.4041 35.2612 28.3123 36.1694 29.4326 36.1694Z" fill="#FFD262" stroke="#222222" stroke-miterlimit="10"/>
</g>
<defs>
<clipPath id="clip0">
<rect width="71" height="71" fill="white"/>
</clipPath>
</defs>
</svg>
