<svg width="73" height="73" viewBox="0 0 73 73" fill="none" xmlns="http://www.w3.org/2000/svg">
<path d="M59.7374 51.8764C59.7374 51.8764 64.8393 50.3753 65.6 46.4804C65.6 46.4804 67.304 51.8257 72.0001 51.7953C72.0001 51.7953 65.9449 52.7183 65.6 58.804C65.6 58.8141 65.9144 52.5763 59.7374 51.8764Z" fill="#FFD262" stroke="#222222" stroke-miterlimit="10" stroke-linecap="round" stroke-linejoin="round"/>
<path d="M13.1615 67.4357C13.1615 67.4357 16.5188 66.4417 17.0158 63.8857C17.0158 63.8857 18.1416 67.4053 21.2251 67.385C21.2251 67.385 17.2389 67.9936 17.0158 72C17.0259 72 17.2288 67.8922 13.1615 67.4357Z" fill="#FFD262" stroke="#222222" stroke-miterlimit="10" stroke-linecap="round" stroke-linejoin="round"/>
<path d="M30.2515 26.1238L19.8754 8.09991H29.5009C29.5111 8.11006 39.4612 25.4036 39.4714 25.4138C38.3455 25.1703 37.1994 25.0385 36.0329 25.0385C34.0247 25.0486 32.0874 25.4036 30.2515 26.1238Z" fill="#677AC7" stroke="#222222" stroke-miterlimit="10" stroke-linecap="round" stroke-linejoin="round"/>
<path d="M39.6837 25.8194L34.876 17.4616L40.2618 8.09979H49.8874L39.6837 25.8194Z" fill="#677AC7" stroke="#222222" stroke-miterlimit="10" stroke-linecap="round" stroke-linejoin="round"/>
<path d="M34.8769 25.0793C24.9166 25.0793 16.8226 33.1226 16.8226 43.0119C17.8166 66.7969 51.9575 66.7969 52.9413 43.0119C52.9413 33.1226 44.8372 25.0793 34.8769 25.0793ZM34.8769 56.9989C27.1075 56.9989 20.7885 50.7204 20.7885 43.0119C21.5593 24.4504 48.1945 24.4606 48.9653 43.0119C48.9653 50.7204 42.6463 56.9989 34.8769 56.9989Z" fill="#FFD262" stroke="#222222" stroke-miterlimit="10" stroke-linecap="round" stroke-linejoin="round"/>
<path d="M34.8768 50.1015C33.7814 50.1015 32.8888 49.2191 32.8888 48.1338V37.8895C32.9902 35.2727 36.7532 35.2727 36.8546 37.8895V48.1338C36.8648 49.2191 35.9722 50.1015 34.8768 50.1015Z" fill="#FFD262" stroke="#222222" stroke-miterlimit="10" stroke-linecap="round" stroke-linejoin="round"/>
<path d="M6.11128 37.0074H4.57971" stroke="#222222" stroke-miterlimit="10" stroke-linecap="round" stroke-linejoin="round"/>
<path d="M2.53157 37.0074H1" stroke="#222222" stroke-miterlimit="10" stroke-linecap="round" stroke-linejoin="round"/>
<path d="M3.55554 34.4717V35.9931" stroke="#222222" stroke-miterlimit="10" stroke-linecap="round" stroke-linejoin="round"/>
<path d="M3.55554 38.0217V39.5431" stroke="#222222" stroke-miterlimit="10" stroke-linecap="round" stroke-linejoin="round"/>
<path d="M60.5884 3.04889H59.351" stroke="#222222" stroke-miterlimit="10" stroke-linecap="round" stroke-linejoin="round"/>
<path d="M57.6981 3.04889H56.4607" stroke="#222222" stroke-miterlimit="10" stroke-linecap="round" stroke-linejoin="round"/>
<path d="M58.5289 1V2.22729" stroke="#222222" stroke-miterlimit="10" stroke-linecap="round" stroke-linejoin="round"/>
<path d="M58.5289 3.86011V5.09754" stroke="#222222" stroke-miterlimit="10" stroke-linecap="round" stroke-linejoin="round"/>
</svg>
