<svg width="71" height="71" viewBox="0 0 71 71" fill="none" xmlns="http://www.w3.org/2000/svg">
<g clip-path="url(#clip0)">
<path d="M7.15064 37.0215H5.0105" stroke="#222222" stroke-miterlimit="10" stroke-linecap="round" stroke-linejoin="round"/>
<path d="M2.15029 37.0215H0" stroke="#222222" stroke-miterlimit="10" stroke-linecap="round" stroke-linejoin="round"/>
<path d="M3.58044 33.4714V35.6014" stroke="#222222" stroke-miterlimit="10" stroke-linecap="round" stroke-linejoin="round"/>
<path d="M3.58044 38.4414V40.5714" stroke="#222222" stroke-miterlimit="10" stroke-linecap="round" stroke-linejoin="round"/>
<path d="M14.5247 2.53571H13.0033" stroke="#222222" stroke-miterlimit="10" stroke-linecap="round" stroke-linejoin="round"/>
<path d="M10.9748 2.53571H9.45337" stroke="#222222" stroke-miterlimit="10" stroke-linecap="round" stroke-linejoin="round"/>
<path d="M11.989 0V1.52143" stroke="#222222" stroke-miterlimit="10" stroke-linecap="round" stroke-linejoin="round"/>
<path d="M11.989 3.54999V5.07142" stroke="#222222" stroke-miterlimit="10" stroke-linecap="round" stroke-linejoin="round"/>
<path d="M62.8248 25.1543C62.8248 25.1543 66.1213 24.3834 66.7298 21.3C66.7298 21.3 67.8658 25.1746 71 25.1543C71 25.1543 66.9631 25.5803 66.7298 29.4143C66.7298 29.4143 66.9428 25.5904 62.8248 25.1543Z" fill="#FFD262" stroke="#222222" stroke-miterlimit="10" stroke-linecap="round" stroke-linejoin="round"/>
<path d="M37.9441 42.3464C37.2747 42.1232 36.8183 41.4842 36.8183 40.7742V34.0901H33.0147V40.7742C33.0147 41.4842 32.5684 42.1131 31.8889 42.3464C30.5094 42.8129 28.2171 43.8475 27 45.8558L34.9114 48.4727L42.8229 45.8558C41.6159 43.8577 39.3134 42.8129 37.9441 42.3464Z" fill="#FFF2D7" stroke="#222222" stroke-miterlimit="10" stroke-linecap="round" stroke-linejoin="round"/>
<path d="M40.8043 31.879L40.5812 28.0856C45.8352 27.7813 49.6083 25.6614 51.8093 21.797C52.641 20.3364 53.0975 18.8657 53.3409 17.75H46.3829V13.9464H55.5317C56.049 13.9464 56.5359 14.1493 56.8909 14.5246C57.2459 14.8897 57.4386 15.3867 57.4285 15.904C57.4285 16.0561 57.2966 19.7278 55.197 23.5213C53.2293 27.0713 49.1316 31.3921 40.8043 31.879Z" fill="#FFF2D7" stroke="#222222" stroke-miterlimit="10" stroke-linecap="round" stroke-linejoin="round"/>
<path d="M29.0387 31.879L29.2619 28.0856C24.0079 27.7813 20.2347 25.6614 18.0337 21.797C17.202 20.3364 16.7456 18.8657 16.5021 17.75H23.4601V13.9464H14.3113C13.794 13.9464 13.3071 14.1493 12.9521 14.5246C12.5971 14.8897 12.4044 15.3867 12.4146 15.904C12.4146 16.0561 12.5464 19.7278 14.646 23.5213C16.6036 27.0713 20.7013 31.3921 29.0387 31.879Z" fill="#FFF2D7" stroke="#222222" stroke-miterlimit="10" stroke-linecap="round" stroke-linejoin="round"/>
<path d="M49.4463 12.3438L34.9217 10.2341L20.387 12.3438C20.387 12.3438 20.103 28.826 31.6557 35.3884C33.6741 36.5346 36.149 36.5346 38.1775 35.3884C49.7303 28.826 49.4463 12.3438 49.4463 12.3438Z" fill="#FFF2D7" stroke="#222222" stroke-miterlimit="10" stroke-linecap="round" stroke-linejoin="round"/>
<path d="M49.4461 8.11426H20.3868C19.2204 8.11426 18.2771 9.05754 18.2771 10.224C18.2771 11.3904 19.2204 12.3337 20.3868 12.3337H49.4461C50.6125 12.3337 51.5558 11.3904 51.5558 10.224C51.5558 9.05754 50.6125 8.11426 49.4461 8.11426Z" fill="#FFF2D7" stroke="#222222" stroke-miterlimit="10" stroke-linecap="round" stroke-linejoin="round"/>
<path d="M41.3523 22.0404C41.8797 21.5333 41.5856 20.6407 40.8654 20.5291L37.7718 20.0828C37.4878 20.0423 37.2343 19.8597 37.1024 19.596L35.7128 16.7864C35.3883 16.1271 34.4551 16.1271 34.1306 16.7864L32.741 19.596C32.6091 19.8597 32.3657 20.0423 32.0716 20.0828L28.978 20.5291C28.2477 20.6305 27.9637 21.5231 28.4911 22.0404L30.7327 24.2211C30.9457 24.424 31.037 24.7181 30.9863 25.0021L30.4588 28.0855C30.3371 28.8057 31.0978 29.3635 31.7368 29.0187L34.5058 27.5581C34.7594 27.4263 35.0738 27.4263 35.3274 27.5581L38.0964 29.0187C38.7456 29.3635 39.5063 28.8057 39.3846 28.0855L38.8571 25.0021C38.8064 24.7181 38.9078 24.424 39.1107 24.2211L41.3523 22.0404Z" fill="#FFD262" stroke="#222222" stroke-miterlimit="10"/>
<path d="M46.2612 45.8558H23.5818C22.9022 45.8558 22.3444 46.4036 22.3444 47.0933V51.7793C22.3444 52.4588 22.8921 53.0167 23.5818 53.0167H46.2612C46.9408 53.0167 47.4986 52.469 47.4986 51.7793V47.0933C47.4885 46.4137 46.9408 45.8558 46.2612 45.8558Z" fill="#8CA2EA" stroke="#222222" stroke-miterlimit="10"/>
<path d="M25.9654 51.7793V47.0933C25.9654 46.4137 26.5131 45.8558 27.2028 45.8558H23.5818C22.9022 45.8558 22.3444 46.4036 22.3444 47.0933V51.7793C22.3444 52.4588 22.8921 53.0167 23.5818 53.0167H27.2028C26.5232 53.0066 25.9654 52.4588 25.9654 51.7793Z" fill="#677AC7" stroke="#222222" stroke-miterlimit="10"/>
<path d="M63.129 71H20.1436C19.3728 71 18.7439 70.3711 18.7439 69.6003V63.4233C18.7439 62.6524 19.3728 62.0236 20.1436 62.0236H63.129C63.8999 62.0236 64.5288 62.6524 64.5288 63.4233V69.6003C64.5288 70.3711 63.91 71 63.129 71Z" fill="#FFD262" stroke="#222222" stroke-miterlimit="10" stroke-linecap="round" stroke-linejoin="round"/>
<path d="M31.0675 62.0236H26.0975V71H31.0675V62.0236Z" fill="#8CA2EA" stroke="#222222" stroke-miterlimit="10"/>
<path d="M57.6519 62.0236H52.6819V71H57.6519V62.0236Z" fill="#8CA2EA" stroke="#222222" stroke-miterlimit="10"/>
<path d="M52.3876 62.0236H9.40216C8.6313 62.0236 8.00244 61.3947 8.00244 60.6238V54.4468C8.00244 53.676 8.6313 53.0471 9.40216 53.0471H52.3876C53.1584 53.0471 53.7873 53.676 53.7873 54.4468V60.6238C53.7974 61.3947 53.1686 62.0236 52.3876 62.0236Z" fill="white" stroke="#222222" stroke-miterlimit="10" stroke-linecap="round" stroke-linejoin="round"/>
<path d="M16.6136 57.5303H53.2902" stroke="#222222" stroke-miterlimit="10" stroke-linecap="round" stroke-linejoin="round"/>
</g>
<defs>
<clipPath id="clip0">
<rect width="71" height="71" fill="white"/>
</clipPath>
</defs>
</svg>
