<svg width="71" height="71" viewBox="0 0 71 71" fill="none" xmlns="http://www.w3.org/2000/svg">
<g clip-path="url(#clip0)">
<path d="M11.4412 55.7654H55.309C59.0112 55.7654 62.0033 52.7631 62.0033 49.0711C62.0033 45.3791 59.001 42.3768 55.309 42.3768H11.4412V55.7654Z" fill="#677AC7" stroke="#222222" stroke-miterlimit="10" stroke-linecap="round" stroke-linejoin="round"/>
<path d="M45.9674 49.061C45.9674 45.3588 42.9652 42.3667 39.2732 42.3667H11.4412V55.7553H39.263C42.9652 55.7654 45.9674 52.7631 45.9674 49.061Z" fill="white" stroke="#222222" stroke-miterlimit="10" stroke-linecap="round" stroke-linejoin="round"/>
<path d="M57.5099 71H8.32715V55.7654H57.5099C61.7191 55.7654 65.1271 59.1734 65.1271 63.3827C65.1271 67.592 61.7191 71 57.5099 71Z" fill="#677AC7" stroke="#222222" stroke-miterlimit="10" stroke-linecap="round" stroke-linejoin="round"/>
<path d="M35.3477 71H8.32715V55.7654H35.3376C39.5469 55.7654 42.9549 59.1734 42.9549 63.3827C42.965 67.592 39.5469 71 35.3477 71Z" fill="white" stroke="#222222" stroke-miterlimit="10" stroke-linecap="round" stroke-linejoin="round"/>
<path d="M47.4076 32.2847H26.0771V42.4275L36.8387 45.4197L47.3974 42.4275V32.2847H47.4076Z" fill="#FFD262" stroke="#222222" stroke-miterlimit="10" stroke-linecap="round" stroke-linejoin="round"/>
<path d="M56.0189 28.3594L36.7475 36.3926L17.4761 28.3594L36.7475 20.3263L56.0189 28.3594Z" fill="#FFD262" stroke="#222222" stroke-miterlimit="10" stroke-linecap="round" stroke-linejoin="round"/>
<path d="M36.7373 28.3594H56.0189V34.4654" stroke="#222222" stroke-miterlimit="10" stroke-linecap="round" stroke-linejoin="round"/>
<path d="M11.4412 49.061H28.7043" stroke="#222222" stroke-miterlimit="10" stroke-linecap="round" stroke-linejoin="round"/>
<path d="M8.32715 60.8369H23.156" stroke="#222222" stroke-miterlimit="10" stroke-linecap="round" stroke-linejoin="round"/>
<path d="M8.32715 65.9185H35.3477" stroke="#222222" stroke-miterlimit="10" stroke-linecap="round" stroke-linejoin="round"/>
<path d="M71.0002 14.7274H69.4788" stroke="#222222" stroke-miterlimit="10" stroke-linecap="round" stroke-linejoin="round"/>
<path d="M67.4501 14.7274H65.9287" stroke="#222222" stroke-miterlimit="10" stroke-linecap="round" stroke-linejoin="round"/>
<path d="M68.4644 12.1917V13.7131" stroke="#222222" stroke-miterlimit="10" stroke-linecap="round" stroke-linejoin="round"/>
<path d="M68.4644 15.7417V17.2631" stroke="#222222" stroke-miterlimit="10" stroke-linecap="round" stroke-linejoin="round"/>
<path d="M5.07148 27.9131H3.55005" stroke="#222222" stroke-miterlimit="10" stroke-linecap="round" stroke-linejoin="round"/>
<path d="M1.52143 27.9131H0" stroke="#222222" stroke-miterlimit="10" stroke-linecap="round" stroke-linejoin="round"/>
<path d="M2.53564 25.3774V26.8989" stroke="#222222" stroke-miterlimit="10" stroke-linecap="round" stroke-linejoin="round"/>
<path d="M2.53564 28.9275V30.4489" stroke="#222222" stroke-miterlimit="10" stroke-linecap="round" stroke-linejoin="round"/>
<path d="M39.5469 3.85429C39.5469 3.85429 42.6404 3.08343 43.2084 0C43.2084 0 44.2734 3.87457 47.2149 3.85429C47.2149 3.85429 43.4316 4.28028 43.2084 8.11428C43.2084 8.11428 43.4113 4.29043 39.5469 3.85429Z" fill="#FFD262" stroke="#222222" stroke-miterlimit="10" stroke-linecap="round" stroke-linejoin="round"/>
</g>
<defs>
<clipPath id="clip0">
<rect width="71" height="71" fill="white"/>
</clipPath>
</defs>
</svg>
