<svg width="71" height="71" viewBox="0 0 71 71" fill="none" xmlns="http://www.w3.org/2000/svg">
<g clip-path="url(#clip0)">
<path d="M59.863 60.2282C59.295 58.646 57.8547 57.368 55.9783 57.013C54.112 56.6478 52.3066 57.297 51.2112 58.5547C51.7792 60.137 53.2195 61.415 55.0959 61.77C56.9622 62.1351 58.7676 61.486 59.863 60.2282Z" fill="#FFF2D7" stroke="#222222" stroke-miterlimit="10"/>
<path d="M67.8353 49.0812C66.5573 48.0264 64.6707 47.6815 62.8856 48.351C61.1004 49.0204 59.8731 50.5215 59.5688 52.1748C60.8468 53.2297 62.7334 53.5745 64.5186 52.9051C66.3138 52.2255 67.531 50.7244 67.8353 49.0812Z" fill="#FFF2D7" stroke="#222222" stroke-miterlimit="10"/>
<path d="M70.5537 34.4654C68.9105 34.3842 67.1863 35.2362 66.1314 36.849C65.0765 38.4617 64.9548 40.4091 65.6547 41.9305C67.2978 42.0117 69.0221 41.1597 70.077 39.547C71.142 37.9342 71.2637 35.9868 70.5537 34.4654Z" fill="#FFF2D7" stroke="#222222" stroke-miterlimit="10"/>
<path d="M68.0483 20.8334C66.5371 21.4927 65.3503 23.0242 65.0968 24.9514C64.8331 26.8785 65.5634 28.6839 66.8414 29.7388C68.3526 29.0795 69.5394 27.5479 69.7929 25.6208C70.0566 23.6937 69.3365 21.8781 68.0483 20.8334Z" fill="#FFF2D7" stroke="#222222" stroke-miterlimit="10"/>
<path d="M62.0337 9.12854C60.7963 10.2443 60.1573 12.0801 60.5123 13.9971C60.8673 15.904 62.1148 17.3848 63.6565 17.963C64.894 16.8473 65.533 15.0114 65.178 13.0944C64.823 11.1875 63.5754 9.70668 62.0337 9.12854Z" fill="#FFF2D7" stroke="#222222" stroke-miterlimit="10"/>
<path d="M52.8544 49.7203C51.3127 50.2984 50.055 51.7691 49.7 53.6861C49.345 55.593 49.984 57.439 51.2112 58.5547C52.753 57.9766 54.0107 56.5058 54.3657 54.5888C54.7207 52.682 54.0918 50.836 52.8544 49.7203Z" fill="#FFF2D7" stroke="#222222" stroke-miterlimit="10"/>
<path d="M56.536 43.736C55.5014 45.0444 55.1667 46.9614 55.826 48.7871C56.4853 50.6128 57.956 51.8604 59.5687 52.1647C60.6033 50.8563 60.938 48.9393 60.2787 47.1135C59.6296 45.298 58.1487 44.0504 56.536 43.736Z" fill="#FFF2D7" stroke="#222222" stroke-miterlimit="10"/>
<path d="M58.3415 36.9403C58.2604 38.6138 59.1023 40.3686 60.6845 41.4539C62.2668 42.5391 64.1737 42.6609 65.6647 41.9407C65.7458 40.2671 64.904 38.5124 63.3217 37.4271C61.7394 36.3419 59.8325 36.2201 58.3415 36.9403Z" fill="#FFF2D7" stroke="#222222" stroke-miterlimit="10"/>
<path d="M58.1185 28.5014C58.7575 30.0431 60.2688 31.2501 62.1554 31.5138C64.042 31.7775 65.817 31.0371 66.8414 29.7287C66.2024 28.1768 64.6911 26.98 62.8045 26.7162C60.918 26.4525 59.1531 27.193 58.1185 28.5014Z" fill="#FFF2D7" stroke="#222222" stroke-miterlimit="10"/>
<path d="M55.0045 19.6162C56.0999 20.8739 57.8952 21.5231 59.7717 21.1681C61.6379 20.8131 63.0884 19.5351 63.6564 17.9528C62.5609 16.6951 60.7657 16.0459 58.8892 16.4009C57.0229 16.7661 55.5725 18.0441 55.0045 19.6162Z" fill="#FFF2D7" stroke="#222222" stroke-miterlimit="10"/>
<path d="M11.1368 60.2282C11.7048 58.646 13.1451 57.368 15.0216 57.013C16.8878 56.6478 18.6933 57.297 19.7887 58.5547C19.2207 60.137 17.7804 61.415 15.904 61.77C14.0377 62.1351 12.2323 61.486 11.1368 60.2282Z" fill="#FFF2D7" stroke="#222222" stroke-miterlimit="10"/>
<path d="M18.1456 49.7203C19.6873 50.2984 20.945 51.7691 21.3 53.6861C21.655 55.593 21.016 57.439 19.7887 58.5547C18.247 57.9766 16.9893 56.5058 16.6343 54.5888C16.2793 52.682 16.9081 50.836 18.1456 49.7203Z" fill="#FFF2D7" stroke="#222222" stroke-miterlimit="10"/>
<path d="M3.16443 49.0812C4.44243 48.0264 6.329 47.6815 8.11414 48.351C9.89929 49.0204 11.1266 50.5215 11.4309 52.1748C10.1529 53.2297 8.26629 53.5745 6.48114 52.9051C4.68586 52.2255 3.46871 50.7244 3.16443 49.0812Z" fill="#FFF2D7" stroke="#222222" stroke-miterlimit="10"/>
<path d="M14.4636 43.736C15.4982 45.0444 15.8329 46.9614 15.1736 48.7871C14.5143 50.6128 13.0436 51.8604 11.4309 52.1647C10.3963 50.8563 10.0616 48.9393 10.7209 47.1135C11.3701 45.298 12.8509 44.0504 14.4636 43.736Z" fill="#FFF2D7" stroke="#222222" stroke-miterlimit="10"/>
<path d="M0.44625 34.4654C2.08939 34.3842 3.81368 35.2362 4.86854 36.849C5.92339 38.4617 6.04511 40.4091 5.34525 41.9305C3.70211 42.0117 1.97782 41.1597 0.922964 39.547C-0.142036 37.9342 -0.26375 35.9868 0.44625 34.4654Z" fill="#FFF2D7" stroke="#222222" stroke-miterlimit="10"/>
<path d="M12.6582 36.9403C12.7394 38.6138 11.8975 40.3686 10.3152 41.4539C8.73293 42.529 6.82608 42.6609 5.33508 41.9407C5.25393 40.2671 6.09579 38.5124 7.67808 37.4271C9.26036 36.3419 11.1672 36.2201 12.6582 36.9403Z" fill="#FFF2D7" stroke="#222222" stroke-miterlimit="10"/>
<path d="M2.95159 20.8334C4.46287 21.4927 5.64959 23.0242 5.90316 24.9514C6.16687 26.8785 5.43659 28.6839 4.15859 29.7388C2.6473 29.0795 1.46059 27.5479 1.20702 25.6208C0.943301 23.6937 1.66344 21.8781 2.95159 20.8334Z" fill="#FFF2D7" stroke="#222222" stroke-miterlimit="10"/>
<path d="M12.8815 28.5014C12.2425 30.0431 10.7313 31.2501 8.84469 31.5138C6.95812 31.7775 5.18312 31.0371 4.15869 29.7287C4.79769 28.1768 6.30898 26.98 8.19555 26.7162C10.0821 26.4525 11.847 27.193 12.8815 28.5014Z" fill="#FFF2D7" stroke="#222222" stroke-miterlimit="10"/>
<path d="M8.96612 9.12854C10.2036 10.2443 10.8426 12.0801 10.4876 13.9971C10.1326 15.904 8.88498 17.3848 7.34326 17.963C6.10584 16.8473 5.46684 15.0114 5.82184 13.0944C6.17684 11.1875 7.42441 9.70668 8.96612 9.12854Z" fill="#FFF2D7" stroke="#222222" stroke-miterlimit="10"/>
<path d="M15.9952 19.6162C14.8998 20.8739 13.1045 21.5231 11.2281 21.1681C9.36181 20.8131 7.91138 19.5351 7.34338 17.9528C8.43881 16.6951 10.2341 16.0459 12.1105 16.4009C13.9768 16.7661 15.4272 18.0441 15.9952 19.6162Z" fill="#FFF2D7" stroke="#222222" stroke-miterlimit="10"/>
<path d="M46.4543 40.9569C47.1948 40.1961 47.1948 38.9689 46.4543 38.2081C47.1948 38.9689 48.4018 38.9689 49.1422 38.2081C49.8826 37.4474 49.8826 36.2201 49.1422 35.4594L44.0403 23.8459L37.1736 23.0953C33.0861 18.9266 26.4019 18.9266 22.3143 23.0953C18.2268 27.264 18.2268 34.0293 22.3143 38.198L24.9312 40.9569L31.7776 36.9606L39.7296 45.0749L41.0786 43.7056C41.819 44.4663 43.0261 44.4663 43.7665 43.7056C44.5069 42.9449 44.5069 41.7176 43.7665 40.9569C44.5069 41.7074 45.7139 41.7074 46.4543 40.9569Z" fill="white" stroke="#222222" stroke-miterlimit="10" stroke-linecap="round" stroke-linejoin="round"/>
<path d="M25.0935 41.1293C24.2618 40.2773 24.2618 38.8979 25.0935 38.0357L28.7957 34.2626C29.6274 33.4106 30.9865 33.4106 31.8182 34.2626C32.6499 35.1146 32.6499 36.494 31.8182 37.3562L31.4531 40.47L28.1161 41.1293C27.2844 41.9813 25.9354 41.9813 25.0935 41.1293Z" fill="#FFD262" stroke="#222222" stroke-miterlimit="10" stroke-linecap="round" stroke-linejoin="round"/>
<path d="M28.1261 44.2127C27.2944 43.3607 27.2944 41.9813 28.1261 41.1192L31.8282 37.346C32.66 36.494 34.0191 36.494 34.8508 37.346C35.6825 38.198 35.6825 39.5775 34.8508 40.4396L34.4857 43.5535L31.1487 44.2127C30.317 45.0647 28.9578 45.0647 28.1261 44.2127Z" fill="#FFD262" stroke="#222222" stroke-miterlimit="10" stroke-linecap="round" stroke-linejoin="round"/>
<path d="M31.1487 47.3063C30.317 46.4543 30.317 45.0749 31.1487 44.2127L34.8508 40.4396C35.6825 39.5876 37.0417 39.5876 37.8734 40.4396C38.7051 41.2916 38.7051 42.671 37.8734 43.5332L37.4271 46.7383L34.1713 47.3063C33.3395 48.1583 31.9804 48.1583 31.1487 47.3063Z" fill="#FFD262" stroke="#222222" stroke-miterlimit="10" stroke-linecap="round" stroke-linejoin="round"/>
<path d="M34.1713 50.3897C33.3396 49.5377 33.3396 48.1583 34.1713 47.2962L37.8734 43.523C38.7051 42.671 40.0643 42.671 40.896 43.523C41.7277 44.375 41.7277 45.7545 40.896 46.6166L37.1938 50.3897C36.3621 51.2417 35.0131 51.2417 34.1713 50.3897Z" fill="#FFD262" stroke="#222222" stroke-miterlimit="10" stroke-linecap="round" stroke-linejoin="round"/>
<path d="M49.2436 22.5273C45.8965 19.1193 40.3788 19.1193 37.0418 22.5273L30.317 29.9722C29.5766 30.7329 29.5766 31.9602 30.317 32.7209C31.0575 33.4816 32.2645 33.4816 33.0049 32.7209L41.0786 27.2336L49.1523 35.4696C52.4893 32.0515 52.5806 25.9353 49.2436 22.5273Z" fill="#FFD262" stroke="#222222" stroke-miterlimit="10" stroke-linecap="round" stroke-linejoin="round"/>
</g>
<defs>
<clipPath id="clip0">
<rect width="71" height="71" fill="white"/>
</clipPath>
</defs>
</svg>
