<svg width="71" height="71" viewBox="0 0 71 71" fill="none" xmlns="http://www.w3.org/2000/svg">
<g clip-path="url(#clip0)">
<path d="M19.2715 2.89071C19.2715 2.89071 21.7261 2.31257 22.1825 0C22.1825 0 23.0345 2.90086 25.3572 2.89071C25.3572 2.89071 22.3549 3.21529 22.1825 6.08571C22.1825 6.08571 22.3346 3.21529 19.2715 2.89071Z" fill="#FFD262" stroke="#222222" stroke-miterlimit="10" stroke-linecap="round" stroke-linejoin="round"/>
<path d="M51.5764 13.1857V56.9014H16.3299C12.4351 56.9014 9.28064 60.0559 9.28064 63.9507V20.235C9.28064 16.3402 12.4351 13.1857 16.3299 13.1857H51.5764Z" fill="#FFF2D7" stroke="#222222" stroke-miterlimit="10" stroke-linecap="round" stroke-linejoin="round"/>
<path d="M48.0568 63.9507C48.0568 67.8456 49.6391 71 51.5866 71H16.543C13.0133 71 9.84869 68.4947 9.35169 64.9954C8.72284 60.634 12.0903 56.9014 16.33 56.9014H51.5866C49.629 56.9014 48.0568 60.0559 48.0568 63.9507Z" fill="white" stroke="#222222" stroke-miterlimit="10" stroke-linecap="round" stroke-linejoin="round"/>
<path d="M30.4286 21.2189C26.0063 21.2189 21.9086 23.9067 20.4785 28.0957C17.9428 35.5304 23.4301 42.4377 30.5301 42.3769C36.0883 42.3262 40.7743 37.7923 40.9975 32.234C41.2308 26.1889 36.4129 21.229 30.4286 21.2189Z" fill="#FFD262" stroke="#222222" stroke-miterlimit="10" stroke-linecap="round" stroke-linejoin="round"/>
<path d="M16.2894 63.9507H48.0569" stroke="#222222" stroke-miterlimit="10" stroke-linecap="round" stroke-linejoin="round"/>
<path d="M29.455 33.0759C30.5922 33.0759 31.514 31.6908 31.514 29.9823C31.514 28.2738 30.5922 26.8887 29.455 26.8887C28.3178 26.8887 27.396 28.2738 27.396 29.9823C27.396 31.6908 28.3178 33.0759 29.455 33.0759Z" fill="white"/>
<path d="M30.3476 30.8343C30.9189 30.8343 31.3821 30.144 31.3821 29.2926C31.3821 28.4411 30.9189 27.7509 30.3476 27.7509C29.7762 27.7509 29.313 28.4411 29.313 29.2926C29.313 30.144 29.7762 30.8343 30.3476 30.8343Z" fill="#222222"/>
<path d="M34.9422 33.0759C36.0793 33.0759 37.0012 31.6908 37.0012 29.9823C37.0012 28.2738 36.0793 26.8887 34.9422 26.8887C33.805 26.8887 32.8832 28.2738 32.8832 29.9823C32.8832 31.6908 33.805 33.0759 34.9422 33.0759Z" fill="white"/>
<path d="M35.8346 30.8343C36.406 30.8343 36.8692 30.144 36.8692 29.2926C36.8692 28.4411 36.406 27.7509 35.8346 27.7509C35.2632 27.7509 34.8 28.4411 34.8 29.2926C34.8 30.144 35.2632 30.8343 35.8346 30.8343Z" fill="#222222"/>
<path d="M27.5278 34.7089L32.863 36.707L36.8694 34.79" stroke="#222222" stroke-miterlimit="10" stroke-linecap="round" stroke-linejoin="round"/>
<path d="M27.9437 34.0293L26.8381 35.1247" stroke="#222222" stroke-miterlimit="10" stroke-linecap="round" stroke-linejoin="round"/>
<path d="M36.4536 34.0293L37.5592 35.1247" stroke="#222222" stroke-miterlimit="10" stroke-linecap="round" stroke-linejoin="round"/>
<path d="M5.07148 31.95H3.55005" stroke="#222222" stroke-miterlimit="10" stroke-linecap="round" stroke-linejoin="round"/>
<path d="M1.52143 31.95H0" stroke="#222222" stroke-miterlimit="10" stroke-linecap="round" stroke-linejoin="round"/>
<path d="M2.53577 29.4143V30.9357" stroke="#222222" stroke-miterlimit="10" stroke-linecap="round" stroke-linejoin="round"/>
<path d="M2.53577 32.9643V34.4857" stroke="#222222" stroke-miterlimit="10" stroke-linecap="round" stroke-linejoin="round"/>
<path d="M61.8715 11.1571H60.0458" stroke="#222222" stroke-miterlimit="10" stroke-linecap="round" stroke-linejoin="round"/>
<path d="M57.6116 11.1571H55.7859" stroke="#222222" stroke-miterlimit="10" stroke-linecap="round" stroke-linejoin="round"/>
<path d="M58.8287 8.11426V9.93997" stroke="#222222" stroke-miterlimit="10" stroke-linecap="round" stroke-linejoin="round"/>
<path d="M58.8287 12.3743V14.2" stroke="#222222" stroke-miterlimit="10" stroke-linecap="round" stroke-linejoin="round"/>
<path d="M46.6064 39.4456L64.681 21.371C66.1314 19.9206 68.4744 19.9206 69.9147 21.371C71.355 22.8215 71.355 25.1645 69.9147 26.6047L51.8401 44.6793L42.6 48.6857L46.6064 39.4456Z" fill="#8CA2EA" stroke="#222222" stroke-miterlimit="10" stroke-linecap="round" stroke-linejoin="round"/>
<path d="M42.5999 48.6858L51.84 44.6793L46.6063 39.4456L42.5999 48.6858Z" fill="white" stroke="#222222" stroke-miterlimit="10" stroke-linecap="round" stroke-linejoin="round"/>
<path d="M68.1193 28.4L69.9146 26.6047C71.3651 25.1543 71.3651 22.8113 69.9146 21.371C68.4642 19.9206 66.1212 19.9206 64.6809 21.371L62.8856 23.1663L68.1193 28.4Z" fill="#FFD262" stroke="#222222" stroke-miterlimit="10" stroke-linecap="round" stroke-linejoin="round"/>
</g>
<defs>
<clipPath id="clip0">
<rect width="71" height="71" fill="white"/>
</clipPath>
</defs>
</svg>
