<svg width="71" height="71" viewBox="0 0 71 71" fill="none" xmlns="http://www.w3.org/2000/svg">
<g clip-path="url(#clip0)">
<path d="M62.5916 68.302H38.34C38.34 69.793 37.1026 71 35.571 71C34.0395 71 32.802 69.793 32.802 68.302H8.54031C7.77959 68.302 7.17102 67.7036 7.17102 66.9632V55.4916C7.17102 54.6294 7.91145 53.96 8.79388 53.9904C18.7035 54.3962 28.1059 58.4837 35.0436 65.4417L35.5812 65.9793L36.1187 65.4417C43.4115 58.1084 53.463 53.96 63.971 53.96V66.9733C63.971 67.7036 63.3523 68.302 62.5916 68.302Z" fill="#677AC7" stroke="#222222" stroke-miterlimit="10" stroke-linecap="round" stroke-linejoin="round"/>
<path d="M63.9709 53.96C53.4629 53.96 43.4113 58.1084 36.1085 65.4519L35.5709 65.9894L44.3851 63.2407C50.5519 61.3136 56.9926 60.3399 63.4638 60.3399C63.4638 60.3399 63.6565 60.4312 63.9608 60.5427V53.96H63.9709Z" fill="white" stroke="#222222" stroke-miterlimit="10" stroke-linecap="round" stroke-linejoin="round"/>
<path d="M7.17102 53.96V60.2587L7.66802 60.3297C14.1493 60.3297 20.5799 61.3136 26.7467 63.2306L35.5609 65.9793L35.0233 65.4417C27.7204 58.1084 17.6689 53.96 7.17102 53.96Z" fill="white" stroke="#222222" stroke-miterlimit="10" stroke-linecap="round" stroke-linejoin="round"/>
<path d="M32.4574 4.05713H30.0231" stroke="#222222" stroke-miterlimit="10" stroke-linecap="round" stroke-linejoin="round"/>
<path d="M26.7773 4.05713H24.343" stroke="#222222" stroke-miterlimit="10" stroke-linecap="round" stroke-linejoin="round"/>
<path d="M28.4001 0V2.43429" stroke="#222222" stroke-miterlimit="10" stroke-linecap="round" stroke-linejoin="round"/>
<path d="M28.4001 5.67999V8.11428" stroke="#222222" stroke-miterlimit="10" stroke-linecap="round" stroke-linejoin="round"/>
<path d="M46.637 31.6964C46.637 25.7223 41.8901 20.8537 35.9464 20.6509C29.4347 20.4277 24.0894 25.9251 24.5053 32.4064C24.7081 35.571 26.2498 38.3704 28.5624 40.257C30.1041 41.5147 31.1793 43.2491 31.5444 45.2067H39.5674C39.9224 43.2593 40.9874 41.5147 42.5291 40.2671C45.0446 38.2487 46.637 35.1551 46.637 31.6964Z" fill="#FFD262" stroke="#222222" stroke-miterlimit="10" stroke-linecap="round" stroke-linejoin="round"/>
<path d="M39.5777 45.2067H31.5547V51.0693H39.5777V45.2067Z" fill="#FFF2D7" stroke="#222222" stroke-miterlimit="10" stroke-linecap="round" stroke-linejoin="round"/>
<path d="M37.4478 32.6397C37.7926 32.8629 37.9955 33.2483 38.0056 33.654" stroke="#222222" stroke-miterlimit="10" stroke-linecap="round" stroke-linejoin="round"/>
<path d="M36.0682 37.5184C35.7842 37.772 35.3379 37.772 35.0539 37.5184L35.0134 37.488C33.0355 35.7738 31.7474 34.6581 31.7981 33.2584C31.8184 32.6498 32.1531 32.0616 32.6805 31.7167C33.6745 31.0676 34.9018 31.3718 35.5611 32.1123C36.2204 31.3718 37.4477 31.0574 38.4417 31.7167C38.9691 32.0616 39.3038 32.6498 39.3241 33.2584C39.3748 34.6581 38.0867 35.7738 36.1088 37.4981C36.1088 37.4778 36.0682 37.5184 36.0682 37.5184Z" fill="white" stroke="#222222" stroke-miterlimit="10"/>
<path d="M35.5712 37.701V45.2067" stroke="#222222" stroke-miterlimit="10" stroke-linecap="round" stroke-linejoin="round"/>
<path d="M69.6308 10.1936C69.6308 13.0234 67.3385 15.3157 64.5086 15.3157C61.6788 15.3157 59.3865 13.0234 59.3865 10.1936C59.3865 7.3637 61.6788 5.07141 64.5086 5.07141C67.3385 5.07141 69.6308 7.3637 69.6308 10.1936Z" fill="#FFF2D7" stroke="#222222" stroke-miterlimit="10" stroke-linecap="round" stroke-linejoin="round"/>
<path d="M61.263 14.1492L58.1694 17.2428" stroke="#222222" stroke-miterlimit="10" stroke-linecap="round" stroke-linejoin="round"/>
<path d="M16.2286 16.2285C16.2286 20.1538 13.0539 23.3285 9.12856 23.3285C5.20328 23.3285 2.02856 20.1538 2.02856 16.2285C2.02856 12.3033 5.20328 9.12854 9.12856 9.12854C13.0539 9.12854 16.2286 12.3033 16.2286 16.2285Z" fill="#FFD262" stroke="#222222" stroke-miterlimit="10" stroke-linecap="round" stroke-linejoin="round"/>
<path d="M11.857 16.2285C11.857 12.3033 10.6399 9.12854 9.12858 9.12854C7.61729 9.12854 6.40015 12.3033 6.40015 16.2285C6.40015 20.1538 7.61729 23.3285 9.12858 23.3285C10.6399 23.3285 11.857 20.1538 11.857 16.2285Z" fill="#FFF2D7" stroke="#222222" stroke-miterlimit="10" stroke-linecap="round" stroke-linejoin="round"/>
<path d="M2.02856 16.2285H16.2286" stroke="#222222" stroke-miterlimit="10" stroke-linecap="round" stroke-linejoin="round"/>
<path d="M0 29.4143L12.1714 45.6429" stroke="#222222" stroke-miterlimit="10" stroke-linecap="round" stroke-linejoin="round"/>
<path d="M71 29.4143L58.8286 45.6429" stroke="#222222" stroke-miterlimit="10" stroke-linecap="round" stroke-linejoin="round"/>
</g>
<defs>
<clipPath id="clip0">
<rect width="71" height="71" fill="white"/>
</clipPath>
</defs>
</svg>
