<svg width="71" height="71" viewBox="0 0 71 71" fill="none" xmlns="http://www.w3.org/2000/svg">
<g clip-path="url(#clip0)">
<path d="M20.093 2.89071C20.093 2.89071 22.4157 2.31257 22.8519 0C22.8519 0 23.6532 2.911 25.8643 2.89071C25.8643 2.89071 23.0243 3.21529 22.8519 6.09586C22.8417 6.09586 22.9939 3.22543 20.093 2.89071Z" fill="#FFD262" stroke="#222222" stroke-miterlimit="10" stroke-linecap="round" stroke-linejoin="round"/>
<path d="M8.48975 71L16.462 60.9788C16.462 60.9788 20.1033 60.3094 25.2052 58.646C33.3195 56.0088 34.8612 61.1513 34.8612 61.1513C34.8612 61.1513 36.4029 56.0088 44.5172 58.646C49.6292 60.3094 53.2603 60.9788 53.2603 60.9788L61.2326 71H8.48975Z" stroke="#222222" stroke-miterlimit="10" stroke-linecap="round" stroke-linejoin="round"/>
<path d="M53.9294 56.7899L70.6246 45.1053" stroke="#222222" stroke-miterlimit="10" stroke-linecap="round" stroke-linejoin="round"/>
<path d="M0 45.1154L16.6951 56.8" stroke="#222222" stroke-miterlimit="10" stroke-linecap="round" stroke-linejoin="round"/>
<path d="M59.1229 68.3527L58.5143 67.6529C58.5143 67.6529 53.8385 66.7907 47.2659 64.6506C36.8289 61.2527 34.8612 67.876 34.8612 67.876C34.8612 67.876 32.8833 61.2527 22.4565 64.6506C15.8839 66.7907 11.208 67.6529 11.208 67.6529L10.9747 67.876L8.48975 71H61.2326L59.1229 68.3527Z" fill="#8CA2EA" stroke="#222222" stroke-miterlimit="10" stroke-linecap="round" stroke-linejoin="round"/>
<path d="M34.8611 61.1513V71" stroke="#222222" stroke-miterlimit="10" stroke-linecap="round" stroke-linejoin="round"/>
<path d="M9.7574 18.6324H7.44482" stroke="#222222" stroke-miterlimit="10" stroke-linecap="round" stroke-linejoin="round"/>
<path d="M4.3614 18.6324H2.04883" stroke="#222222" stroke-miterlimit="10" stroke-linecap="round" stroke-linejoin="round"/>
<path d="M5.90332 14.7781V17.0907" stroke="#222222" stroke-miterlimit="10" stroke-linecap="round" stroke-linejoin="round"/>
<path d="M5.90332 20.1741V22.4867" stroke="#222222" stroke-miterlimit="10" stroke-linecap="round" stroke-linejoin="round"/>
<path d="M71.0001 29.9721H69.2656" stroke="#222222" stroke-miterlimit="10" stroke-linecap="round" stroke-linejoin="round"/>
<path d="M66.9532 29.9721H65.2188" stroke="#222222" stroke-miterlimit="10" stroke-linecap="round" stroke-linejoin="round"/>
<path d="M68.1096 27.0916V28.8158" stroke="#222222" stroke-miterlimit="10" stroke-linecap="round" stroke-linejoin="round"/>
<path d="M68.1096 31.1284V32.8628" stroke="#222222" stroke-miterlimit="10" stroke-linecap="round" stroke-linejoin="round"/>
<path d="M54.873 18.2165L59.6503 10.3051" stroke="#222222" stroke-miterlimit="10" stroke-linecap="round" stroke-linejoin="round"/>
<path d="M60.4919 8.91557L60.8875 8.25629" stroke="#222222" stroke-miterlimit="10" stroke-linecap="round" stroke-linejoin="round"/>
<path d="M33.928 53.4022C40.034 54.1223 44.4969 48.28 44.4969 48.28C44.4969 48.28 40.5614 49.2842 44.4969 48.28C48.4323 47.2759 53.3009 47.5802 54.9339 39.7397C56.5567 31.8993 48.1381 28.4102 48.1381 28.4102L47.3673 24.637C45.6633 22.0912 42.1539 21.2087 39.6283 21.2087C33.2079 21.2087 27.9437 26.1179 27.3757 32.3963C23.704 33.6337 21.8884 36.6969 21.8884 40.7743C21.8884 43.4825 23.4403 46.7282 25.2863 48.422C25.2761 48.4322 27.822 52.6719 33.928 53.4022Z" fill="#FFD262"/>
<path d="M48.1381 28.4101C47.5093 21.513 41.7177 16.117 34.6684 16.117C27.609 16.117 21.8174 21.513 21.1987 28.4101C17.1618 29.7693 14.261 33.583 14.261 38.0763C14.261 43.7157 18.8253 48.28 24.4647 48.28C24.5864 48.28 24.7081 48.28 24.8298 48.2699C26.9598 51.4243 30.5707 53.4934 34.6684 53.4934C38.7661 53.4934 42.3668 51.4243 44.507 48.2699C44.6287 48.2699 44.7504 48.28 44.8721 48.28C50.5116 48.28 55.0758 43.7157 55.0758 38.0763C55.0657 33.583 52.1648 29.7693 48.1381 28.4101Z" stroke="#222222" stroke-miterlimit="10" stroke-linecap="round" stroke-linejoin="round"/>
<path d="M31.3923 56.2928C30.9663 57.723 30.3476 58.8894 29.5159 59.8631C29.384 60.0254 29.3536 60.2486 29.4347 60.4311C29.526 60.6238 29.7086 60.7456 29.9216 60.7456H39.9833C40.1963 60.7456 40.3789 60.6238 40.4701 60.4311C40.5614 60.2384 40.531 60.0153 40.389 59.8631C38.33 57.4694 37.904 54.3454 37.6707 51.617C37.6099 50.9273 38.1677 49.6188 38.1677 49.6188L38.7357 48.7161L40.5006 45.9268C40.6223 45.7341 40.6831 45.511 40.6933 45.298C40.7034 44.943 40.5614 44.5778 40.2673 44.3243C39.7804 43.8983 39.0299 43.9287 38.5734 44.3851L37.2447 45.724L37.6809 42.529C37.7214 42.1943 37.6301 41.8494 37.4171 41.5857C37.2244 41.3524 36.9607 41.2003 36.6666 41.1496C36.626 41.1394 36.5854 41.1394 36.5449 41.1394L36.0681 41.109C35.8349 41.0887 35.6016 41.1496 35.4089 41.251C35.0843 41.4234 34.8409 41.7378 34.7699 42.1334L34.354 44.5068L33.9381 46.8803L31.3619 43.7056C31.2807 43.6041 31.1793 43.5128 31.0677 43.4418C31.0576 43.4317 31.0474 43.4317 31.0271 43.4216C30.8649 43.3303 30.6924 43.2694 30.5099 43.2593C30.4997 43.2593 30.4997 43.2593 30.4896 43.2593C30.4591 43.2593 30.4389 43.2593 30.4084 43.2593C30.2461 43.2593 30.0737 43.2897 29.9216 43.3506L29.4246 43.5636C29.0899 43.7056 28.8363 43.9794 28.7247 44.3243C28.6131 44.6691 28.6537 45.0343 28.8363 45.3487L30.946 48.8683C30.9257 48.848 32.6399 51.8503 31.3923 56.2928Z" fill="#FFF2D7" stroke="#222222" stroke-miterlimit="10" stroke-linecap="round" stroke-linejoin="round"/>
</g>
<defs>
<clipPath id="clip0">
<rect width="71" height="71" fill="white"/>
</clipPath>
</defs>
</svg>
