<svg width="71" height="71" viewBox="0 0 71 71" fill="none" xmlns="http://www.w3.org/2000/svg">
<g clip-path="url(#clip0)">
<path d="M19.7177 4.331C19.7177 4.331 23.1967 3.45871 23.8458 0C23.8458 0 25.0427 4.35129 28.3492 4.331C28.3492 4.331 24.0892 4.80771 23.8458 9.12857C23.8356 9.12857 24.0588 4.828 19.7177 4.331Z" fill="#FFD262" stroke="#222222" stroke-miterlimit="10" stroke-linecap="round" stroke-linejoin="round"/>
<path d="M49.4061 17.2225H47.0732" stroke="#222222" stroke-miterlimit="10" stroke-linecap="round" stroke-linejoin="round"/>
<path d="M43.9593 17.2225H41.6265" stroke="#222222" stroke-miterlimit="10" stroke-linecap="round" stroke-linejoin="round"/>
<path d="M45.5112 13.3277V15.6606" stroke="#222222" stroke-miterlimit="10" stroke-linecap="round" stroke-linejoin="round"/>
<path d="M45.5112 18.7744V21.1073" stroke="#222222" stroke-miterlimit="10" stroke-linecap="round" stroke-linejoin="round"/>
<path d="M6.08572 23.9473H4.26001" stroke="#222222" stroke-miterlimit="10" stroke-linecap="round" stroke-linejoin="round"/>
<path d="M1.82571 23.9473H0" stroke="#222222" stroke-miterlimit="10" stroke-linecap="round" stroke-linejoin="round"/>
<path d="M3.04285 20.9044V22.7301" stroke="#222222" stroke-miterlimit="10" stroke-linecap="round" stroke-linejoin="round"/>
<path d="M3.04285 25.1644V26.9901" stroke="#222222" stroke-miterlimit="10" stroke-linecap="round" stroke-linejoin="round"/>
<path d="M53.9803 71H11.9483C7.31305 71 3.55005 67.237 3.55005 62.6017V41.961C3.55005 37.3257 7.31305 33.5627 11.9483 33.5627H53.9905C58.6258 33.5627 62.3888 37.3257 62.3888 41.961V62.6119C62.3786 67.237 58.6258 71 53.9803 71Z" stroke="#222222" stroke-miterlimit="10" stroke-linecap="round" stroke-linejoin="round"/>
<path d="M20.1539 41.1394C15.3056 41.1394 10.8225 44.0808 9.25032 48.6654C6.47117 56.8101 12.4859 64.3767 20.2553 64.3057C26.3512 64.2448 31.4835 59.2748 31.7269 53.1891C31.9906 46.5861 26.7163 41.1394 20.1539 41.1394Z" fill="#FFD262" stroke="#222222" stroke-miterlimit="10"/>
<path d="M19.0786 54.1222C20.3278 54.1222 21.3405 52.6055 21.3405 50.7345C21.3405 48.8635 20.3278 47.3468 19.0786 47.3468C17.8294 47.3468 16.8168 48.8635 16.8168 50.7345C16.8168 52.6055 17.8294 54.1222 19.0786 54.1222Z" fill="white"/>
<path d="M20.0626 51.6777C20.6844 51.6777 21.1885 50.9194 21.1885 49.9839C21.1885 49.0484 20.6844 48.29 20.0626 48.29C19.4408 48.29 18.9368 49.0484 18.9368 49.9839C18.9368 50.9194 19.4408 51.6777 20.0626 51.6777Z" fill="#222222"/>
<path d="M25.1034 54.1222C26.3526 54.1222 27.3653 52.6055 27.3653 50.7345C27.3653 48.8635 26.3526 47.3468 25.1034 47.3468C23.8542 47.3468 22.8416 48.8635 22.8416 50.7345C22.8416 52.6055 23.8542 54.1222 25.1034 54.1222Z" fill="white"/>
<path d="M26.0771 51.6777C26.6989 51.6777 27.203 50.9194 27.203 49.9839C27.203 49.0484 26.6989 48.29 26.0771 48.29C25.4554 48.29 24.9513 49.0484 24.9513 49.9839C24.9513 50.9194 25.4554 51.6777 26.0771 51.6777Z" fill="#222222"/>
<path d="M16.9789 55.9175L22.8212 58.1083L27.213 56.0088" stroke="#222222" stroke-miterlimit="10" stroke-linecap="round" stroke-linejoin="round"/>
<path d="M17.4253 55.177L16.2183 56.3739" stroke="#222222" stroke-miterlimit="10" stroke-linecap="round" stroke-linejoin="round"/>
<path d="M26.7565 55.177L27.9635 56.3739" stroke="#222222" stroke-miterlimit="10" stroke-linecap="round" stroke-linejoin="round"/>
<path d="M58.0375 43.8171H36.6462" stroke="#222222" stroke-miterlimit="10" stroke-linecap="round" stroke-linejoin="round"/>
<path d="M54.2542 61.6382H36.6462" stroke="#222222" stroke-miterlimit="10" stroke-linecap="round" stroke-linejoin="round"/>
<path d="M58.0376 61.6382H57.0031" stroke="#222222" stroke-miterlimit="10" stroke-linecap="round" stroke-linejoin="round"/>
<path d="M58.0375 52.7227H36.6462" stroke="#222222" stroke-miterlimit="10" stroke-linecap="round" stroke-linejoin="round"/>
<path d="M61.8715 42.0928C66.9131 42.0928 71.0001 38.0058 71.0001 32.9643C71.0001 27.9227 66.9131 23.8357 61.8715 23.8357C56.8299 23.8357 52.7429 27.9227 52.7429 32.9643C52.7429 38.0058 56.8299 42.0928 61.8715 42.0928Z" fill="#FFF2D7" stroke="#222222" stroke-miterlimit="10"/>
<path d="M58.2198 32.9643L60.6541 35.3986L65.5227 30.53" stroke="#222222" stroke-miterlimit="10" stroke-linecap="round" stroke-linejoin="round"/>
</g>
<defs>
<clipPath id="clip0">
<rect width="71" height="71" fill="white"/>
</clipPath>
</defs>
</svg>
