<svg width="64" height="64" viewBox="0 0 64 64" fill="none" xmlns="http://www.w3.org/2000/svg">
<path d="M60.3517 27.6209C60.3213 27.4461 60.2909 27.2713 60.2605 27.0888C61.0133 25.9334 61.538 24.6031 61.7053 23.136C62.2756 18.0582 58.6332 13.4821 53.5689 12.912C53.394 12.8892 53.2191 12.9044 53.0518 12.9044C53.0062 12.8588 52.9605 12.8056 52.9149 12.7523C53.0366 8.009 49.5615 3.86616 44.7709 3.33406C42.7102 3.10601 40.756 3.60011 39.0983 4.57311C37.6763 2.15582 35.205 0.392265 32.209 0.0577978C28.2852 -0.383091 24.6809 1.73774 22.9928 5.07481C22.0423 4.59591 21.0005 4.23864 19.8827 4.11701C14.826 3.5545 10.2635 7.21084 9.70082 12.2887C9.62478 12.95 9.63238 13.5961 9.69322 14.2346C5.48055 14.6755 1.99787 17.9974 1.5036 22.3911C1.22225 24.9148 1.98266 27.3169 3.44265 29.164C1.61006 30.6463 0.340175 32.8128 0.0588229 35.3365C-0.435444 39.7302 2.2336 43.7438 6.24095 45.1121C6.04325 45.7202 5.89117 46.3511 5.82273 47.0124C5.25242 52.0903 8.89478 56.6664 13.9515 57.2365C15.0769 57.3657 16.1643 57.2517 17.1985 56.9932C18.111 60.6268 21.1602 63.4925 25.0839 63.941C28.0799 64.2831 30.8782 63.1125 32.7945 61.0677C34.1936 62.3903 35.9958 63.3101 38.0565 63.5382C42.8395 64.0779 47.1434 60.8168 48.0711 56.1647C48.1319 56.1267 48.1852 56.0811 48.2384 56.043C48.4057 56.0811 48.5654 56.1267 48.7403 56.1495C53.797 56.7196 58.3594 53.0632 58.9222 47.9854C59.0894 46.5183 58.8613 45.112 58.3899 43.8198C58.4583 43.6526 58.5267 43.4853 58.5952 43.3181C61.4391 42.0106 63.5683 39.3273 63.9409 35.975C64.3211 32.6227 62.8383 29.5289 60.3517 27.6209Z" fill="#C38968"/>
<ellipse cx="31.9991" cy="28.1598" rx="5.76" ry="7.68" fill="white"/>
<ellipse cx="34.5601" cy="26.5599" rx="3.2" ry="4.16" fill="#222222"/>
<ellipse cx="45.4392" cy="28.1598" rx="5.76" ry="7.68" fill="white"/>
<ellipse cx="47.9987" cy="26.5599" rx="3.2" ry="4.16" fill="#222222"/>
<path d="M25.4844 40.485L40.0008 46.3999L52.2481 40.485M51.0844 39.3289L53.1208 41.3521M26.939 39.0399L24.3208 41.6411" stroke="#222222" stroke-width="2" stroke-linecap="round" stroke-linejoin="round"/>
</svg>
