<svg width="69" height="88" viewBox="0 0 69 88" fill="none" xmlns="http://www.w3.org/2000/svg">
<path d="M17 79L9 77.5C16.6 66.7 18.8333 60 19 57.5L26.5 58.5C27.3 62.5 20.5 73.8333 17 79Z" fill="#999999"/>
<rect x="6.44141" y="76" width="18" height="8" rx="4" transform="rotate(10.3767 6.44141 76)" fill="white"/>
<path d="M46.251 79.9594L38.9369 83.5306C38.5889 70.3291 36.382 63.6204 35.0236 61.515L41.6381 57.8411C44.6674 60.573 45.9756 73.7249 46.251 79.9594Z" fill="#999999"/>
<rect x="37" y="80" width="18" height="8" rx="4" fill="white"/>
<path d="M64.1237 29.3472C64.0914 29.1615 64.0591 28.9757 64.0268 28.7819C64.8266 27.5542 65.3841 26.1408 65.5618 24.582C66.1678 19.1869 62.2978 14.3247 56.9169 13.719C56.7311 13.6947 56.5453 13.7109 56.3675 13.7109C56.319 13.6624 56.2706 13.6059 56.2221 13.5494C56.3514 8.50956 52.6591 4.1078 47.5691 3.54243C45.3796 3.30014 43.3032 3.82512 41.5419 4.85892C40.0311 2.29056 37.4053 0.416782 34.222 0.0614101C30.0531 -0.407034 26.2235 1.84634 24.4298 5.39198C23.4199 4.88315 22.313 4.50355 21.1254 4.37433C15.7526 3.77666 10.905 7.66151 10.3071 13.0567C10.2263 13.7594 10.2344 14.4459 10.299 15.1243C5.82308 15.5928 2.12273 19.1222 1.59758 23.7905C1.29864 26.472 2.10658 29.0242 3.65781 30.9868C1.71069 32.5617 0.361435 34.8636 0.0624993 37.545C-0.462659 42.2133 2.37319 46.4778 6.63101 47.9316C6.42095 48.5777 6.25937 49.248 6.18665 49.9507C5.5807 55.3459 9.45071 60.208 14.8235 60.8138C16.0192 60.9511 17.1746 60.8299 18.2734 60.5553C19.2429 64.4159 22.4827 67.4608 26.6517 67.9373C29.8349 68.3008 32.8081 67.057 34.8441 64.8844C36.3307 66.2897 38.2455 67.267 40.435 67.5093C45.5169 68.0827 50.0899 64.6179 51.0755 59.675C51.1402 59.6346 51.1967 59.5861 51.2533 59.5457C51.431 59.5861 51.6007 59.6346 51.7865 59.6588C57.1593 60.2646 62.0069 56.3797 62.6048 50.9845C62.7825 49.4257 62.5402 47.9315 62.0392 46.5585C62.1119 46.3808 62.1847 46.2032 62.2574 46.0255C65.2791 44.6363 67.5413 41.7852 67.9372 38.2234C68.3411 34.6617 66.7657 31.3745 64.1237 29.3472Z" fill="#FFD262"/>
<ellipse cx="33.9989" cy="29.9199" rx="6.12" ry="8.16" fill="white"/>
<ellipse cx="36.7203" cy="28.22" rx="3.4" ry="4.42" fill="#222222"/>
<ellipse cx="48.2802" cy="29.9199" rx="6.12" ry="8.16" fill="white"/>
<ellipse cx="51.0016" cy="28.2198" rx="3.4" ry="4.42" fill="#222222"/>
<path d="M27.0762 43.0154L42.4998 49.2999L55.5126 43.0154M54.2762 41.787L56.4398 43.9367M28.6217 41.4799L25.8398 44.2438" stroke="#222222" stroke-width="2" stroke-linecap="round" stroke-linejoin="round"/>
<path d="M54.6348 57.2606L66.1002 42.508C66.3987 42.1188 67.0224 42.3035 67.0623 42.7917L67.9978 53.8364L60.9713 64.782L54.6348 57.2606Z" fill="#677AC7"/>
<path d="M49.2285 60.19L65.0797 42L67.6209 53.5725L49.2285 60.19Z" fill="#ECEBF2"/>
<path d="M47.4629 60.19L55.6904 45.3055L67.9984 53.8364L47.4629 60.19Z" fill="white"/>
<path d="M40.1245 66.735C42.2013 63.3899 49.3407 52.1473 51.3046 49.0596C51.6032 48.5911 52.1805 48.3932 52.7046 48.5714L68.0051 53.8364L56.553 71.6701C56.3805 71.934 56.062 72.0594 55.7568 71.9802L40.6089 67.9556C40.0781 67.817 39.8326 67.2034 40.1245 66.735Z" fill="#677AC7"/>
</svg>
