<svg width="48" height="48" viewBox="0 0 48 48" fill="none" xmlns="http://www.w3.org/2000/svg">
<ellipse cx="22.8304" cy="19.9889" rx="4.39188" ry="5.85583" fill="white"/>
<ellipse cx="24.7817" cy="18.7691" rx="2.43993" ry="3.17191" fill="#222222"/>
<ellipse cx="33.0804" cy="19.9889" rx="4.39188" ry="5.85583" fill="white"/>
<ellipse cx="35.0317" cy="18.7691" rx="2.43993" ry="3.17191" fill="#222222"/>
<circle cx="24" cy="24" r="24" fill="#8EDABC"/>
<path d="M31.3907 31.3692C30.8722 33.1255 32.9644 34.2794 34.0753 34.6368C35.2687 33.9424 35.8269 32.2865 35.9568 31.5453C34.7225 30.8135 31.9092 29.6129 31.3907 31.3692Z" fill="#FFD262"/>
<path d="M33.9679 34.6368C32.857 34.2794 30.7648 33.1255 31.2833 31.3692C31.8018 29.6129 34.6151 30.8135 35.8494 31.5453" stroke="#222222"/>
<path d="M22.0273 36.6539C26.1125 37.6752 34.7169 37.7263 36.4532 29.7601" stroke="#222222" stroke-linecap="round" stroke-linejoin="round"/>
<ellipse cx="22.8304" cy="19.9889" rx="4.39188" ry="5.85583" fill="white"/>
<ellipse cx="24.7817" cy="18.7691" rx="2.43993" ry="3.17191" fill="#222222"/>
<ellipse cx="33.0804" cy="19.9889" rx="4.39188" ry="5.85583" fill="white"/>
<ellipse cx="35.0317" cy="18.7691" rx="2.43993" ry="3.17191" fill="#222222"/>
</svg>
