<svg width="32" height="32" viewBox="0 0 32 32" fill="none" xmlns="http://www.w3.org/2000/svg">
<path d="M10.2727 19.3846C12.0802 19.3846 13.5455 17.8692 13.5455 16C13.5455 14.1307 12.0802 12.6154 10.2727 12.6154C8.46525 12.6154 7 14.1307 7 16C7 17.8692 8.46525 19.3846 10.2727 19.3846Z" stroke="#222222" stroke-linecap="round" stroke-linejoin="round"/>
<path d="M21.7273 26.9999C23.5348 26.9999 25 25.4846 25 23.6153C25 21.7461 23.5348 20.2307 21.7273 20.2307C19.9198 20.2307 18.4546 21.7461 18.4546 23.6153C18.4546 25.4846 19.9198 26.9999 21.7273 26.9999Z" stroke="#222222" stroke-linecap="round" stroke-linejoin="round"/>
<path d="M21.7273 11.7692C23.5348 11.7692 25 10.2539 25 8.38462C25 6.51534 23.5348 5 21.7273 5C19.9198 5 18.4546 6.51534 18.4546 8.38462C18.4546 10.2539 19.9198 11.7692 21.7273 11.7692Z" stroke="#222222" stroke-linecap="round" stroke-linejoin="round"/>
<path d="M18.9746 10.2147L13.0253 14.17" stroke="#222222" stroke-linecap="round" stroke-linejoin="round"/>
<path d="M13.0253 17.83L18.9746 21.7853" stroke="#222222" stroke-linecap="round" stroke-linejoin="round"/>
</svg>
