<svg width="18" height="18" viewBox="0 0 18 18" fill="none" xmlns="http://www.w3.org/2000/svg">
<circle cx="9" cy="9" r="9" fill="#777777"/>
<path d="M9.488 10.552C9.368 10.552 9.264 10.512 9.176 10.432C9.096 10.352 9.048 10.236 9.032 10.084L8.588 5.416L8.576 5.296C8.576 5.048 8.66 4.852 8.828 4.708C9.004 4.556 9.224 4.48 9.488 4.48C9.768 4.48 9.996 4.568 10.172 4.744C10.348 4.912 10.42 5.14 10.388 5.428L9.944 10.084C9.928 10.236 9.876 10.352 9.788 10.432C9.708 10.512 9.608 10.552 9.488 10.552ZM9.488 13.072C9.232 13.072 9.02 12.988 8.852 12.82C8.684 12.644 8.6 12.428 8.6 12.172C8.6 11.916 8.684 11.704 8.852 11.536C9.02 11.36 9.232 11.272 9.488 11.272C9.744 11.272 9.956 11.36 10.124 11.536C10.292 11.704 10.376 11.916 10.376 12.172C10.376 12.428 10.292 12.644 10.124 12.82C9.956 12.988 9.744 13.072 9.488 13.072Z" fill="white"/>
</svg>
