<svg width="18" height="18" viewBox="0 0 18 18" fill="none" xmlns="http://www.w3.org/2000/svg">
<circle cx="9" cy="9" r="9" fill="#677AC7"/>
<path d="M8.988 10.552C8.868 10.552 8.764 10.512 8.676 10.432C8.596 10.352 8.548 10.236 8.532 10.084L8.088 5.416L8.076 5.296C8.076 5.048 8.16 4.852 8.328 4.708C8.504 4.556 8.724 4.48 8.988 4.48C9.252 4.48 9.468 4.556 9.636 4.708C9.812 4.852 9.9 5.048 9.9 5.296L9.888 5.428L9.444 10.084C9.428 10.236 9.376 10.352 9.288 10.432C9.208 10.512 9.108 10.552 8.988 10.552ZM8.988 13.072C8.732 13.072 8.52 12.988 8.352 12.82C8.184 12.644 8.1 12.428 8.1 12.172C8.1 11.916 8.184 11.704 8.352 11.536C8.52 11.36 8.732 11.272 8.988 11.272C9.244 11.272 9.456 11.36 9.624 11.536C9.792 11.704 9.876 11.916 9.876 12.172C9.876 12.428 9.792 12.644 9.624 12.82C9.456 12.988 9.244 13.072 8.988 13.072Z" fill="white"/>
</svg>
