<svg width="26" height="11" viewBox="0 0 26 11" fill="none" xmlns="http://www.w3.org/2000/svg">
<path d="M10.0491 8.922C10.1051 9.04333 10.1331 9.16467 10.1331 9.286C10.1331 9.50067 10.0444 9.68267 9.86706 9.832C9.69906 9.98133 9.50306 10.056 9.27906 10.056C9.12973 10.056 8.98973 10.0187 8.85906 9.944C8.7284 9.86 8.62573 9.734 8.55106 9.566L7.71106 7.69H2.78306L1.94306 9.566C1.8684 9.734 1.76573 9.86 1.63506 9.944C1.5044 10.0187 1.35973 10.056 1.20106 10.056C0.986396 10.056 0.790396 9.98133 0.613063 9.832C0.435729 9.68267 0.347063 9.50067 0.347063 9.286C0.347063 9.16467 0.375063 9.04333 0.431063 8.922L4.29506 0.62C4.37906 0.433333 4.50506 0.293333 4.67306 0.199999C4.8504 0.0973329 5.03706 0.0459996 5.23306 0.0459996C5.42906 0.0459996 5.61106 0.0973329 5.77906 0.199999C5.9564 0.293333 6.08706 0.433333 6.17106 0.62L10.0491 8.922ZM3.39906 6.29H7.09506L5.24706 2.132L3.39906 6.29ZM12.3477 10C12.077 10 11.867 9.92533 11.7177 9.776C11.5684 9.62667 11.4937 9.42133 11.4937 9.16V0.956C11.4937 0.685333 11.573 0.470666 11.7317 0.312C11.8997 0.143999 12.119 0.0599995 12.3897 0.0599995C12.6697 0.0599995 12.889 0.143999 13.0477 0.312C13.2157 0.470666 13.2997 0.685333 13.2997 0.956V8.516H17.2337C17.7937 8.516 18.0737 8.76333 18.0737 9.258C18.0737 9.75267 17.7937 10 17.2337 10H12.3477ZM20.1133 10C19.8426 10 19.6326 9.92533 19.4833 9.776C19.334 9.62667 19.2593 9.42133 19.2593 9.16V0.956C19.2593 0.685333 19.3386 0.470666 19.4973 0.312C19.6653 0.143999 19.8846 0.0599995 20.1553 0.0599995C20.4353 0.0599995 20.6546 0.143999 20.8133 0.312C20.9813 0.470666 21.0653 0.685333 21.0653 0.956V8.516H24.9993C25.5593 8.516 25.8393 8.76333 25.8393 9.258C25.8393 9.75267 25.5593 10 24.9993 10H20.1133Z" fill="#222222"/>
</svg>
