<svg width="26" height="26" viewBox="0 0 26 26" fill="none" xmlns="http://www.w3.org/2000/svg">
<path d="M10.9414 8.47622C10.9414 7.7366 11.2434 7.02728 11.7811 6.5043C12.3187 5.98131 13.0479 5.6875 13.8082 5.6875H19.5418C19.7318 5.6875 19.9141 5.76095 20.0485 5.8917C20.1829 6.02245 20.2585 6.19978 20.2585 6.38468V11.9862M13.8876 18.2367H13.8082C13.0479 18.2367 12.3187 18.5305 11.7811 19.0535C11.2434 19.5765 10.9414 20.2858 10.9414 21.0254" stroke="#222222" stroke-linecap="round" stroke-linejoin="round"/>
<path d="M1.625 17.5395C1.625 17.7244 1.70051 17.9018 1.83492 18.0325C1.96932 18.1633 2.15162 18.2367 2.3417 18.2367H8.07526C8.83558 18.2367 9.56476 18.5305 10.1024 19.0535C10.64 19.5765 10.942 20.2858 10.942 21.0254V8.47622C10.942 7.7366 10.64 7.02728 10.1024 6.5043C9.56476 5.98131 8.83558 5.6875 8.07526 5.6875H2.3417C2.15162 5.6875 1.96932 5.76095 1.83492 5.8917C1.70051 6.02245 1.625 6.19978 1.625 6.38468V17.5395Z" stroke="#222222" stroke-linecap="round" stroke-linejoin="round"/>
<path d="M20.7657 20.9347C20.4625 21.1889 19.997 21.1889 19.6968 20.9318L19.654 20.8963C17.5622 19.1438 16.1994 18.0001 16.2514 16.5726C16.2759 15.9491 16.622 15.3462 17.1825 14.9945C18.2329 14.3266 19.5284 14.6398 20.2328 15.3964C20.9311 14.6339 22.2265 14.3236 23.2831 14.9915C23.8436 15.3432 24.1897 15.9461 24.2142 16.5697C24.2724 18.0001 22.9034 19.1438 20.8147 20.9022C20.8024 20.9022 20.7657 20.9347 20.7657 20.9347Z" stroke="#222222" stroke-miterlimit="10" stroke-linecap="round" stroke-linejoin="round"/>
</svg>
