<svg width="32" height="36" viewBox="0 0 32 36" fill="none" xmlns="http://www.w3.org/2000/svg">
<path d="M9.14123 20.25C9.01681 20.25 8.89686 20.2964 8.80481 20.3801L4.83642 23.9893C4.51525 24.2814 4 24.0535 4 23.6194V6.75C4 6.45163 4.10536 6.16548 4.29289 5.95451C4.48043 5.74353 4.73478 5.625 5 5.625H21C21.2652 5.625 21.5196 5.74353 21.7071 5.95451C21.8946 6.16548 22 6.45163 22 6.75V19.125C22 19.4234 21.8946 19.7095 21.7071 19.9205C21.5196 20.1315 21.2652 20.25 21 20.25H9.14123Z" fill="#FFD262" stroke="#222222" stroke-linecap="round" stroke-linejoin="round"/>
<path d="M10 20.25V25.875C10 26.1734 10.1054 26.4595 10.2929 26.6705C10.4804 26.8815 10.7348 27 11 27H22.8588C22.9832 27 23.1031 27.0464 23.1952 27.1301L27.1636 30.7393C27.4847 31.0314 28 30.8035 28 30.3694V13.5C28 13.2016 27.8946 12.9155 27.7071 12.7045C27.5196 12.4935 27.2652 12.375 27 12.375H22" stroke="#222222" stroke-linecap="round" stroke-linejoin="round"/>
<path d="M8 10H17.6689" stroke="#222222" stroke-linecap="round" stroke-linejoin="round"/>
<path d="M8 13H17.6689" stroke="#222222" stroke-linecap="round" stroke-linejoin="round"/>
<path d="M8 16H14.3703" stroke="#222222" stroke-linecap="round" stroke-linejoin="round"/>
</svg>
