<svg width="36" height="36" viewBox="0 0 36 36" fill="none" xmlns="http://www.w3.org/2000/svg">
<path d="M20.25 31.0649C25.8419 31.0649 30.375 26.5318 30.375 20.9399C30.375 15.3481 25.8419 10.8149 20.25 10.8149C14.6581 10.8149 10.125 15.3481 10.125 20.9399C10.125 26.5318 14.6581 31.0649 20.25 31.0649Z" fill="#FFD262"/>
<path d="M18 31.0649C25.4558 31.0649 31.5 25.0208 31.5 17.5649C31.5 10.1091 25.4558 4.06494 18 4.06494C10.5442 4.06494 4.5 10.1091 4.5 17.5649C4.5 25.0208 10.5442 31.0649 18 31.0649Z" stroke="#222222" stroke-linecap="round" stroke-linejoin="round"/>
<path d="M18 19.125C18.6213 19.125 19.125 18.6213 19.125 18C19.125 17.3787 18.6213 16.875 18 16.875C17.3787 16.875 16.875 17.3787 16.875 18C16.875 18.6213 17.3787 19.125 18 19.125Z" fill="#222222"/>
<path d="M11.25 19.125C11.8713 19.125 12.375 18.6213 12.375 18C12.375 17.3787 11.8713 16.875 11.25 16.875C10.6287 16.875 10.125 17.3787 10.125 18C10.125 18.6213 10.6287 19.125 11.25 19.125Z" fill="#222222"/>
<path d="M24.75 19.125C25.3713 19.125 25.875 18.6213 25.875 18C25.875 17.3787 25.3713 16.875 24.75 16.875C24.1287 16.875 23.625 17.3787 23.625 18C23.625 18.6213 24.1287 19.125 24.75 19.125Z" fill="#222222"/>
</svg>
