<svg width="155" height="17" viewBox="0 0 155 17" fill="none" xmlns="http://www.w3.org/2000/svg">
<path d="M99.1691 16.905C98.2968 16.905 97.6699 16.6528 97.2883 16.1485C96.9066 15.6306 96.7158 14.8674 96.7158 13.8588C96.7158 12.8366 97.1451 9.95399 98.0038 5.21098L96.9203 3.02347C98.4604 2.02852 99.8642 1.53106 101.132 1.53106C101.977 1.53106 102.481 1.93993 102.645 2.75769C104.048 1.95356 105.425 1.5515 106.774 1.5515C107.66 1.5515 108.437 1.75593 109.105 2.16481C109.895 2.64184 110.291 3.46642 110.291 4.63854C110.291 6.57391 109.221 7.97774 107.081 8.85001C109.262 9.23164 110.352 10.4515 110.352 12.5095C110.352 13.8452 109.8 14.9083 108.696 15.6988C107.592 16.4893 106.352 16.8845 104.975 16.8845C103.612 16.8845 102.515 16.5983 101.684 16.0259C100.88 16.6119 100.041 16.905 99.1691 16.905ZM105.629 12.0597C105.629 11.4191 105.439 10.9489 105.057 10.6491C104.689 10.3492 104.192 10.1993 103.565 10.1993C102.938 10.1993 102.236 10.3288 101.459 10.5878C101.241 11.7462 101.132 12.7344 101.132 13.5521C101.8 13.8656 102.495 14.0224 103.217 14.0224C103.939 14.0224 104.519 13.852 104.955 13.5112C105.405 13.1705 105.629 12.6867 105.629 12.0597ZM104.301 4.25011C103.769 4.25011 103.197 4.35233 102.583 4.55677C102.501 5.08831 102.249 6.45125 101.827 8.64557C102.958 8.5638 103.919 8.29121 104.709 7.82781C105.5 7.35079 105.895 6.66932 105.895 5.78341C105.895 4.76121 105.364 4.25011 104.301 4.25011Z" fill="#222222"/>
<path d="M121.961 5.66074C122.724 5.66074 123.378 5.96741 123.923 6.58073C124.482 7.19405 124.762 8.08677 124.762 9.25889C124.762 10.4174 124.557 11.4941 124.148 12.489C123.739 13.4704 123.201 14.2745 122.533 14.9014C121.865 15.5284 121.109 16.019 120.264 16.3734C119.419 16.7141 118.553 16.8845 117.668 16.8845C115.882 16.8845 114.472 16.3939 113.436 15.4125C112.4 14.4312 111.882 13.1296 111.882 11.5077C111.882 9.31341 112.584 7.53478 113.988 6.17184C115.405 4.79528 117.204 4.107 119.385 4.107C119.876 4.107 120.366 4.16152 120.857 4.27055C121.007 4.72032 121.089 5.23142 121.102 5.80386C121.388 5.70845 121.675 5.66074 121.961 5.66074ZM119.446 8.50247C119.446 8.12084 119.535 7.69152 119.712 7.21449C119.903 6.73746 120.203 6.35584 120.612 6.06962C118.812 6.45125 117.572 7.18042 116.891 8.25714C116.305 9.18393 116.012 10.138 116.012 11.1193C116.012 12.1006 116.209 12.8911 116.604 13.4908C117.013 14.0769 117.531 14.3699 118.158 14.3699C119.548 14.3699 120.53 13.4635 121.102 11.6508C119.998 10.9694 119.446 9.91992 119.446 8.50247Z" fill="#222222"/>
<path d="M136.575 5.66074C137.338 5.66074 137.993 5.96741 138.538 6.58073C139.097 7.19405 139.376 8.08677 139.376 9.25889C139.376 10.4174 139.172 11.4941 138.763 12.489C138.354 13.4704 137.815 14.2745 137.148 14.9014C136.48 15.5284 135.723 16.019 134.878 16.3734C134.033 16.7141 133.168 16.8845 132.282 16.8845C130.496 16.8845 129.086 16.3939 128.05 15.4125C127.014 14.4312 126.496 13.1296 126.496 11.5077C126.496 9.31341 127.198 7.53478 128.602 6.17184C130.019 4.79528 131.818 4.107 133.999 4.107C134.49 4.107 134.98 4.16152 135.471 4.27055C135.621 4.72032 135.703 5.23142 135.716 5.80386C136.003 5.70845 136.289 5.66074 136.575 5.66074ZM134.06 8.50247C134.06 8.12084 134.149 7.69152 134.326 7.21449C134.517 6.73746 134.817 6.35584 135.226 6.06962C133.427 6.45125 132.186 7.18042 131.505 8.25714C130.919 9.18393 130.626 10.138 130.626 11.1193C130.626 12.1006 130.824 12.8911 131.219 13.4908C131.628 14.0769 132.146 14.3699 132.773 14.3699C134.163 14.3699 135.144 13.4635 135.716 11.6508C134.612 10.9694 134.06 9.91992 134.06 8.50247Z" fill="#222222"/>
<path d="M143.134 3.65723L141.99 2.02171C143.693 1.02677 145.036 0.529297 146.017 0.529297C146.576 0.529297 146.971 0.645145 147.203 0.876844C147.435 1.09491 147.55 1.46972 147.55 2.00127C147.55 2.51918 147.462 3.24835 147.285 4.18878C147.121 5.1292 146.896 6.23999 146.61 7.52115C146.337 8.80231 146.14 9.83133 146.017 10.6082L147.305 9.46333C147.428 9.3543 147.625 9.18393 147.898 8.95223C148.184 8.70691 148.382 8.52972 148.491 8.42069C148.613 8.31165 148.777 8.16173 148.981 7.97092C149.186 7.76648 149.336 7.59611 149.431 7.45982C149.527 7.32352 149.636 7.16679 149.758 6.98961C149.949 6.68976 150.045 6.35584 150.045 5.98785C150.045 5.60623 149.99 5.27231 149.881 4.98609C150.849 4.40003 151.762 4.107 152.62 4.107C153.193 4.107 153.649 4.291 153.99 4.65899C154.331 5.01335 154.501 5.53126 154.501 6.21273C154.501 6.8942 154.188 7.58248 153.561 8.27758C152.948 8.95905 152.184 9.55874 151.271 10.0767C151.694 11.4805 152.239 12.7684 152.907 13.9406C153.575 15.1127 154.133 15.8146 154.583 16.0463C154.038 16.6051 153.193 16.8845 152.048 16.8845C151.203 16.8845 150.487 16.5983 149.901 16.0259C149.329 15.4534 148.818 14.513 148.368 13.2046L147.857 11.7531L145.751 12.7957C145.738 12.9456 145.731 13.1705 145.731 13.4704C145.731 14.6016 145.942 15.4057 146.365 15.8828C145.411 16.5506 144.545 16.8845 143.768 16.8845C142.991 16.8845 142.419 16.6324 142.051 16.1281C141.697 15.6102 141.519 14.9014 141.519 14.0019C141.519 13.1024 141.772 11.2624 142.276 8.48202C142.78 5.70163 143.066 4.09337 143.134 3.65723Z" fill="#222222"/>
<path d="M109.128 4.57669C109.138 4.27624 108.939 3.57181 108.062 3.15771" stroke="white" stroke-width="0.604964" stroke-linecap="round" stroke-linejoin="round"/>
<path d="M123.295 8.23294C123.305 7.93249 123.106 7.22806 122.229 6.81396" stroke="white" stroke-width="0.604964" stroke-linecap="round" stroke-linejoin="round"/>
<path d="M138.22 8.23294C138.23 7.93249 138.031 7.22806 137.154 6.81396" stroke="white" stroke-width="0.604964" stroke-linecap="round" stroke-linejoin="round"/>
<path d="M153.277 6.94008C153.429 6.20938 153.277 5.2119 152.072 5.51072" stroke="white" stroke-width="0.604964" stroke-linecap="round" stroke-linejoin="round"/>
<path d="M0.415039 10.1191C0.415039 9.16502 0.619479 8.19734 1.02836 7.21602C1.43724 6.22108 2.01649 5.3011 2.7661 4.45608C3.51572 3.61106 4.49021 2.92278 5.6896 2.39123C6.90261 1.84606 8.14969 1.57347 9.43085 1.57347C10.7256 1.57347 11.7342 1.81198 12.4566 2.28901C13.1926 2.76604 13.5605 3.42706 13.5605 4.27208C13.5605 5.1171 13.2811 5.77813 12.7223 6.25515C12.1772 6.71855 11.5502 6.95025 10.8415 6.95025C10.1328 6.95025 9.49218 6.80033 8.91975 6.50048C8.36095 6.18701 7.91118 5.74405 7.57045 5.17162C6.83446 5.52598 6.2007 6.22108 5.66915 7.25691C5.13761 8.29274 4.87184 9.33539 4.87184 10.3848C4.87184 11.4207 5.0422 12.2453 5.38294 12.8586C5.72367 13.4583 6.20751 13.7581 6.83446 13.7581C7.46141 13.7581 8.0134 13.4378 8.49043 12.7972C8.98108 12.1567 9.22641 11.3866 9.22641 10.4871C10.603 10.4871 11.5843 10.5961 12.1704 10.8142C12.77 11.0322 13.0699 11.5025 13.0699 12.2248C13.0699 13.356 12.4566 14.4191 11.2299 15.4141C10.0033 16.409 8.46317 16.9065 6.60958 16.9065C4.75599 16.9065 3.25676 16.3341 2.11189 15.1892C0.980657 14.0443 0.415039 12.3543 0.415039 10.1191Z" fill="#222222"/>
<path d="M14.8816 14.3714C14.8816 13.8263 15.0179 12.77 15.2905 11.2026C15.5767 9.63523 15.8697 8.20415 16.1696 6.90936L15.1065 5.27384C16.8101 4.5106 18.0027 4.12897 18.6842 4.12897C19.3793 4.12897 19.7268 4.56511 19.7268 5.43739C19.7268 5.91442 19.5019 6.90936 19.0522 8.42222L19.2566 8.52444C20.2379 5.59413 21.4577 4.12897 22.9161 4.12897C23.5839 4.12897 24.095 4.33341 24.4494 4.74229C24.8037 5.15118 24.9809 5.60776 24.9809 6.11204C24.9809 6.86166 24.7015 7.50224 24.1427 8.03378C23.5839 8.56533 22.7457 8.8311 21.6281 8.8311C19.9381 8.8311 19.093 10.5688 19.093 14.0443C19.093 14.8893 19.2362 15.5095 19.5224 15.9047C18.6774 16.5726 17.9005 16.9065 17.1918 16.9065C15.6516 16.9065 14.8816 16.0615 14.8816 14.3714Z" fill="#222222"/>
<path d="M32.6888 13.8808L32.4844 13.7786C32.1164 14.7599 31.5848 15.5299 30.8897 16.0887C30.2083 16.6339 29.445 16.9065 28.6 16.9065C27.4415 16.9065 26.5147 16.4703 25.8196 15.5981C25.1245 14.7258 24.777 13.5605 24.777 12.1021C24.777 9.83967 25.5334 7.94519 27.0462 6.4187C28.5727 4.89222 30.4672 4.12897 32.7297 4.12897C33.3158 4.12897 33.8541 4.18349 34.3448 4.29253C34.4265 4.67415 34.4742 5.00807 34.4879 5.29428C35.1693 4.85814 35.8712 4.64007 36.5936 4.64007C37.5885 4.64007 38.086 5.17843 38.086 6.25515C38.086 6.63677 37.868 7.78845 37.4318 9.71019C37.0093 11.6319 36.798 13.0562 36.798 13.983C36.798 14.9098 37.0093 15.5504 37.4318 15.9047C36.6686 16.5726 35.8713 16.9065 35.0399 16.9065C34.2221 16.9065 33.6224 16.6612 33.2408 16.1705C32.8728 15.6798 32.6888 14.9166 32.6888 13.8808ZM28.6204 11.1004C28.6204 11.7682 28.7567 12.2861 29.0293 12.6541C29.3155 13.0085 29.7176 13.1857 30.2355 13.1857C30.7534 13.1857 31.2645 12.9949 31.7688 12.6132C32.2731 12.2316 32.6956 11.7069 33.0364 11.0391C33.159 9.66249 33.4248 8.03378 33.8337 6.15293C32.4571 6.15293 31.2441 6.6504 30.1946 7.64535C29.1452 8.64029 28.6204 9.79197 28.6204 11.1004Z" fill="#222222"/>
<path d="M39.9327 11.5297C39.9327 9.34902 40.6823 7.57038 42.1815 6.19382C43.6808 4.81726 45.5684 4.12897 47.8445 4.12897C49.0167 4.12897 49.9435 4.35386 50.6249 4.80363C51.3064 5.23977 51.6471 5.79175 51.6471 6.45959C51.6471 7.12743 51.4154 7.63853 50.952 7.99289C50.5023 8.34726 50.0048 8.52444 49.4596 8.52444C48.9281 8.52444 48.4374 8.38133 47.9876 8.09511C47.5515 7.8089 47.2108 7.3932 46.9654 6.84803C46.1068 7.20239 45.4253 7.82934 44.921 8.72888C44.4304 9.62842 44.1851 10.528 44.1851 11.4275C44.1851 12.327 44.3622 13.0562 44.7166 13.615C45.071 14.1738 45.5344 14.4532 46.1068 14.4532C46.6792 14.4532 47.1426 14.2624 47.497 13.8808C47.865 13.4992 48.049 12.9335 48.049 12.1839C50.0389 12.1839 51.0338 12.6541 51.0338 13.5946C51.0338 14.3987 50.5295 15.1551 49.5209 15.8638C48.5124 16.5589 47.1835 16.9065 45.5344 16.9065C43.8852 16.9065 42.5359 16.4158 41.4864 15.4345C40.4506 14.4396 39.9327 13.138 39.9327 11.5297Z" fill="#222222"/>
<path d="M54.9937 3.67921L53.8489 2.04368C55.5525 1.04874 56.895 0.55127 57.8763 0.55127C58.4351 0.55127 58.8304 0.667119 59.0621 0.898819C59.2938 1.11689 59.4096 1.49169 59.4096 2.02324C59.4096 2.54115 59.321 3.27032 59.1438 4.21075C58.9803 5.15118 58.7554 6.26197 58.4692 7.54313C58.1966 8.82428 57.999 9.8533 57.8763 10.6302L59.1643 9.48531C59.287 9.37627 59.4846 9.20591 59.7572 8.97421C60.0434 8.72888 60.241 8.5517 60.35 8.44266C60.4727 8.33363 60.6363 8.18371 60.8407 7.99289C61.0451 7.78845 61.1951 7.61809 61.2905 7.48179C61.3859 7.3455 61.4949 7.18876 61.6176 7.01158C61.8084 6.71174 61.9038 6.37782 61.9038 6.00982C61.9038 5.6282 61.8493 5.29428 61.7402 5.00807C62.7079 4.422 63.6211 4.12897 64.4797 4.12897C65.0522 4.12897 65.5088 4.31297 65.8495 4.68096C66.1902 5.03533 66.3606 5.55324 66.3606 6.23471C66.3606 6.91618 66.0471 7.60446 65.4202 8.29955C64.8068 8.98102 64.0436 9.58071 63.1304 10.0986C63.5529 11.5025 64.0981 12.7904 64.766 13.9626C65.4338 15.1347 65.9926 15.8366 66.4424 16.0683C65.8972 16.6271 65.0522 16.9065 63.9073 16.9065C63.0623 16.9065 62.3467 16.6203 61.7607 16.0478C61.1882 15.4754 60.6772 14.535 60.2274 13.2266L59.7163 11.775L57.6105 12.8177C57.5969 12.9676 57.5901 13.1925 57.5901 13.4923C57.5901 14.6236 57.8014 15.4277 58.2239 15.9047C57.2698 16.5726 56.4044 16.9065 55.6275 16.9065C54.8506 16.9065 54.2782 16.6543 53.9102 16.1501C53.5558 15.6321 53.3786 14.9234 53.3786 14.0239C53.3786 13.1243 53.6308 11.2844 54.1351 8.50399C54.6393 5.72361 54.9256 4.11534 54.9937 3.67921Z" fill="#222222"/>
<path d="M73.6107 16.9065C71.7435 16.9065 70.2988 16.4226 69.2766 15.455C68.268 14.4873 67.7637 13.1789 67.7637 11.5297C67.7637 9.33539 68.5133 7.55676 70.0126 6.19382C71.5254 4.81726 73.4199 4.12897 75.696 4.12897C76.9635 4.12897 77.9244 4.41519 78.5786 4.98762C79.2328 5.54643 79.5599 6.28923 79.5599 7.21602C79.5599 8.48355 78.9398 9.53983 77.6995 10.3848C76.4729 11.2162 74.5716 11.6387 71.9956 11.6524C72.0365 12.5247 72.2341 13.2129 72.5885 13.7172C72.9429 14.2079 73.3858 14.4532 73.9174 14.4532C74.4489 14.4532 74.9055 14.276 75.2871 13.9217C75.6824 13.5673 75.88 12.9881 75.88 12.1839C77.8699 12.1839 78.8648 12.6541 78.8648 13.5946C78.8648 14.3987 78.3742 15.1551 77.3928 15.8638C76.4115 16.5589 75.1508 16.9065 73.6107 16.9065ZM75.3484 6.52093C74.6534 6.52093 74.0128 6.86847 73.4267 7.56357C72.8543 8.25867 72.4386 9.07643 72.1796 10.0169C73.5426 9.90782 74.5648 9.60116 75.2462 9.09687C75.9413 8.57896 76.2889 8.03378 76.2889 7.46135C76.2889 7.18876 76.2003 6.96388 76.0231 6.7867C75.8595 6.60952 75.6347 6.52093 75.3484 6.52093Z" fill="#222222"/>
<path d="M81.4045 14.3714C81.4045 13.8263 81.5408 12.77 81.8134 11.2026C82.0996 9.63523 82.3926 8.20415 82.6925 6.90936L81.6294 5.27384C83.3331 4.5106 84.5256 4.12897 85.2071 4.12897C85.9022 4.12897 86.2497 4.56511 86.2497 5.43739C86.2497 5.91442 86.0249 6.90936 85.5751 8.42222L85.7795 8.52444C86.7608 5.59413 87.9807 4.12897 89.439 4.12897C90.1068 4.12897 90.6179 4.33341 90.9723 4.74229C91.3267 5.15118 91.5039 5.60776 91.5039 6.11204C91.5039 6.86166 91.2244 7.50224 90.6656 8.03378C90.1068 8.56533 89.2686 8.8311 88.151 8.8311C86.461 8.8311 85.616 10.5688 85.616 14.0443C85.616 14.8893 85.7591 15.5095 86.0453 15.9047C85.2003 16.5726 84.4234 16.9065 83.7147 16.9065C82.1746 16.9065 81.4045 16.0615 81.4045 14.3714Z" fill="#222222"/>
<path d="M12.3845 4.68419C12.3431 4.25744 11.9314 3.29807 10.6152 2.87451" stroke="white" stroke-width="0.604964" stroke-linecap="round" stroke-linejoin="round"/>
<path d="M23.8254 6.69143C23.8354 6.39099 23.6363 5.68656 22.7598 5.27246" stroke="white" stroke-width="0.604964" stroke-linecap="round" stroke-linejoin="round"/>
<path d="M90.3654 6.72903C90.3754 6.42858 90.1763 5.72416 89.2998 5.31006" stroke="white" stroke-width="0.604964" stroke-linecap="round" stroke-linejoin="round"/>
<path d="M50.5939 7.06448C50.6039 6.76403 50.4048 6.05961 49.5283 5.64551" stroke="white" stroke-width="0.604964" stroke-linecap="round" stroke-linejoin="round"/>
<path d="M78.2316 6.84573C78.2416 6.54528 78.0425 5.84086 77.166 5.42676" stroke="white" stroke-width="0.604964" stroke-linecap="round" stroke-linejoin="round"/>
<path d="M37.0425 7.17983C37.1948 6.44913 37.0424 5.45165 35.8376 5.75046" stroke="white" stroke-width="0.604964" stroke-linecap="round" stroke-linejoin="round"/>
<path d="M65.06 6.80776C65.2124 6.07706 65.06 5.07958 63.8551 5.37839" stroke="white" stroke-width="0.604964" stroke-linecap="round" stroke-linejoin="round"/>
</svg>
