<svg width="20" height="20" viewBox="0 0 20 20" fill="none" xmlns="http://www.w3.org/2000/svg">
<path d="M14.043 5.9375C14.793 6.425 15.2117 7.2625 15.2492 8.125" stroke="#222222" stroke-miterlimit="10" stroke-linecap="round" stroke-linejoin="round"/>
<path d="M11.0865 16.4689C10.4678 17.0064 9.51778 17.0064 8.90528 16.4626L8.81778 16.3876C4.54903 12.6814 1.76778 10.2626 1.87403 7.24386C1.92403 5.92511 2.63028 4.65011 3.77403 3.90636C5.91778 2.49386 8.56153 3.15636 9.99903 4.75636C11.424 3.14386 14.0678 2.48761 16.224 3.90011C17.3678 4.64386 18.074 5.91886 18.124 7.23761C18.2428 10.2626 15.449 12.6814 11.1865 16.4001C11.1615 16.4001 11.0865 16.4689 11.0865 16.4689Z" stroke="#222222" stroke-miterlimit="10" stroke-linecap="round" stroke-linejoin="round"/>
</svg>
