<svg width="18" height="16" viewBox="0 0 18 16" fill="none" xmlns="http://www.w3.org/2000/svg">
<path d="M6.75397 6.97283C6.66801 7.20938 6.8432 7.45943 7.09488 7.45943C7.34697 7.45943 7.52219 7.20862 7.43545 6.97192C7.31904 6.65423 6.86952 6.65483 6.75397 6.97283Z" fill="black"/>
<path d="M8.99842 0C4.03063 0 0 3.05902 0 6.83265C0 8.29393 0.603507 9.64733 1.63171 10.7583C2.88515 12.1127 3.67423 13.9448 3.30443 15.7527C3.29561 15.7958 3.29746 15.7896 3.30322 15.8332C3.30937 15.8798 3.32862 15.9395 3.38417 15.9721C3.5144 16.043 3.67258 15.9656 3.8033 15.8956C4.23807 15.6627 5.22918 15.0179 6.07251 14.4578C6.9314 13.8874 7.96736 13.6737 8.99842 13.6737C13.9705 13.6737 17.9968 10.6146 17.9968 6.84101C17.9968 3.05902 13.9705 0 8.99842 0Z" fill="black"/>
</svg>
