<svg width="31" height="34" viewBox="0 0 31 34" fill="none" xmlns="http://www.w3.org/2000/svg">
<g filter="url(#filter0_d)">
<path d="M24 26L13.9988 20.3478L4 26V1.13043C4 0.830625 4.1317 0.543095 4.36612 0.331097C4.60054 0.119099 4.91848 0 5.25 0L24 0C24.3315 0 26.7656 3.788 27 4H24V26Z" fill="#FFD262"/>
</g>
<path d="M16.036 13.98C16.228 13.98 16.372 14.024 16.468 14.112C16.572 14.2 16.624 14.324 16.624 14.484C16.624 14.828 16.428 15 16.036 15H11.404C11.228 15 11.088 14.952 10.984 14.856C10.888 14.752 10.84 14.624 10.84 14.472C10.84 14.288 10.912 14.12 11.056 13.968L13.876 10.884C14.252 10.476 14.524 10.104 14.692 9.768C14.86 9.432 14.944 9.1 14.944 8.772C14.944 8.348 14.82 8.024 14.572 7.8C14.332 7.568 13.988 7.452 13.54 7.452C12.86 7.452 12.184 7.712 11.512 8.232C11.424 8.288 11.348 8.332 11.284 8.364C11.228 8.388 11.168 8.4 11.104 8.4C10.992 8.4 10.896 8.348 10.816 8.244C10.736 8.14 10.696 8.016 10.696 7.872C10.696 7.672 10.776 7.512 10.936 7.392C11.272 7.104 11.676 6.876 12.148 6.708C12.62 6.532 13.096 6.444 13.576 6.444C14.368 6.444 14.996 6.648 15.46 7.056C15.932 7.456 16.168 8 16.168 8.688C16.168 9.176 16.06 9.64 15.844 10.08C15.636 10.52 15.284 11.012 14.788 11.556L12.52 13.98H16.036Z" fill="#222222"/>
<defs>
<filter id="filter0_d" x="0" y="0" width="31" height="34" filterUnits="userSpaceOnUse" color-interpolation-filters="sRGB">
<feFlood flood-opacity="0" result="BackgroundImageFix"/>
<feColorMatrix in="SourceAlpha" type="matrix" values="0 0 0 0 0 0 0 0 0 0 0 0 0 0 0 0 0 0 127 0"/>
<feOffset dy="4"/>
<feGaussianBlur stdDeviation="2"/>
<feColorMatrix type="matrix" values="0 0 0 0 0 0 0 0 0 0 0 0 0 0 0 0 0 0 0.16 0"/>
<feBlend mode="normal" in2="BackgroundImageFix" result="effect1_dropShadow"/>
<feBlend mode="normal" in="SourceGraphic" in2="effect1_dropShadow" result="shape"/>
</filter>
</defs>
</svg>
