<svg width="31" height="34" viewBox="0 0 31 34" fill="none" xmlns="http://www.w3.org/2000/svg">
<g filter="url(#filter0_d)">
<path d="M24 26L13.9988 20.3478L4 26V1.13043C4 0.830625 4.1317 0.543095 4.36612 0.331097C4.60054 0.119099 4.91848 0 5.25 0L24 0C24.3315 0 26.7656 3.788 27 4H24V26Z" fill="#FFD262"/>
</g>
<path d="M14.812 10.656C15.324 10.8 15.712 11.048 15.976 11.4C16.24 11.744 16.372 12.18 16.372 12.708C16.372 13.444 16.112 14.024 15.592 14.448C15.08 14.872 14.384 15.084 13.504 15.084C12.984 15.084 12.484 15 12.004 14.832C11.532 14.664 11.132 14.432 10.804 14.136C10.644 14.008 10.564 13.848 10.564 13.656C10.564 13.512 10.604 13.392 10.684 13.296C10.764 13.192 10.86 13.14 10.972 13.14C11.092 13.14 11.228 13.192 11.38 13.296C11.724 13.552 12.06 13.748 12.388 13.884C12.724 14.012 13.084 14.076 13.468 14.076C14.604 14.076 15.172 13.592 15.172 12.624C15.172 12.152 15.02 11.8 14.716 11.568C14.42 11.328 13.968 11.208 13.36 11.208H12.7C12.548 11.208 12.428 11.16 12.34 11.064C12.252 10.96 12.208 10.84 12.208 10.704C12.208 10.576 12.252 10.464 12.34 10.368C12.428 10.264 12.548 10.212 12.7 10.212H13.168C13.752 10.212 14.196 10.092 14.5 9.852C14.812 9.604 14.968 9.244 14.968 8.772C14.968 8.356 14.84 8.032 14.584 7.8C14.336 7.568 13.984 7.452 13.528 7.452C12.856 7.452 12.184 7.712 11.512 8.232C11.36 8.336 11.224 8.388 11.104 8.388C10.992 8.388 10.896 8.34 10.816 8.244C10.736 8.14 10.696 8.016 10.696 7.872C10.696 7.68 10.776 7.52 10.936 7.392C11.264 7.096 11.66 6.864 12.124 6.696C12.596 6.528 13.08 6.444 13.576 6.444C14.368 6.444 15 6.644 15.472 7.044C15.944 7.444 16.176 7.98 16.168 8.652C16.168 9.116 16.048 9.528 15.808 9.888C15.568 10.24 15.236 10.496 14.812 10.656Z" fill="#222222"/>
<defs>
<filter id="filter0_d" x="0" y="0" width="31" height="34" filterUnits="userSpaceOnUse" color-interpolation-filters="sRGB">
<feFlood flood-opacity="0" result="BackgroundImageFix"/>
<feColorMatrix in="SourceAlpha" type="matrix" values="0 0 0 0 0 0 0 0 0 0 0 0 0 0 0 0 0 0 127 0"/>
<feOffset dy="4"/>
<feGaussianBlur stdDeviation="2"/>
<feColorMatrix type="matrix" values="0 0 0 0 0 0 0 0 0 0 0 0 0 0 0 0 0 0 0.16 0"/>
<feBlend mode="normal" in2="BackgroundImageFix" result="effect1_dropShadow"/>
<feBlend mode="normal" in="SourceGraphic" in2="effect1_dropShadow" result="shape"/>
</filter>
</defs>
</svg>
