<svg width="201" height="79" viewBox="0 0 201 79" fill="none" xmlns="http://www.w3.org/2000/svg">
<path d="M42.3583 78.4106C40.443 78.4106 39.0665 77.8624 38.2285 76.766C37.3906 75.6399 36.9717 73.9804 36.9717 71.7876C36.9717 69.5651 37.9143 63.2976 39.7996 52.9852L37.4206 48.2291C40.8021 46.0658 43.8844 44.9842 46.6675 44.9842C48.5229 44.9842 49.6301 45.8732 49.9892 47.6512C53.0715 45.9028 56.094 45.0287 59.0566 45.0287C61.0018 45.0287 62.7075 45.4731 64.1739 46.3621C65.9095 47.3993 66.7774 49.1921 66.7774 51.7406C66.7774 55.9485 64.4282 59.0008 59.73 60.8973C64.518 61.7271 66.9121 64.3792 66.9121 68.8539C66.9121 71.7579 65.7001 74.0694 63.2761 75.7881C60.8522 77.5068 58.1289 78.3662 55.1065 78.3662C52.1139 78.3662 49.7049 77.7439 47.8795 76.4993C46.1139 77.7735 44.2735 78.4106 42.3583 78.4106ZM56.5429 67.876C56.5429 66.4832 56.1239 65.4609 55.286 64.8089C54.478 64.157 53.3858 63.831 52.0092 63.831C50.6326 63.831 49.0915 64.1125 47.3857 64.6756C46.9069 67.1944 46.6675 69.3428 46.6675 71.1208C48.1339 71.8024 49.6601 72.1432 51.2461 72.1432C52.8321 72.1432 54.104 71.7728 55.0616 71.0319C56.0491 70.2911 56.5429 69.2391 56.5429 67.876ZM53.6252 50.8961C52.4581 50.8961 51.2012 51.1183 49.8546 51.5628C49.675 52.7185 49.1214 55.6818 48.1937 60.4528C50.6775 60.275 52.7873 59.6824 54.5229 58.6748C56.2586 57.6377 57.1264 56.156 57.1264 54.2298C57.1264 52.0073 55.9593 50.8961 53.6252 50.8961Z" fill="#222222"/>
<path d="M92.4011 53.9631C94.077 53.9631 95.5134 54.6299 96.7104 55.9634C97.9373 57.2969 98.5508 59.2378 98.5508 61.7863C98.5508 64.3052 98.1019 66.6462 97.2042 68.8094C96.3064 70.943 95.1244 72.6914 93.658 74.0545C92.1917 75.4177 90.5308 76.4845 88.6754 77.2549C86.8201 77.9958 84.9198 78.3662 82.9746 78.3662C79.0544 78.3662 75.9571 77.2994 73.6828 75.1658C71.4085 73.0322 70.2713 70.2022 70.2713 66.6758C70.2713 61.9049 71.8125 58.0377 74.8948 55.0744C78.007 52.0814 81.9572 50.5849 86.7452 50.5849C87.8225 50.5849 88.8999 50.7034 89.9772 50.9405C90.3064 51.9184 90.4859 53.0297 90.5158 54.2743C91.1443 54.0668 91.7727 53.9631 92.4011 53.9631ZM86.8799 60.1417C86.8799 59.3119 87.0744 58.3785 87.4634 57.3413C87.8824 56.3041 88.5408 55.4744 89.4385 54.8521C85.4884 55.6818 82.7652 57.2672 81.2689 59.6083C79.9821 61.6233 79.3387 63.6977 79.3387 65.8313C79.3387 67.9649 79.7726 69.6836 80.6404 70.9875C81.5382 72.2617 82.6754 72.8988 84.0519 72.8988C87.1043 72.8988 89.259 70.9282 90.5158 66.987C88.0919 65.5053 86.8799 63.2235 86.8799 60.1417Z" fill="#222222"/>
<path d="M124.489 53.9631C126.165 53.9631 127.601 54.6299 128.798 55.9634C130.025 57.2969 130.639 59.2378 130.639 61.7863C130.639 64.3052 130.19 66.6462 129.292 68.8094C128.394 70.943 127.212 72.6914 125.746 74.0545C124.28 75.4177 122.619 76.4845 120.763 77.2549C118.908 77.9958 117.008 78.3662 115.063 78.3662C111.142 78.3662 108.045 77.2994 105.771 75.1658C103.496 73.0322 102.359 70.2022 102.359 66.6758C102.359 61.9049 103.9 58.0377 106.983 55.0744C110.095 52.0814 114.045 50.5849 118.833 50.5849C119.911 50.5849 120.988 50.7034 122.065 50.9405C122.394 51.9184 122.574 53.0297 122.604 54.2743C123.232 54.0668 123.861 53.9631 124.489 53.9631ZM118.968 60.1417C118.968 59.3119 119.162 58.3785 119.551 57.3413C119.97 56.3041 120.629 55.4744 121.526 54.8521C117.576 55.6818 114.853 57.2672 113.357 59.6083C112.07 61.6233 111.427 63.6977 111.427 65.8313C111.427 67.9649 111.861 69.6836 112.728 70.9875C113.626 72.2617 114.763 72.8988 116.14 72.8988C119.192 72.8988 121.347 70.9282 122.604 66.987C120.18 65.5053 118.968 63.2235 118.968 60.1417Z" fill="#222222"/>
<path d="M138.891 49.607L136.377 46.051C140.118 43.8878 143.066 42.8062 145.22 42.8062C146.447 42.8062 147.315 43.058 147.824 43.5618C148.333 44.0359 148.587 44.8509 148.587 46.0066C148.587 47.1326 148.393 48.718 148.003 50.7627C147.644 52.8074 147.151 55.2225 146.522 58.0081C145.924 60.7936 145.49 63.0309 145.22 64.72L148.048 62.2308C148.318 61.9938 148.752 61.6233 149.35 61.1196C149.979 60.5862 150.412 60.2009 150.652 59.9639C150.921 59.7268 151.28 59.4008 151.729 58.986C152.178 58.5415 152.507 58.171 152.717 57.8747C152.926 57.5784 153.166 57.2376 153.435 56.8524C153.854 56.2004 154.063 55.4744 154.063 54.6743C154.063 53.8446 153.944 53.1186 153.704 52.4963C155.829 51.222 157.834 50.5849 159.719 50.5849C160.976 50.5849 161.979 50.985 162.727 51.7851C163.475 52.5555 163.849 53.6816 163.849 55.1633C163.849 56.6449 163.161 58.1414 161.784 59.6527C160.437 61.1344 158.762 62.4383 156.757 63.5643C157.684 66.6166 158.881 69.4169 160.348 71.9654C161.814 74.5138 163.041 76.04 164.029 76.5437C162.832 77.7587 160.976 78.3662 158.462 78.3662C156.607 78.3662 155.036 77.7439 153.749 76.4993C152.492 75.2547 151.37 73.21 150.383 70.3652L149.26 67.2092L144.637 69.4762C144.607 69.8021 144.592 70.2911 144.592 70.943C144.592 73.4026 145.056 75.151 145.984 76.1881C143.889 77.6402 141.988 78.3662 140.283 78.3662C138.577 78.3662 137.32 77.818 136.512 76.7215C135.734 75.5955 135.345 74.0545 135.345 72.0987C135.345 70.1429 135.899 66.1424 137.006 60.0972C138.113 54.052 138.742 50.5553 138.891 49.607Z" fill="#222222"/>
<path d="M63.9005 51.8492C63.9223 51.1959 63.4736 48.8878 61.5488 47.9868" stroke="white" stroke-width="1.45248" stroke-linecap="round" stroke-linejoin="round"/>
<path d="M95.3319 59.5549C95.3539 58.9017 94.9167 57.3701 92.9922 56.4697" stroke="white" stroke-width="1.45248" stroke-linecap="round" stroke-linejoin="round"/>
<path d="M127.674 59.6355C127.696 58.9822 127.259 57.4506 125.334 56.5503" stroke="white" stroke-width="1.45248" stroke-linecap="round" stroke-linejoin="round"/>
<path d="M160.733 56.481C161.068 54.8922 160.733 52.7235 158.088 53.3732" stroke="white" stroke-width="1.45248" stroke-linecap="round" stroke-linejoin="round"/>
<path d="M0.5 21.2133C0.5 19.1389 0.948881 17.035 1.84664 14.9014C2.74441 12.7381 4.01624 10.7379 5.66213 8.9006C7.30803 7.06333 9.4477 5.56685 12.0811 4.41115C14.7445 3.22581 17.4827 2.63315 20.2957 2.63315C23.1386 2.63315 25.3531 3.15173 26.9391 4.1889C28.5551 5.22607 29.3631 6.66328 29.3631 8.50055C29.3631 10.3378 28.7496 11.775 27.5226 12.8122C26.3256 13.8197 24.9491 14.3235 23.3929 14.3235C21.8368 14.3235 20.4303 13.9975 19.1735 13.3456C17.9465 12.664 16.959 11.701 16.2108 10.4564C14.5949 11.2268 13.2033 12.7381 12.0362 14.9903C10.8692 17.2424 10.2856 19.5093 10.2856 21.7911C10.2856 24.0433 10.6597 25.8361 11.4078 27.1696C12.1559 28.4734 13.2183 29.1254 14.5949 29.1254C15.9714 29.1254 17.1834 28.429 18.2308 27.0362C19.3081 25.6435 19.8468 23.9692 19.8468 22.0134C22.8692 22.0134 25.0239 22.2504 26.3107 22.7246C27.6274 23.1987 28.2857 24.2211 28.2857 25.7916C28.2857 28.2512 26.9391 30.5626 24.2458 32.7258C21.5525 34.8891 18.1709 35.9707 14.1011 35.9707C10.0312 35.9707 6.73945 34.7261 4.22571 32.2369C1.7419 29.7477 0.5 26.0731 0.5 21.2133Z" fill="#222222"/>
<path d="M32.2636 30.4589C32.2636 29.2735 32.5628 26.977 33.1614 23.5691C33.7898 20.1613 34.4332 17.0498 35.0915 14.2346L32.7574 10.6786C36.498 9.01914 39.1165 8.1894 40.6128 8.1894C42.139 8.1894 42.9021 9.13767 42.9021 11.0342C42.9021 12.0714 42.4083 14.2346 41.4208 17.5239L41.8696 17.7462C44.0243 11.375 46.7026 8.1894 49.9046 8.1894C51.371 8.1894 52.4932 8.6339 53.2712 9.5229C54.0493 10.4119 54.4383 11.4046 54.4383 12.5011C54.4383 14.1309 53.8248 15.5237 52.5979 16.6794C51.371 17.8351 49.5305 18.4129 47.0767 18.4129C43.3659 18.4129 41.5105 22.1912 41.5105 29.7477C41.5105 31.5849 41.8248 32.9333 42.4532 33.7926C40.5978 35.2447 38.8921 35.9707 37.3359 35.9707C33.9544 35.9707 32.2636 34.1334 32.2636 30.4589Z" fill="#222222"/>
<path d="M71.3622 29.3921L70.9133 29.1698C70.1053 31.3034 68.9382 32.9777 67.412 34.1927C65.9157 35.378 64.2399 35.9707 62.3846 35.9707C59.8409 35.9707 57.806 35.0224 56.2798 33.1259C54.7536 31.2293 53.9905 28.6957 53.9905 25.5249C53.9905 20.6058 55.6513 16.4867 58.9731 13.1678C62.3247 9.84887 66.4843 8.1894 71.452 8.1894C72.7388 8.1894 73.9208 8.30794 74.9981 8.545C75.1777 9.37474 75.2824 10.1008 75.3123 10.7231C76.8086 9.77479 78.3498 9.30065 79.9358 9.30065C82.1204 9.30065 83.2126 10.4712 83.2126 12.8122C83.2126 13.6419 82.7338 16.146 81.7762 20.3243C80.8485 24.5026 80.3847 27.5993 80.3847 29.6143C80.3847 31.6294 80.8485 33.0222 81.7762 33.7926C80.1004 35.2447 78.3498 35.9707 76.5243 35.9707C74.7288 35.9707 73.4121 35.4373 72.5742 34.3705C71.7662 33.3037 71.3622 31.6442 71.3622 29.3921ZM62.4294 23.3469C62.4294 24.7989 62.7287 25.925 63.3272 26.7251C63.9556 27.4955 64.8384 27.8808 65.9756 27.8808C67.1128 27.8808 68.235 27.4659 69.3422 26.6362C70.4495 25.8064 71.3772 24.6656 72.1253 23.2135C72.3946 20.2205 72.9781 16.6794 73.8759 12.59C70.8534 12.59 68.1901 13.6716 65.8858 15.8348C63.5816 17.998 62.4294 20.5021 62.4294 23.3469Z" fill="#222222"/>
<path d="M87.2673 24.2803C87.2673 19.539 88.9132 15.6718 92.205 12.6789C95.4968 9.68589 99.6415 8.1894 104.639 8.1894C107.213 8.1894 109.248 8.67836 110.744 9.65626C112.24 10.6045 112.988 11.8047 112.988 13.2567C112.988 14.7087 112.479 15.82 111.462 16.5905C110.474 17.3609 109.382 17.7462 108.185 17.7462C107.018 17.7462 105.941 17.435 104.953 16.8127C103.996 16.1904 103.247 15.2866 102.709 14.1013C100.824 14.8717 99.3272 16.2349 98.22 18.1907C97.1427 20.1465 96.604 22.1023 96.604 24.0581C96.604 26.0139 96.9931 27.5993 97.7711 28.8142C98.5492 30.0292 99.5667 30.6367 100.824 30.6367C102.08 30.6367 103.098 30.2218 103.876 29.3921C104.684 28.5623 105.088 27.3326 105.088 25.7027C109.457 25.7027 111.642 26.7251 111.642 28.7698C111.642 30.5181 110.534 32.1628 108.32 33.7037C106.105 35.215 103.188 35.9707 99.5666 35.9707C95.9457 35.9707 92.9831 34.9039 90.6788 32.7703C88.4045 30.607 87.2673 27.7771 87.2673 24.2803Z" fill="#222222"/>
<path d="M120.336 7.2115L117.822 3.6555C121.563 1.49226 124.511 0.410645 126.665 0.410645C127.892 0.410645 128.76 0.662529 129.269 1.1663C129.778 1.64043 130.032 2.45535 130.032 3.61105C130.032 4.73712 129.837 6.3225 129.448 8.3672C129.089 10.4119 128.596 12.827 127.967 15.6126C127.369 18.3981 126.935 20.6354 126.665 22.3245L129.493 19.8353C129.763 19.5982 130.197 19.2278 130.795 18.7241C131.424 18.1907 131.857 17.8054 132.097 17.5684C132.366 17.3313 132.725 17.0053 133.174 16.5905C133.623 16.146 133.952 15.7755 134.162 15.4792C134.371 15.1829 134.611 14.8421 134.88 14.4569C135.299 13.8049 135.508 13.0789 135.508 12.2788C135.508 11.4491 135.389 10.7231 135.149 10.1008C137.274 8.82652 139.279 8.1894 141.164 8.1894C142.421 8.1894 143.424 8.58945 144.172 9.38955C144.92 10.16 145.294 11.2861 145.294 12.7678C145.294 14.2494 144.606 15.7459 143.229 17.2572C141.882 18.7389 140.207 20.0427 138.202 21.1688C139.129 24.2211 140.326 27.0214 141.793 29.5699C143.259 32.1183 144.486 33.6445 145.474 34.1482C144.277 35.3632 142.421 35.9707 139.907 35.9707C138.052 35.9707 136.481 35.3484 135.194 34.1038C133.937 32.8592 132.815 30.8145 131.828 27.9697L130.705 24.8137L126.082 27.0807C126.052 27.4066 126.037 27.8956 126.037 28.5475C126.037 31.0071 126.501 32.7555 127.428 33.7926C125.334 35.2447 123.433 35.9707 121.728 35.9707C120.022 35.9707 118.765 35.4225 117.957 34.326C117.179 33.2 116.79 31.659 116.79 29.7032C116.79 27.7474 117.344 23.7469 118.451 17.7017C119.558 11.6565 120.187 8.15977 120.336 7.2115Z" fill="#222222"/>
<path d="M161.213 35.9707C157.113 35.9707 153.941 34.9187 151.696 32.8147C149.482 30.7108 148.375 27.866 148.375 24.2803C148.375 19.5093 150.021 15.6422 153.312 12.6789C156.634 9.68589 160.794 8.1894 165.791 8.1894C168.574 8.1894 170.684 8.8117 172.121 10.0563C173.557 11.2713 174.275 12.8863 174.275 14.9014C174.275 17.6573 172.914 19.9539 170.19 21.7911C167.497 23.5988 163.322 24.5174 157.667 24.547C157.756 26.4436 158.19 27.94 158.968 29.0365C159.746 30.1033 160.719 30.6367 161.886 30.6367C163.053 30.6367 164.056 30.2514 164.894 29.481C165.761 28.7105 166.195 27.4511 166.195 25.7027C170.564 25.7027 172.749 26.7251 172.749 28.7698C172.749 30.5181 171.672 32.1628 169.517 33.7037C167.362 35.215 164.594 35.9707 161.213 35.9707ZM165.028 13.3901C163.502 13.3901 162.096 14.1457 160.809 15.657C159.552 17.1683 158.639 18.9463 158.071 20.991C161.063 20.7539 163.308 20.0872 164.804 18.9908C166.33 17.8647 167.093 16.6794 167.093 15.4348C167.093 14.8421 166.899 14.3531 166.51 13.9679C166.15 13.5827 165.657 13.3901 165.028 13.3901Z" fill="#222222"/>
<path d="M178.325 30.4589C178.325 29.2735 178.625 26.977 179.223 23.5691C179.851 20.1613 180.495 17.0498 181.153 14.2346L178.819 10.6786C182.56 9.01914 185.178 8.1894 186.674 8.1894C188.201 8.1894 188.964 9.13767 188.964 11.0342C188.964 12.0714 188.47 14.2346 187.482 17.5239L187.931 17.7462C190.086 11.375 192.764 8.1894 195.966 8.1894C197.433 8.1894 198.555 8.6339 199.333 9.5229C200.111 10.4119 200.5 11.4046 200.5 12.5011C200.5 14.1309 199.887 15.5237 198.66 16.6794C197.433 17.8351 195.592 18.4129 193.138 18.4129C189.428 18.4129 187.572 22.1912 187.572 29.7477C187.572 31.5849 187.886 32.9333 188.515 33.7926C186.66 35.2447 184.954 35.9707 183.398 35.9707C180.016 35.9707 178.325 34.1334 178.325 30.4589Z" fill="#222222"/>
<path d="M26.3984 9.63544C26.3075 8.70761 26.5874 6.13625 23.3535 5.61523" stroke="white" stroke-width="1.45248" stroke-linecap="round" stroke-linejoin="round"/>
<path d="M51.9031 13.7639C52.2534 12.6509 51.4521 10.6787 49.5634 10.6787" stroke="white" stroke-width="1.45248" stroke-linecap="round" stroke-linejoin="round"/>
<path d="M197.606 13.8674C197.606 12.5145 198.002 10.7598 195.662 10.7598" stroke="white" stroke-width="1.45248" stroke-linecap="round" stroke-linejoin="round"/>
<path d="M110.213 14.5023C110.64 13.4444 109.951 11.5906 108.076 11.2227" stroke="white" stroke-width="1.45248" stroke-linecap="round" stroke-linejoin="round"/>
<path d="M171.36 14.0989C171.382 13.4456 170.945 11.914 169.021 11.0137" stroke="white" stroke-width="1.45248" stroke-linecap="round" stroke-linejoin="round"/>
<path d="M80.5647 15.0309C81.1524 13.2324 80.9921 10.905 78.2765 11.718" stroke="white" stroke-width="1.45248" stroke-linecap="round" stroke-linejoin="round"/>
<path d="M142.439 14.0161C142.774 12.4274 142.439 10.2586 139.794 10.9083" stroke="white" stroke-width="1.45248" stroke-linecap="round" stroke-linejoin="round"/>
</svg>
