<svg width="18" height="18" viewBox="0 0 18 18" fill="none" xmlns="http://www.w3.org/2000/svg">
<path d="M5.13672 5.88375C5.13672 4.6575 6.15484 3.65625 7.39797 3.65625C8.64109 3.65625 9.65922 4.6575 9.65922 5.88375C9.65922 7.11 8.64109 8.11125 7.39797 8.11125C6.15484 8.11125 5.13672 7.11 5.13672 5.88375Z" stroke="#777777" stroke-miterlimit="10" stroke-linecap="round" stroke-linejoin="round"/>
<path d="M1.96875 12.7743C1.96875 13.6406 2.88 14.3437 4.005 14.3437H10.7944C11.9194 14.3437 12.8306 13.6406 12.8306 12.7743V12.5775C12.8306 10.845 10.4006 9.44434 7.4025 9.44434C4.40437 9.44434 1.97437 10.8506 1.97437 12.5775V12.7743H1.96875Z" stroke="#777777" stroke-miterlimit="10" stroke-linecap="round" stroke-linejoin="round"/>
<path d="M11.3847 4.40465C11.5366 4.36527 11.6941 4.34277 11.8516 4.34277C12.8078 4.34277 13.5897 5.1134 13.5897 6.05277C13.5897 6.99215 12.8078 7.76277 11.8516 7.76277C11.5478 7.76277 11.2553 7.68402 11.0078 7.5434" stroke="#777777" stroke-miterlimit="10" stroke-linecap="round" stroke-linejoin="round"/>
<path d="M14.4666 13.1124C15.3328 13.1124 16.0303 12.5724 16.0303 11.9087V11.7568C16.0303 10.5812 14.5678 9.5968 12.6328 9.38867" stroke="#777777" stroke-miterlimit="10" stroke-linecap="round" stroke-linejoin="round"/>
</svg>
