<svg width="36" height="36" viewBox="0 0 36 36" fill="none" xmlns="http://www.w3.org/2000/svg">
<path d="M19.6875 7.53058H19.6875C20.7318 7.53058 21.7333 7.99151 22.4717 8.81199C23.2102 9.63246 23.625 10.7453 23.625 11.9056V18.9056C23.625 20.0659 23.2102 21.1787 22.4717 21.9992C21.7333 22.8196 20.7318 23.2806 19.6875 23.2806H19.6875C19.1704 23.2806 18.6584 23.1674 18.1807 22.9476C17.703 22.7277 17.2689 22.4054 16.9033 21.9992C16.5376 21.5929 16.2476 21.1106 16.0497 20.5798C15.8518 20.049 15.75 19.4801 15.75 18.9056V11.9056C15.75 10.7452 16.1648 9.63245 16.9033 8.81198C17.6417 7.99151 18.6432 7.53058 19.6875 7.53058Z" fill="#FFD262"/>
<path d="M18 3.375H18C19.4918 3.375 20.9226 3.96763 21.9775 5.02252C23.0324 6.07742 23.625 7.50816 23.625 9V18C23.625 19.4918 23.0324 20.9226 21.9775 21.9775C20.9226 23.0324 19.4918 23.625 18 23.625H18C17.2613 23.625 16.5299 23.4795 15.8474 23.1968C15.1649 22.9141 14.5448 22.4998 14.0225 21.9775C13.5002 21.4552 13.0859 20.8351 12.8032 20.1526C12.5205 19.4701 12.375 18.7387 12.375 18V8.99999C12.375 7.50815 12.9676 6.07741 14.0225 5.02252C15.0774 3.96763 16.5081 3.375 18 3.375V3.375Z" stroke="#222222" stroke-linecap="round" stroke-linejoin="round"/>
<path d="M18 28.125V32.625" stroke="#222222" stroke-linecap="round" stroke-linejoin="round"/>
<path d="M28.0629 19.125C27.786 21.6002 26.6065 23.8865 24.75 25.5468C22.8936 27.2071 20.4903 28.125 17.9997 28.125C15.5091 28.125 13.1059 27.2071 11.2494 25.5468C9.39293 23.8864 8.21348 21.6002 7.93652 19.125" stroke="#222222" stroke-linecap="round" stroke-linejoin="round"/>
</svg>
