<svg width="36" height="36" viewBox="0 0 36 36" fill="none" xmlns="http://www.w3.org/2000/svg">
<path d="M19.126 16.4955H22.5149L32.6817 6.32869L30.9385 4.62726L19.126 16.4955Z" fill="#FFD262"/>
<path d="M9.87029 32.1898H20.4854C20.5995 32.1898 20.7126 32.1686 20.818 32.1275C20.9235 32.0864 21.0193 32.0261 21.1001 31.9501L27.8714 25.5771C27.9521 25.5012 28.0161 25.411 28.0598 25.3117C28.1035 25.2124 28.126 25.106 28.126 24.9986V19.5079V18.6898H9.87029C9.63974 18.6898 9.41862 18.776 9.25559 18.9294C9.09257 19.0828 9.00098 19.2909 9.00098 19.5079V32.1898H9.87029Z" fill="#FFD262"/>
<path d="M8.46484 14.571H18.0524" stroke="#222222" stroke-linecap="round" stroke-linejoin="round"/>
<path d="M8.46484 19.071H23.6774" stroke="#222222" stroke-linecap="round" stroke-linejoin="round"/>
<path d="M8.46484 23.571H16.0711" stroke="#222222" stroke-linecap="round" stroke-linejoin="round"/>
<path d="M24.1896 7.89844H4.82617C4.5278 7.89844 4.24166 8.01696 4.03068 8.22794C3.8197 8.43892 3.70117 8.72507 3.70117 9.02344V31.5234C3.70117 31.8218 3.8197 32.108 4.03068 32.3189C4.24166 32.5299 4.5278 32.6484 4.82617 32.6484H20.1102C20.2579 32.6484 20.4042 32.6193 20.5407 32.5628C20.6772 32.5063 20.8012 32.4234 20.9057 32.3189L28.1217 25.1029C28.2261 24.9985 28.309 24.8745 28.3655 24.738C28.4221 24.6015 28.4512 24.4552 28.4512 24.3074V10.6302" stroke="#222222" stroke-linecap="round" stroke-linejoin="round"/>
<path d="M28.3494 24.7723H20.5762V32.5461" stroke="#222222" stroke-linecap="round" stroke-linejoin="round"/>
<path d="M22.137 16.9069H18.748V13.518L28.9149 3.3512L32.3038 6.74013L22.137 16.9069Z" stroke="#222222" stroke-linecap="round" stroke-linejoin="round"/>
<path d="M26.3726 5.89288L29.7615 9.28182" stroke="#222222" stroke-linecap="round" stroke-linejoin="round"/>
</svg>
