<svg id="Layer_1" enable-background="new 0 0 512.12 512.12" height="512" viewBox="0 0 512.12 512.12" width="512" xmlns="http://www.w3.org/2000/svg"><g><path d="m396.828 171.947c0-.001 0-.001 0 0-4.816-19.974-15.39-37.459-29.771-49.237-15.59-12.767-33.76-17.484-51.164-13.289-17.404 4.197-31.427 16.68-39.483 35.149-7.433 17.038-8.873 37.42-4.057 57.394s15.39 37.459 29.771 49.236c11.877 9.727 25.252 14.782 38.646 14.782 4.186 0 8.374-.494 12.519-1.493 17.404-4.197 31.427-16.68 39.483-35.149 7.431-17.038 8.872-37.42 4.056-57.393zm-50.574 63.378c-17.935 4.323-38.416-14.176-44.738-40.394-6.322-26.22 3.481-52.023 21.409-56.346 1.755-.423 3.533-.627 5.322-.627 16.48 0 33.712 17.37 39.416 41.021 6.323 26.22-3.481 52.023-21.409 56.346z"/><path d="m239.088 201.964c4.816-19.973 3.376-40.355-4.057-57.394-8.056-18.469-22.078-30.952-39.483-35.149-17.406-4.198-35.576.522-51.164 13.289-14.381 11.778-24.954 29.264-29.771 49.236-4.817 19.973-3.376 40.356 4.056 57.394 7.94 18.202 22.331 31.013 39.483 35.149 4.016.968 8.112 1.445 12.231 1.444 13.472 0 27.167-5.097 38.934-14.733 14.382-11.778 24.955-29.263 29.771-49.236zm-48.778 26.026c-8.147 6.672-17.07 9.278-25.124 7.335-8.054-1.942-14.808-8.328-19.019-17.98-4.765-10.922-5.636-24.906-2.39-38.366 5.704-23.654 22.935-41.022 39.416-41.022 1.787 0 3.568.205 5.322.628 17.928 4.323 27.731 30.126 21.409 56.346-3.245 13.459-10.395 25.509-19.614 33.059z"/><path d="m256.582 274.116c-38.945 0-70.63 31.684-70.63 70.629v50.246c0 .258.017.512.02.77.001.023 0 .047.002.07.454 38.558 31.945 69.789 70.609 69.789 38.945 0 70.63-31.684 70.63-70.629v-50.246c-.001-38.945-31.685-70.629-70.631-70.629zm0 30c22.403 0 40.63 18.226 40.63 40.629v13.82c-10.502-6.493-24.127-11.473-41.228-11.473-16.629 0-29.831 4.693-40.032 10.924v-13.271c.001-22.403 18.227-40.629 40.63-40.629zm0 131.505c-21.176 0-38.611-16.286-40.458-36.99 4.098-6.371 16.325-21.539 39.86-21.539 23.484 0 36.477 15.169 41.037 21.8-1.97 20.58-19.351 36.729-40.439 36.729z"/><path d="m507.859 302.603c2.842-15.1 4.186-30.045 4.186-46.55 0-68.378-26.628-132.664-74.979-181.014-48.35-48.351-112.636-74.979-181.013-74.979-68.378 0-132.664 26.628-181.014 74.979-48.351 48.35-74.979 112.635-74.979 181.014 0 16.369 1.36 31.289 4.238 46.469-5.755 12.265-5.936 26.933.702 40.025l12.9 25.441c9.876 19.478 15.096 41.317 15.096 63.155v65.917c0 8.284 6.716 15 15 15h62.209c8.284 0 15-6.716 15-15v-20.627c38.951 23.642 82.835 35.612 130.847 35.612 47.042 0 91.742-12.301 130.862-35.785v20.8c0 8.284 6.716 15 15 15h62.209c8.284 0 15-6.716 15-15v-65.917c0-21.838 5.221-43.677 15.096-63.154l12.901-25.442c6.624-13.064 6.457-27.696.739-39.944zm-412.653 179.457h-32.209v-50.917c0-26.529-6.342-53.059-18.339-76.722l-12.9-25.441c-2.617-5.161-2.138-11.034.779-15.549.075-.112.152-.222.225-.336 1.357-1.986 3.192-3.695 5.461-4.932 7.468-4.075 16.946-1.36 21.127 6.05l17.839 31.624c11.787 20.895 18.018 44.622 18.018 68.613v67.61zm160.847-.015c-48.902 0-92.881-14.007-130.847-41.631v-25.965c0-29.146-7.569-57.969-21.888-83.353l-17.839-31.624c-10.871-19.271-34.021-27.64-54.354-20.809-.717-7.256-1.065-14.662-1.065-22.611 0-60.365 23.507-117.117 66.191-159.801 42.684-42.685 99.436-66.192 159.801-66.192s117.116 23.507 159.8 66.192c42.685 42.684 66.191 99.436 66.191 159.801 0 7.875-.35 15.328-1.055 22.609-20.33-6.826-43.477 1.541-54.347 20.811l-17.839 31.624c-14.319 25.385-21.889 54.208-21.889 83.353v25.921c-37.909 27.284-82.99 41.675-130.86 41.675zm224.31-153.065-12.9 25.442c-11.997 23.662-18.339 50.192-18.339 76.721v50.917h-32.209v-67.611c0-23.991 6.23-47.717 18.018-68.614l17.839-31.624c4.181-7.409 13.656-10.125 21.127-6.05 2.317 1.264 4.187 3.016 5.552 5.057.028.044.056.087.084.13 2.963 4.527 3.46 10.44.828 15.632z"/></g></svg>