<svg width="269" height="150" viewBox="0 0 269 150" fill="none" xmlns="http://www.w3.org/2000/svg">
<path d="M118 141L110 139.5C117.6 128.7 119.833 122 120 119.5L127.5 120.5C128.3 124.5 121.5 135.833 118 141Z" fill="#999999"/>
<rect x="107.441" y="138" width="18" height="8" rx="4" transform="rotate(10.3767 107.441 138)" fill="white"/>
<path d="M147.251 141.959L139.937 145.531C139.589 132.329 137.382 125.62 136.024 123.515L142.638 119.841C145.667 122.573 146.976 135.725 147.251 141.959Z" fill="#999999"/>
<rect x="138" y="142" width="18" height="8" rx="4" fill="white"/>
<path d="M173.419 20.5019L181.16 20.4084L176.965 24.5664C176.846 24.6837 176.848 24.8738 176.971 24.9881C177.092 25.1024 177.289 25.101 177.407 24.9822L181.602 20.8242L181.716 29.6079C181.719 29.8277 181.905 30.0029 182.132 30C182.359 29.997 182.541 29.8173 182.538 29.5975L182.424 20.8138L187.679 25.7677C187.8 25.8821 187.997 25.8806 188.115 25.7618C188.233 25.6445 188.232 25.4544 188.109 25.34L182.854 20.3861L190.594 20.2925C190.822 20.2896 191.003 20.1099 191 19.8901C190.997 19.6703 190.811 19.4951 190.584 19.4981L182.843 19.5916L187.038 15.4336C187.157 15.3163 187.155 15.1262 187.032 15.0119C186.971 14.954 186.892 14.9258 186.813 14.9273C186.734 14.9287 186.654 14.9584 186.596 15.0178L182.401 19.1758L182.287 10.3921C182.284 10.1723 182.098 9.99707 181.871 10C181.644 10.003 181.462 10.1827 181.464 10.4025L181.578 19.1862L176.323 14.2323C176.261 14.1744 176.183 14.1461 176.103 14.1476C176.025 14.1491 175.945 14.1788 175.886 14.2382C175.768 14.3555 175.77 14.5456 175.892 14.66L181.147 19.6139L173.407 19.7075C173.18 19.7104 172.998 19.8901 173 20.1099C173.006 20.3282 173.192 20.5049 173.419 20.5019Z" fill="#D5E5FF"/>
<path d="M56.5631 38.0931L48.8229 38.5519L52.8109 34.1953C52.9234 34.0706 52.9124 33.8824 52.7835 33.7737C52.6546 33.6649 52.4598 33.6755 52.3474 33.8002L48.3593 38.1568L47.8025 29.3746C47.7888 29.1545 47.5941 28.9875 47.3664 29.0007C47.1388 29.014 46.966 29.2023 46.9797 29.4223L47.5365 38.2045L42.0289 33.4952C41.8999 33.3865 41.7052 33.3971 41.5927 33.5218C41.4803 33.6464 41.4913 33.8346 41.6202 33.9434L47.1278 38.6526L39.3875 39.1114C39.1598 39.1246 38.987 39.3129 39.0008 39.533C39.0145 39.7531 39.2092 39.9201 39.4369 39.9069L47.1771 39.4481L43.1891 43.8047C43.0766 43.9294 43.0876 44.1176 43.2165 44.2263C43.2796 44.282 43.3619 44.3059 43.4414 44.3006C43.521 44.2953 43.5978 44.2608 43.6554 44.1998L47.6407 39.8432L48.1975 48.6254C48.2112 48.8455 48.4059 49.0125 48.6336 48.9993C48.8612 48.986 49.034 48.7977 49.0203 48.5777L48.4635 39.7955L53.9711 44.5048C54.0342 44.5605 54.1165 44.5843 54.1961 44.579C54.2756 44.5737 54.3524 44.5392 54.41 44.4782C54.5225 44.3536 54.5115 44.1654 54.3826 44.0566L48.8722 39.3474L56.6125 38.8886C56.8402 38.8754 57.013 38.6871 56.9992 38.467C56.9855 38.2469 56.7908 38.0799 56.5631 38.0931Z" fill="#FFEED6"/>
<path d="M48.5948 120.853L40.8571 120.628L45.2297 116.645C45.3529 116.532 45.3584 116.344 45.2434 116.224C45.1257 116.105 44.9313 116.1 44.8081 116.211L40.4354 120.194L40.7092 111.411C40.7147 111.191 40.5367 111.008 40.3095 111C40.0822 110.995 39.8933 111.167 39.8851 111.387L39.6113 120.17L34.5787 115.001C34.461 114.882 34.2666 114.877 34.1434 114.988C34.0202 115.102 34.0147 115.29 34.1297 115.409L39.1622 120.578L31.4245 120.353C31.1973 120.347 31.0083 120.519 31.0001 120.739C30.9946 120.959 31.1726 121.142 31.3999 121.15L39.1376 121.375L34.7649 125.357C34.6417 125.471 34.6362 125.659 34.7512 125.778C34.8087 125.839 34.8881 125.871 34.9675 125.871C35.0469 125.874 35.1264 125.847 35.1893 125.789L39.562 121.806L39.2882 130.589C39.2827 130.809 39.4607 130.992 39.6879 131C39.9152 131.005 40.1041 130.833 40.1123 130.613L40.3861 121.83L45.4186 126.999C45.4761 127.06 45.5555 127.092 45.635 127.092C45.7144 127.094 45.7938 127.068 45.8567 127.009C45.9799 126.896 45.9854 126.708 45.8704 126.588L40.8379 121.42L48.5756 121.645C48.8029 121.65 48.9918 121.478 49 121.258C49 121.044 48.822 120.861 48.5948 120.853Z" fill="#FFE1D7"/>
<path d="M247.612 78.1862L240.729 78.5975L244.274 74.6753C244.376 74.5637 244.364 74.3933 244.25 74.2963C244.136 74.1964 243.962 74.2082 243.863 74.3198L240.318 78.242L239.823 70.3359C239.811 70.1391 239.637 69.9863 239.436 70.001C239.235 70.0127 239.079 70.1831 239.094 70.38L239.589 78.2861L234.693 74.0466C234.579 73.9467 234.405 73.9584 234.306 74.0701C234.204 74.1817 234.216 74.3521 234.33 74.4491L239.226 78.6886L232.343 79.0999C232.142 79.1116 231.986 79.282 232.001 79.4789C232.013 79.6757 232.187 79.8285 232.388 79.8138L239.271 79.4025L235.726 83.3247C235.624 83.4364 235.636 83.6067 235.75 83.7037C235.807 83.7536 235.879 83.7742 235.948 83.7713C236.017 83.7683 236.086 83.736 236.137 83.6802L239.682 79.758L240.177 87.6641C240.189 87.8609 240.363 88.0137 240.564 87.999C240.765 87.9873 240.921 87.8169 240.906 87.62L240.411 79.7139L245.307 83.9534C245.364 84.0034 245.436 84.0239 245.505 84.021C245.574 84.0181 245.643 83.9858 245.694 83.9299C245.796 83.8183 245.784 83.6479 245.67 83.5509L240.774 79.3114L247.657 78.9001C247.858 78.8884 248.014 78.718 247.999 78.5211C247.987 78.3243 247.813 78.1744 247.612 78.1862Z" fill="#FFE1D7"/>
<path d="M267.996 59.8483C268.08 60.9494 267.254 61.9093 266.153 61.994C265.051 62.0787 264.091 61.2529 264.006 60.1518C263.921 59.0507 264.747 58.0907 265.849 58.006C266.951 57.9213 267.911 58.7436 267.996 59.8483Z" fill="white"/>
<path d="M4.99265 88.3112C5.09761 89.6881 4.06556 90.8877 2.68867 90.9927C1.31177 91.0976 0.1123 90.0655 0.00734586 88.6885C-0.097608 87.3115 0.934437 86.112 2.31133 86.007C3.68823 85.9046 4.8902 86.9367 4.99265 88.3112Z" fill="#D5E5FF"/>
<path d="M182.507 129.184C183.587 127.928 183.444 126.034 182.187 124.955C180.93 123.875 179.035 124.018 177.955 125.275C176.875 126.531 177.019 128.425 178.276 129.504C179.533 130.584 181.427 130.44 182.507 129.184Z" fill="#FFEED6"/>
<path d="M88.9957 9.84826C89.0804 10.9494 88.2542 11.9093 87.1527 11.994C86.0511 12.0787 85.0907 11.2529 85.006 10.1518C84.9212 9.05066 85.7474 8.0907 86.849 8.006C87.9506 7.9213 88.911 8.74361 88.9957 9.84826Z" fill="#FFE1D7"/>
<path d="M135.996 48.8483C136.08 49.9494 135.254 50.9093 134.153 50.994C133.051 51.0787 132.091 50.2529 132.006 49.1518C131.921 48.0507 132.747 47.0907 133.849 47.006C134.951 46.9213 135.911 47.7436 135.996 48.8483Z" fill="#FBE4E6"/>
<path d="M267.996 59.8483C268.08 60.9494 267.254 61.9093 266.153 61.994C265.051 62.0787 264.091 61.2529 264.006 60.1518C263.921 59.0507 264.747 58.0907 265.849 58.006C266.951 57.9213 267.911 58.7436 267.996 59.8483Z" fill="#FFEED6"/>
<path d="M225.996 98.8483C226.08 99.9494 225.254 100.909 224.153 100.994C223.051 101.079 222.091 100.253 222.006 99.1518C221.921 98.0507 222.747 97.0907 223.849 97.006C224.951 96.9213 225.911 97.7436 225.996 98.8483Z" fill="#FFEED6"/>
<path d="M87.6109 54.5176L87.5 54L87.3415 54.897C86.8371 57.748 85.2817 60.2927 83 62C85.2209 63.935 86.7632 66.5637 87.3891 69.4824L87.5 70L87.6585 69.103C88.1629 66.252 89.7183 63.7073 92 62C89.7791 60.065 88.2368 57.4363 87.6109 54.5176Z" fill="#FFEED6"/>
<path d="M190.927 78.6776L191 79L191.106 78.4401C191.443 76.6569 192.479 75.0679 194 74C192.519 72.791 191.492 71.1474 191.075 69.3224L191 69L190.894 69.5599C190.557 71.3431 189.521 72.9321 188 74C189.481 75.209 190.509 76.8526 190.927 78.6776Z" fill="#D5E5FF"/>
<path d="M225.415 47.5485L225.5 48L225.624 47.2166C226.018 44.7198 227.227 42.4951 229 41C227.273 39.3076 226.075 37.0051 225.585 34.4515L225.5 34L225.376 34.7834C224.982 37.2802 223.773 39.5049 222 41C223.729 42.6924 224.928 44.9919 225.415 47.5485Z" fill="#FFEED6"/>
<path d="M81.8407 102.577C80.4707 101.717 79.1007 100.897 77.6907 100.167C76.2807 99.4368 74.8507 98.7468 73.4007 98.1468C71.9507 97.5368 70.4507 97.0668 68.9907 96.5068C67.5307 95.9468 66.0607 95.4368 64.5907 94.8268C64.1107 94.6268 63.8707 94.0768 64.0707 93.5868C64.2307 93.1868 64.6407 92.9568 65.0407 93.0068C66.6907 93.1768 68.3007 93.6068 69.8507 94.1568C71.4107 94.7068 72.8707 95.5168 74.2907 96.3468C75.7107 97.1768 77.0807 98.0968 78.3607 99.1068C79.6407 100.127 80.8707 101.197 81.9907 102.377C82.0407 102.427 82.0407 102.507 81.9907 102.557C81.9507 102.607 81.8907 102.607 81.8407 102.577Z" fill="#D5E5FF"/>
<path d="M113.305 40.9127C112.905 39.7727 112.495 38.6627 112.015 37.5727C111.535 36.4927 111.035 35.4327 110.485 34.4127C109.935 33.3827 109.275 32.4327 108.725 31.4327C108.175 30.4227 107.595 29.4427 107.095 28.3727C106.865 27.8827 107.065 27.3127 107.545 27.0927C107.905 26.9227 108.325 26.9927 108.595 27.2527C109.525 28.1027 110.255 29.1227 110.895 30.1927C111.535 31.2627 111.945 32.4527 112.325 33.6327C112.715 34.8127 113.025 36.0127 113.215 37.2227C113.405 38.4427 113.545 39.6527 113.555 40.8727C113.555 40.9427 113.495 41.0027 113.425 41.0027C113.365 40.9927 113.325 40.9627 113.305 40.9127Z" fill="#D3EFF2"/>
<path d="M187.6 106.012C188.817 106.051 190.027 106.24 191.237 106.465C192.443 106.704 193.637 107.048 194.8 107.473C195.963 107.898 197.137 108.34 198.192 109.017C199.242 109.686 200.236 110.453 201.056 111.408C201.395 111.807 201.355 112.411 200.956 112.75C200.651 113.014 200.227 113.046 199.894 112.872C198.833 112.33 197.867 111.714 196.879 111.136C195.89 110.558 194.968 109.864 193.952 109.28C192.949 108.7 191.903 108.161 190.837 107.647C189.771 107.134 188.671 106.678 187.545 106.253C187.478 106.226 187.442 106.154 187.469 106.087C187.486 106.04 187.536 106.006 187.6 106.012Z" fill="#D3EFF2"/>
<path d="M159.599 55.7876C160.28 54.5693 161.084 53.4211 161.942 52.3019C162.799 51.1827 163.752 50.1371 164.761 49.1485C165.771 48.16 166.816 47.1741 168.01 46.4047C169.203 45.6354 170.465 44.9573 171.827 44.509C172.326 44.3397 172.859 44.615 173.029 45.114C173.164 45.5104 173.017 45.9279 172.704 46.1665C171.612 47.0016 170.505 47.7244 169.41 48.4815C168.314 49.2385 167.15 49.9043 166.059 50.6894C164.959 51.4683 163.902 52.306 162.857 53.178C161.803 54.0437 160.809 54.9806 159.812 55.9533C159.761 56.0024 159.683 56.0051 159.634 55.9542C159.577 55.8972 159.568 55.827 159.599 55.7876Z" fill="#FBE4E6"/>
<path d="M59.439 9.67749L59.5 10L59.5888 9.44041C59.8698 7.65698 60.7334 6.06792 62 5C60.7666 3.79111 59.9105 2.14652 59.561 0.322507L59.5 0L59.4112 0.559589C59.1302 2.34302 58.2666 3.93208 57 5C58.2352 6.20888 59.0913 7.85135 59.439 9.67749Z" fill="#FBE4E6"/>
<path d="M165.124 91.3472C165.091 91.1615 165.059 90.9757 165.027 90.7819C165.827 89.5542 166.384 88.1408 166.562 86.582C167.168 81.1869 163.298 76.3247 157.917 75.719C157.731 75.6947 157.545 75.7109 157.368 75.7109C157.319 75.6624 157.271 75.6059 157.222 75.5494C157.351 70.5096 153.659 66.1078 148.569 65.5424C146.38 65.3001 144.303 65.8251 142.542 66.8589C141.031 64.2906 138.405 62.4168 135.222 62.0614C131.053 61.593 127.223 63.8463 125.43 67.392C124.42 66.8832 123.313 66.5036 122.125 66.3743C116.753 65.7767 111.905 69.6615 111.307 75.0567C111.226 75.7594 111.234 76.4459 111.299 77.1243C106.823 77.5928 103.123 81.1222 102.598 85.7905C102.299 88.472 103.107 91.0242 104.658 92.9868C102.711 94.5617 101.361 96.8636 101.062 99.545C100.537 104.213 103.373 108.478 107.631 109.932C107.421 110.578 107.259 111.248 107.187 111.951C106.581 117.346 110.451 122.208 115.823 122.814C117.019 122.951 118.175 122.83 119.273 122.555C120.243 126.416 123.483 129.461 127.652 129.937C130.835 130.301 133.808 129.057 135.844 126.884C137.331 128.29 139.246 129.267 141.435 129.509C146.517 130.083 151.09 126.618 152.076 121.675C152.14 121.635 152.197 121.586 152.253 121.546C152.431 121.586 152.601 121.635 152.787 121.659C158.159 122.265 163.007 118.38 163.605 112.985C163.783 111.426 163.54 109.932 163.039 108.559C163.112 108.381 163.185 108.203 163.257 108.025C166.279 106.636 168.541 103.785 168.937 100.223C169.341 96.6617 167.766 93.3745 165.124 91.3472Z" fill="#FFD262"/>
<ellipse cx="134.999" cy="91.9199" rx="6.12" ry="8.16" fill="white"/>
<ellipse cx="137.72" cy="90.22" rx="3.4" ry="4.42" fill="#222222"/>
<ellipse cx="149.28" cy="91.9199" rx="6.12" ry="8.16" fill="white"/>
<ellipse cx="152.002" cy="90.2198" rx="3.4" ry="4.42" fill="#222222"/>
<path d="M128.076 105.015L143.5 111.3L156.513 105.015M155.276 103.787L157.44 105.937M129.622 103.48L126.84 106.244" stroke="#222222" stroke-width="2" stroke-linecap="round" stroke-linejoin="round"/>
<path d="M155.635 119.261L167.1 104.508C167.399 104.119 168.022 104.303 168.062 104.792L168.998 115.836L161.971 126.782L155.635 119.261Z" fill="#677AC7"/>
<path d="M150.229 122.19L166.08 104L168.621 115.572L150.229 122.19Z" fill="#ECEBF2"/>
<path d="M148.463 122.19L156.69 107.305L168.998 115.836L148.463 122.19Z" fill="white"/>
<path d="M141.125 128.735C143.201 125.39 150.341 114.147 152.305 111.06C152.603 110.591 153.18 110.393 153.705 110.571L169.005 115.836L157.553 133.67C157.38 133.934 157.062 134.059 156.757 133.98L141.609 129.956C141.078 129.817 140.833 129.203 141.125 128.735Z" fill="#677AC7"/>
</svg>
