<svg width="80" height="80" viewBox="0 0 80 80" fill="none" xmlns="http://www.w3.org/2000/svg">
<path d="M75.4397 34.5262C75.4016 34.3076 75.3636 34.0891 75.3256 33.861C76.2666 32.4167 76.9225 30.7539 77.1316 28.92C77.8445 22.5728 73.2915 16.8526 66.9611 16.14C66.7425 16.1115 66.5238 16.1305 66.3147 16.1305C66.2577 16.0735 66.2007 16.0069 66.1436 15.9404C66.2957 10.0112 61.9519 4.8327 55.9637 4.16757C53.3878 3.88251 50.945 4.50014 48.8728 5.71638C47.0954 2.69477 44.0062 0.490331 40.2612 0.0722472C35.3566 -0.478863 30.8511 2.17217 28.741 6.34351C27.5528 5.74489 26.2506 5.2983 24.8534 5.14627C18.5325 4.44313 12.8294 9.01354 12.126 15.3608C12.031 16.1875 12.0405 16.9951 12.1165 17.7933C6.85068 18.3444 2.49734 22.4968 1.8795 27.9889C1.52781 31.1435 2.47833 34.1461 4.30331 36.4551C2.01257 38.3079 0.425218 41.016 0.0735286 44.1706C-0.544304 49.6627 2.79199 54.6797 7.80119 56.3901C7.55406 57.1502 7.36396 57.9389 7.27841 58.7655C6.56553 65.1128 11.1185 70.833 17.4394 71.5456C18.8461 71.7071 20.2054 71.5646 21.4981 71.2415C22.6387 75.7835 26.4502 79.3657 31.3549 79.9263C35.0999 80.3539 38.5978 78.8906 40.9931 76.3346C42.742 77.9879 44.9947 79.1376 47.5706 79.4227C53.5494 80.0973 58.9293 76.021 60.0889 70.2058C60.1649 70.1583 60.2315 70.1013 60.298 70.0538C60.5071 70.1013 60.7067 70.1583 60.9253 70.1868C67.2462 70.8995 72.9493 66.3291 73.6527 59.9818C73.8618 58.1479 73.5767 56.3901 72.9873 54.7747C73.0729 54.5657 73.1584 54.3567 73.244 54.1476C76.7989 52.5133 79.4603 49.1591 79.9261 44.9688C80.4013 40.7784 78.5478 36.9111 75.4397 34.5262Z" fill="#FFD262"/>
</svg>
